%TF.GenerationSoftware,KiCad,Pcbnew,9.0.0+1*%
%TF.CreationDate,2025-04-07T23:29:54+02:00*%
%TF.ProjectId,WikiSumo_v25,57696b69-5375-46d6-9f5f-7632352e6b69,rev?*%
%TF.SameCoordinates,Original*%
%TF.FileFunction,Copper,L2,Bot*%
%TF.FilePolarity,Positive*%
%FSLAX46Y46*%
G04 Gerber Fmt 4.6, Leading zero omitted, Abs format (unit mm)*
G04 Created by KiCad (PCBNEW 9.0.0+1) date 2025-04-07 23:29:54*
%MOMM*%
%LPD*%
G01*
G04 APERTURE LIST*
G04 Aperture macros list*
%AMRoundRect*
0 Rectangle with rounded corners*
0 $1 Rounding radius*
0 $2 $3 $4 $5 $6 $7 $8 $9 X,Y pos of 4 corners*
0 Add a 4 corners polygon primitive as box body*
4,1,4,$2,$3,$4,$5,$6,$7,$8,$9,$2,$3,0*
0 Add four circle primitives for the rounded corners*
1,1,$1+$1,$2,$3*
1,1,$1+$1,$4,$5*
1,1,$1+$1,$6,$7*
1,1,$1+$1,$8,$9*
0 Add four rect primitives between the rounded corners*
20,1,$1+$1,$2,$3,$4,$5,0*
20,1,$1+$1,$4,$5,$6,$7,0*
20,1,$1+$1,$6,$7,$8,$9,0*
20,1,$1+$1,$8,$9,$2,$3,0*%
%AMHorizOval*
0 Thick line with rounded ends*
0 $1 width*
0 $2 $3 position (X,Y) of the first rounded end (center of the circle)*
0 $4 $5 position (X,Y) of the second rounded end (center of the circle)*
0 Add line between two ends*
20,1,$1,$2,$3,$4,$5,0*
0 Add two circle primitives to create the rounded ends*
1,1,$1,$2,$3*
1,1,$1,$4,$5*%
%AMRotRect*
0 Rectangle, with rotation*
0 The origin of the aperture is its center*
0 $1 length*
0 $2 width*
0 $3 Rotation angle, in degrees counterclockwise*
0 Add horizontal line*
21,1,$1,$2,0,0,$3*%
G04 Aperture macros list end*
%TA.AperFunction,ComponentPad*%
%ADD10RoundRect,0.760000X-1.140000X-1.140000X1.140000X-1.140000X1.140000X1.140000X-1.140000X1.140000X0*%
%TD*%
%TA.AperFunction,ComponentPad*%
%ADD11C,4.000000*%
%TD*%
%TA.AperFunction,ComponentPad*%
%ADD12RotRect,1.700000X1.700000X230.000000*%
%TD*%
%TA.AperFunction,ComponentPad*%
%ADD13HorizOval,1.700000X0.000000X0.000000X0.000000X0.000000X0*%
%TD*%
%TA.AperFunction,ComponentPad*%
%ADD14C,1.440000*%
%TD*%
%TA.AperFunction,ComponentPad*%
%ADD15RoundRect,0.250000X0.600000X0.750000X-0.600000X0.750000X-0.600000X-0.750000X0.600000X-0.750000X0*%
%TD*%
%TA.AperFunction,ComponentPad*%
%ADD16O,1.700000X2.000000*%
%TD*%
%TA.AperFunction,ComponentPad*%
%ADD17RotRect,1.700000X1.700000X310.000000*%
%TD*%
%TA.AperFunction,ComponentPad*%
%ADD18HorizOval,1.700000X0.000000X0.000000X0.000000X0.000000X0*%
%TD*%
%TA.AperFunction,ComponentPad*%
%ADD19R,1.700000X1.700000*%
%TD*%
%TA.AperFunction,ComponentPad*%
%ADD20O,1.700000X1.700000*%
%TD*%
%TA.AperFunction,SMDPad,CuDef*%
%ADD21RoundRect,0.100000X-0.217500X-0.100000X0.217500X-0.100000X0.217500X0.100000X-0.217500X0.100000X0*%
%TD*%
%TA.AperFunction,SMDPad,CuDef*%
%ADD22RoundRect,0.197500X0.197500X0.632500X-0.197500X0.632500X-0.197500X-0.632500X0.197500X-0.632500X0*%
%TD*%
%TA.AperFunction,SMDPad,CuDef*%
%ADD23RoundRect,0.100000X0.217500X0.100000X-0.217500X0.100000X-0.217500X-0.100000X0.217500X-0.100000X0*%
%TD*%
%TA.AperFunction,ViaPad*%
%ADD24C,0.600000*%
%TD*%
%TA.AperFunction,ViaPad*%
%ADD25C,0.800000*%
%TD*%
%TA.AperFunction,Conductor*%
%ADD26C,0.200000*%
%TD*%
%TA.AperFunction,Conductor*%
%ADD27C,0.600000*%
%TD*%
G04 APERTURE END LIST*
D10*
%TO.P,J4,1,Pin_1*%
%TO.N,+BATT*%
X147000000Y-94500000D03*
D11*
%TO.P,J4,2,Pin_2*%
%TO.N,GND*%
X152000000Y-94500000D03*
%TD*%
D12*
%TO.P,J3,1,Pin_1*%
%TO.N,+3V3*%
X192000000Y-81163403D03*
D13*
%TO.P,J3,2,Pin_2*%
%TO.N,GND*%
X190054247Y-79530722D03*
%TO.P,J3,3,Pin_3*%
%TO.N,SCL*%
X188108494Y-77898042D03*
%TO.P,J3,4,Pin_4*%
%TO.N,SDA*%
X186162741Y-76265361D03*
%TO.P,J3,5,Pin_5*%
%TO.N,unconnected-(J3-Pin_5-Pad5)*%
X184216988Y-74632681D03*
%TO.P,J3,6,Pin_6*%
%TO.N,VL53L0X_R*%
X182271235Y-73000000D03*
%TD*%
D14*
%TO.P,RV2,1,1*%
%TO.N,Net-(U7-FB)*%
X135250000Y-101420000D03*
%TO.P,RV2,2,2*%
X135250000Y-103960000D03*
%TO.P,RV2,3,3*%
%TO.N,+5V*%
X135250000Y-106500000D03*
%TD*%
D15*
%TO.P,J6,1,Pin_1*%
%TO.N,/TB6612/BO1*%
X155500000Y-106500000D03*
D16*
%TO.P,J6,2,Pin_2*%
%TO.N,/TB6612/BO2*%
X153000000Y-106500000D03*
%TD*%
D17*
%TO.P,J1,1,Pin_1*%
%TO.N,+3V3*%
X117728764Y-73000000D03*
D18*
%TO.P,J1,2,Pin_2*%
%TO.N,GND*%
X115783011Y-74632681D03*
%TO.P,J1,3,Pin_3*%
%TO.N,SCL*%
X113837258Y-76265361D03*
%TO.P,J1,4,Pin_4*%
%TO.N,SDA*%
X111891505Y-77898042D03*
%TO.P,J1,5,Pin_5*%
%TO.N,unconnected-(J1-Pin_5-Pad5)*%
X109945752Y-79530722D03*
%TO.P,J1,6,Pin_6*%
%TO.N,VL53L0X_L*%
X108000000Y-81163403D03*
%TD*%
D14*
%TO.P,RV1,1,1*%
%TO.N,Net-(R5-Pad1)*%
X176000000Y-102500000D03*
%TO.P,RV1,2,2*%
%TO.N,Net-(U6-FB)*%
X178540000Y-105040000D03*
%TO.P,RV1,3,3*%
%TO.N,+12V*%
X181080000Y-102500000D03*
%TD*%
D15*
%TO.P,J5,1,Pin_1*%
%TO.N,/TB6612/AO1*%
X145400000Y-106500000D03*
D16*
%TO.P,J5,2,Pin_2*%
%TO.N,/TB6612/AO2*%
X142900000Y-106500000D03*
%TD*%
D19*
%TO.P,J2,1,Pin_1*%
%TO.N,+3V3*%
X156350000Y-74500000D03*
D20*
%TO.P,J2,2,Pin_2*%
%TO.N,GND*%
X153810000Y-74500000D03*
%TO.P,J2,3,Pin_3*%
%TO.N,SCL*%
X151270000Y-74500000D03*
%TO.P,J2,4,Pin_4*%
%TO.N,SDA*%
X148730000Y-74500000D03*
%TO.P,J2,5,Pin_5*%
%TO.N,unconnected-(J2-Pin_5-Pad5)*%
X146190000Y-74500000D03*
%TO.P,J2,6,Pin_6*%
%TO.N,VL53L0X_C*%
X143650000Y-74500000D03*
%TD*%
D21*
%TO.P,R1,1*%
%TO.N,Net-(U3-A)*%
X109821630Y-72000000D03*
%TO.P,R1,2*%
%TO.N,+3V3*%
X110636630Y-72000000D03*
%TD*%
D22*
%TO.P,U3,1,A*%
%TO.N,Net-(U3-A)*%
X107900000Y-71500000D03*
%TO.P,U3,2,K*%
%TO.N,GND*%
X107900000Y-75500000D03*
%TO.P,U3,3*%
%TO.N,QR1113_L*%
X106100000Y-75500000D03*
%TO.P,U3,4*%
%TO.N,GND*%
X106100000Y-71500000D03*
%TD*%
D23*
%TO.P,R2,1*%
%TO.N,+3V3*%
X110636630Y-74500000D03*
%TO.P,R2,2*%
%TO.N,QR1113_L*%
X109821630Y-74500000D03*
%TD*%
%TO.P,R3,1*%
%TO.N,Net-(U4-A)*%
X189340000Y-73000000D03*
%TO.P,R3,2*%
%TO.N,+3V3*%
X188525000Y-73000000D03*
%TD*%
D22*
%TO.P,U4,1,A*%
%TO.N,Net-(U4-A)*%
X193900000Y-71500000D03*
%TO.P,U4,2,K*%
%TO.N,GND*%
X193900000Y-75500000D03*
%TO.P,U4,3*%
%TO.N,QR1113_R*%
X192100000Y-75500000D03*
%TO.P,U4,4*%
%TO.N,GND*%
X192100000Y-71500000D03*
%TD*%
D21*
%TO.P,R4,1*%
%TO.N,+3V3*%
X188525000Y-74750000D03*
%TO.P,R4,2*%
%TO.N,QR1113_R*%
X189340000Y-74750000D03*
%TD*%
D24*
%TO.N,*%
X154000000Y-84000000D03*
X157000000Y-84000000D03*
%TO.N,+3V3*%
X173500000Y-101000000D03*
X173500000Y-98000000D03*
X173500000Y-105500000D03*
X173500000Y-103500000D03*
X179500000Y-78500000D03*
%TO.N,QR1113_L*%
X164000000Y-92000000D03*
%TO.N,QR1113_R*%
X184500000Y-85500000D03*
%TO.N,TB6612_BI1*%
X166500000Y-78500000D03*
X168500000Y-104500000D03*
%TO.N,TB6612_AI1*%
X174000000Y-83500000D03*
X172500000Y-102000000D03*
%TO.N,GND*%
X190500000Y-88000000D03*
X178000000Y-96500000D03*
X147500000Y-87500000D03*
X184500000Y-98500000D03*
X142500000Y-87500000D03*
X109500000Y-73000000D03*
X168000000Y-75000000D03*
X108000000Y-88500000D03*
X169500000Y-97000000D03*
X160000000Y-104500000D03*
X169000000Y-89500000D03*
X109000000Y-89500000D03*
X190500000Y-75500000D03*
X139500000Y-78500000D03*
X140500000Y-99500000D03*
X192000000Y-102000000D03*
X158500000Y-101500000D03*
X135000000Y-74500000D03*
X142000000Y-97000000D03*
X132000000Y-102500000D03*
X165000000Y-105500000D03*
X187000000Y-71500000D03*
X170000000Y-89500000D03*
X158500000Y-105500000D03*
X186000000Y-72500000D03*
X160000000Y-97500000D03*
X192000000Y-105000000D03*
X175000000Y-96500000D03*
X109000000Y-88500000D03*
X168000000Y-76000000D03*
X181000000Y-90000000D03*
X188500000Y-84000000D03*
X137500000Y-74500000D03*
X191500000Y-88000000D03*
X184500000Y-99500000D03*
X192500000Y-77500000D03*
X151500000Y-79500000D03*
X170500000Y-97000000D03*
X117000000Y-79000000D03*
X186500000Y-83500000D03*
X168000000Y-89500000D03*
X108000000Y-87500000D03*
X140500000Y-95000000D03*
X121000000Y-74500000D03*
X191500000Y-86000000D03*
X126000000Y-97500000D03*
X140500000Y-97000000D03*
X122500000Y-74500000D03*
X110000000Y-89500000D03*
X165000000Y-103500000D03*
X165000000Y-106500000D03*
X132000000Y-104500000D03*
X168000000Y-88500000D03*
X143500000Y-83500000D03*
X173000000Y-72500000D03*
X142000000Y-99500000D03*
X125000000Y-96500000D03*
X143500000Y-97000000D03*
X139500000Y-74500000D03*
X193500000Y-86000000D03*
X110500000Y-73000000D03*
X167000000Y-75000000D03*
X177000000Y-96500000D03*
X109000000Y-87500000D03*
X150000000Y-87500000D03*
X192000000Y-104000000D03*
X120000000Y-79000000D03*
X172000000Y-104500000D03*
X169000000Y-88500000D03*
X160000000Y-106500000D03*
X174000000Y-73500000D03*
X158500000Y-106500000D03*
X192000000Y-87000000D03*
X191000000Y-74000000D03*
X133500000Y-102500000D03*
X192500000Y-97000000D03*
X155000000Y-101500000D03*
X165000000Y-104500000D03*
X160500000Y-101500000D03*
X159000000Y-97500000D03*
X169000000Y-75000000D03*
X176000000Y-96500000D03*
X140500000Y-93000000D03*
X193000000Y-87000000D03*
X110000000Y-87500000D03*
X182000000Y-90000000D03*
X142000000Y-95000000D03*
X190000000Y-74000000D03*
X181000000Y-91000000D03*
X170000000Y-88500000D03*
X157000000Y-81500000D03*
X192000000Y-103000000D03*
X157000000Y-97500000D03*
X137500000Y-78500000D03*
X187000000Y-72500000D03*
X145000000Y-87500000D03*
X158000000Y-97500000D03*
X160000000Y-105500000D03*
X184500000Y-97500000D03*
X146000000Y-83500000D03*
X170000000Y-76000000D03*
X156500000Y-87000000D03*
X183000000Y-90000000D03*
X144000000Y-99500000D03*
X142000000Y-93000000D03*
X169000000Y-76000000D03*
X141000000Y-83500000D03*
X122000000Y-79000000D03*
X156500000Y-101500000D03*
X192500000Y-86000000D03*
X182000000Y-91000000D03*
X186000000Y-71500000D03*
X118500000Y-79000000D03*
X108000000Y-89500000D03*
X142000000Y-78500000D03*
X192500000Y-88000000D03*
X170000000Y-75000000D03*
X192500000Y-98000000D03*
X187500000Y-83500000D03*
X183000000Y-91000000D03*
X188000000Y-71500000D03*
X167000000Y-76000000D03*
X192000000Y-77000000D03*
X110000000Y-88500000D03*
X191000000Y-87000000D03*
%TO.N,TB6612_AI2*%
X173000000Y-81000000D03*
X171500000Y-101500000D03*
%TO.N,VL53L0X_L*%
X157500000Y-78500000D03*
%TO.N,TB6612_BI2*%
X168500000Y-105500000D03*
X165000000Y-78500000D03*
D25*
%TO.N,Net-(D2-K)*%
X127000000Y-99000000D03*
X119500000Y-86500000D03*
D24*
%TO.N,Net-(U6-FB)*%
X180500000Y-106000000D03*
D25*
X189500000Y-97000000D03*
%TD*%
D26*
%TO.N,Net-(U3-A)*%
X109821630Y-72000000D02*
X108400000Y-72000000D01*
X108400000Y-72000000D02*
X107900000Y-71500000D01*
%TO.N,+3V3*%
X110636630Y-74500000D02*
X112136630Y-73000000D01*
X156350000Y-74500000D02*
X154850000Y-73000000D01*
X188525000Y-74750000D02*
X188525000Y-74822370D01*
X112136630Y-73000000D02*
X111136630Y-72000000D01*
X192000000Y-78297370D02*
X188525000Y-74822370D01*
X173500000Y-98000000D02*
X173500000Y-101000000D01*
X154850000Y-73000000D02*
X117728764Y-73000000D01*
X182163403Y-81163403D02*
X186336597Y-81163403D01*
X188525000Y-74750000D02*
X188525000Y-73000000D01*
X192000000Y-81163403D02*
X192000000Y-78297370D01*
X173500000Y-94000000D02*
X173500000Y-98000000D01*
X112136630Y-73000000D02*
X117728764Y-73000000D01*
X111136630Y-72000000D02*
X110636630Y-72000000D01*
X186336597Y-81163403D02*
X173500000Y-94000000D01*
X173500000Y-101000000D02*
X173500000Y-103500000D01*
X173500000Y-103500000D02*
X173500000Y-105500000D01*
X192000000Y-81163403D02*
X186336597Y-81163403D01*
X179500000Y-78500000D02*
X182163403Y-81163403D01*
%TO.N,QR1113_L*%
X111007837Y-85799000D02*
X106849000Y-81640163D01*
X109821630Y-74500000D02*
X109621631Y-74300001D01*
X106849000Y-80686643D02*
X109821630Y-77714013D01*
X107299999Y-74300001D02*
X106100000Y-75500000D01*
X109821630Y-77714013D02*
X109821630Y-74500000D01*
X157799000Y-85799000D02*
X111007837Y-85799000D01*
X164000000Y-92000000D02*
X157799000Y-85799000D01*
X109621631Y-74300001D02*
X107299999Y-74300001D01*
X106849000Y-81640163D02*
X106849000Y-80686643D01*
%TO.N,Net-(U4-A)*%
X192400000Y-73000000D02*
X193900000Y-71500000D01*
X189340000Y-73000000D02*
X192400000Y-73000000D01*
%TO.N,QR1113_R*%
X189340000Y-74750000D02*
X191350000Y-74750000D01*
X193498507Y-76898507D02*
X192100000Y-75500000D01*
X189391357Y-85500000D02*
X193498507Y-81392850D01*
X193498507Y-81392850D02*
X193498507Y-76898507D01*
X184500000Y-85500000D02*
X189391357Y-85500000D01*
X191350000Y-74750000D02*
X192100000Y-75500000D01*
%TO.N,TB6612_BI1*%
X166500000Y-102500000D02*
X168500000Y-104500000D01*
X166500000Y-78500000D02*
X166500000Y-102500000D01*
%TO.N,TB6612_AI1*%
X172500000Y-85000000D02*
X172500000Y-102000000D01*
X174000000Y-83500000D02*
X172500000Y-85000000D01*
%TO.N,SDA*%
X114314018Y-75114361D02*
X115064018Y-75864361D01*
X111891505Y-77898042D02*
X111891505Y-76583354D01*
X147365639Y-75864361D02*
X148730000Y-74500000D01*
X111891505Y-76583354D02*
X113360498Y-75114361D01*
X113360498Y-75114361D02*
X114314018Y-75114361D01*
X115064018Y-75864361D02*
X147365639Y-75864361D01*
%TO.N,SCL*%
X113837258Y-76265361D02*
X149504639Y-76265361D01*
X149504639Y-76265361D02*
X151270000Y-74500000D01*
X149504639Y-76265361D02*
X151137320Y-77898042D01*
X151137320Y-77898042D02*
X188108494Y-77898042D01*
%TO.N,TB6612_AI2*%
X173000000Y-81000000D02*
X171500000Y-82500000D01*
X171500000Y-82500000D02*
X171500000Y-101500000D01*
%TO.N,VL53L0X_L*%
X154836597Y-81163403D02*
X157500000Y-78500000D01*
X108000000Y-81163403D02*
X154836597Y-81163403D01*
%TO.N,TB6612_BI2*%
X165000000Y-78500000D02*
X165000000Y-102000000D01*
X165000000Y-102000000D02*
X168500000Y-105500000D01*
D27*
%TO.N,Net-(D2-K)*%
X127000000Y-99000000D02*
X127000000Y-94000000D01*
X127000000Y-94000000D02*
X119500000Y-86500000D01*
%TO.N,Net-(U6-FB)*%
X180500000Y-106000000D02*
X189500000Y-97000000D01*
%TD*%
%TA.AperFunction,Conductor*%
%TO.N,GND*%
G36*
X109018792Y-74901130D02*
G01*
X109020957Y-74900576D01*
X109052165Y-74910929D01*
X109083688Y-74920186D01*
X109085731Y-74922065D01*
X109087272Y-74922577D01*
X109113126Y-74946603D01*
X109114085Y-74947791D01*
X109175848Y-75028282D01*
X109184332Y-75034792D01*
X109193607Y-75046279D01*
X109220407Y-75110804D01*
X109221130Y-75124177D01*
X109221130Y-77413915D01*
X109201445Y-77480954D01*
X109184811Y-77501596D01*
X106368481Y-80317925D01*
X106368480Y-80317927D01*
X106329026Y-80386264D01*
X106289423Y-80454858D01*
X106248499Y-80607586D01*
X106248499Y-80607588D01*
X106248499Y-80775689D01*
X106248500Y-80775702D01*
X106248500Y-81553493D01*
X106248499Y-81553511D01*
X106248499Y-81719217D01*
X106248498Y-81719217D01*
X106289423Y-81871948D01*
X106318358Y-81922063D01*
X106318359Y-81922067D01*
X106318360Y-81922067D01*
X106349257Y-81975584D01*
X106368479Y-82008877D01*
X106368481Y-82008880D01*
X106487349Y-82127748D01*
X106487354Y-82127752D01*
X110639121Y-86279520D01*
X110639123Y-86279521D01*
X110639127Y-86279524D01*
X110776046Y-86358573D01*
X110776053Y-86358577D01*
X110928780Y-86399501D01*
X110928782Y-86399501D01*
X111094491Y-86399501D01*
X111094507Y-86399500D01*
X118475500Y-86399500D01*
X118542539Y-86419185D01*
X118588294Y-86471989D01*
X118599500Y-86523500D01*
X118599500Y-86588695D01*
X118634103Y-86762658D01*
X118634106Y-86762667D01*
X118701983Y-86926540D01*
X118701990Y-86926553D01*
X118800535Y-87074034D01*
X118800538Y-87074038D01*
X118925961Y-87199461D01*
X118925965Y-87199464D01*
X119073449Y-87298011D01*
X119073451Y-87298011D01*
X119073453Y-87298013D01*
X119208540Y-87353967D01*
X119248769Y-87380847D01*
X126163181Y-94295259D01*
X126196666Y-94356582D01*
X126199500Y-94382940D01*
X126199500Y-98554793D01*
X126190061Y-98602245D01*
X126134106Y-98737332D01*
X126134103Y-98737341D01*
X126099500Y-98911304D01*
X126099500Y-99088695D01*
X126134103Y-99262658D01*
X126134106Y-99262667D01*
X126201983Y-99426540D01*
X126201990Y-99426553D01*
X126300535Y-99574034D01*
X126300538Y-99574038D01*
X126425961Y-99699461D01*
X126425965Y-99699464D01*
X126573446Y-99798009D01*
X126573459Y-99798016D01*
X126696363Y-99848923D01*
X126737334Y-99865894D01*
X126737336Y-99865894D01*
X126737341Y-99865896D01*
X126911304Y-99900499D01*
X126911307Y-99900500D01*
X126911309Y-99900500D01*
X127088693Y-99900500D01*
X127088694Y-99900499D01*
X127146682Y-99888964D01*
X127262658Y-99865896D01*
X127262661Y-99865894D01*
X127262666Y-99865894D01*
X127426547Y-99798013D01*
X127574035Y-99699464D01*
X127699464Y-99574035D01*
X127798013Y-99426547D01*
X127865894Y-99262666D01*
X127900500Y-99088691D01*
X127900500Y-98911309D01*
X127900500Y-98911306D01*
X127900499Y-98911304D01*
X127865896Y-98737341D01*
X127865893Y-98737332D01*
X127809939Y-98602245D01*
X127800500Y-98554793D01*
X127800500Y-93921156D01*
X127797068Y-93903907D01*
X127797068Y-93903901D01*
X127769739Y-93766510D01*
X127769738Y-93766503D01*
X127709394Y-93620821D01*
X127709392Y-93620818D01*
X127709390Y-93620814D01*
X127621789Y-93489711D01*
X127621786Y-93489707D01*
X127512589Y-93380510D01*
X127427339Y-93295260D01*
X144599500Y-93295260D01*
X144599500Y-95704739D01*
X144609987Y-95837982D01*
X144665426Y-96058002D01*
X144759258Y-96264579D01*
X144759263Y-96264589D01*
X144888473Y-96451090D01*
X145048909Y-96611526D01*
X145235410Y-96740736D01*
X145235420Y-96740741D01*
X145441997Y-96834573D01*
X145441998Y-96834573D01*
X145442000Y-96834574D01*
X145662017Y-96890013D01*
X145795264Y-96900500D01*
X145795270Y-96900500D01*
X148204730Y-96900500D01*
X148204736Y-96900500D01*
X148337983Y-96890013D01*
X148558000Y-96834574D01*
X148764582Y-96740740D01*
X148764584Y-96740738D01*
X148764589Y-96740736D01*
X148951090Y-96611526D01*
X149111526Y-96451090D01*
X149204600Y-96316748D01*
X149204600Y-96316747D01*
X149240739Y-96264583D01*
X149240740Y-96264582D01*
X149334574Y-96058000D01*
X149390013Y-95837983D01*
X149400500Y-95704736D01*
X149400500Y-95370224D01*
X149420185Y-95303185D01*
X149472989Y-95257430D01*
X149542147Y-95247486D01*
X149605703Y-95276511D01*
X149641542Y-95329270D01*
X149686662Y-95458217D01*
X149808492Y-95711200D01*
X149957884Y-95948956D01*
X150064187Y-96082257D01*
X150884728Y-95261716D01*
X150970278Y-95379466D01*
X151120534Y-95529722D01*
X151238281Y-95615270D01*
X150417741Y-96435810D01*
X150417741Y-96435811D01*
X150551043Y-96542115D01*
X150788799Y-96691507D01*
X151041782Y-96813337D01*
X151306819Y-96906077D01*
X151306821Y-96906078D01*
X151580575Y-96968560D01*
X151580587Y-96968562D01*
X151859598Y-96999999D01*
X151859600Y-97000000D01*
X152140400Y-97000000D01*
X152140401Y-96999999D01*
X152419412Y-96968562D01*
X152419424Y-96968560D01*
X152693178Y-96906078D01*
X152693180Y-96906077D01*
X152958217Y-96813337D01*
X153211200Y-96691507D01*
X153448956Y-96542116D01*
X153582257Y-96435810D01*
X152761717Y-95615271D01*
X152879466Y-95529722D01*
X153029722Y-95379466D01*
X153115270Y-95261717D01*
X153935810Y-96082257D01*
X154042116Y-95948956D01*
X154191507Y-95711200D01*
X154313337Y-95458217D01*
X154406077Y-95193180D01*
X154406078Y-95193178D01*
X154468560Y-94919424D01*
X154468562Y-94919412D01*
X154499999Y-94640401D01*
X154500000Y-94640399D01*
X154500000Y-94359600D01*
X154499999Y-94359598D01*
X154468562Y-94080587D01*
X154468560Y-94080575D01*
X154406078Y-93806821D01*
X154406077Y-93806819D01*
X154313337Y-93541782D01*
X154191507Y-93288799D01*
X154042115Y-93051043D01*
X153935810Y-92917741D01*
X153115270Y-93738281D01*
X153029722Y-93620534D01*
X152879466Y-93470278D01*
X152761716Y-93384728D01*
X153582257Y-92564187D01*
X153448956Y-92457884D01*
X153211200Y-92308492D01*
X152958217Y-92186662D01*
X152693180Y-92093922D01*
X152693178Y-92093921D01*
X152419424Y-92031439D01*
X152419412Y-92031437D01*
X152140401Y-92000000D01*
X151859598Y-92000000D01*
X151580587Y-92031437D01*
X151580575Y-92031439D01*
X151306821Y-92093921D01*
X151306819Y-92093922D01*
X151041782Y-92186662D01*
X150788799Y-92308492D01*
X150551043Y-92457884D01*
X150417741Y-92564187D01*
X151238282Y-93384728D01*
X151120534Y-93470278D01*
X150970278Y-93620534D01*
X150884728Y-93738282D01*
X150064187Y-92917741D01*
X149957884Y-93051043D01*
X149808492Y-93288799D01*
X149686663Y-93541780D01*
X149641542Y-93670730D01*
X149600820Y-93727506D01*
X149535867Y-93753253D01*
X149467305Y-93739797D01*
X149416903Y-93691409D01*
X149400500Y-93629775D01*
X149400500Y-93295270D01*
X149400500Y-93295264D01*
X149390013Y-93162017D01*
X149334574Y-92942000D01*
X149256328Y-92769737D01*
X149240741Y-92735420D01*
X149240735Y-92735410D01*
X149204601Y-92683253D01*
X149204599Y-92683251D01*
X149111524Y-92548907D01*
X148951090Y-92388473D01*
X148764589Y-92259263D01*
X148764579Y-92259258D01*
X148558002Y-92165426D01*
X148411322Y-92128466D01*
X148337983Y-92109987D01*
X148304671Y-92107365D01*
X148204739Y-92099500D01*
X148204736Y-92099500D01*
X145795264Y-92099500D01*
X145795260Y-92099500D01*
X145662017Y-92109987D01*
X145441997Y-92165426D01*
X145235420Y-92259258D01*
X145235410Y-92259263D01*
X145048909Y-92388473D01*
X144888473Y-92548909D01*
X144759263Y-92735410D01*
X144759258Y-92735420D01*
X144665426Y-92941997D01*
X144609987Y-93162017D01*
X144599500Y-93295260D01*
X127427339Y-93295260D01*
X120743259Y-86611181D01*
X120709774Y-86549858D01*
X120714758Y-86480166D01*
X120756630Y-86424233D01*
X120822094Y-86399816D01*
X120830940Y-86399500D01*
X157498903Y-86399500D01*
X157565942Y-86419185D01*
X157586584Y-86435819D01*
X163165425Y-92014660D01*
X163198910Y-92075983D01*
X163199361Y-92078149D01*
X163230261Y-92233491D01*
X163230264Y-92233501D01*
X163290602Y-92379172D01*
X163290609Y-92379185D01*
X163378210Y-92510288D01*
X163378213Y-92510292D01*
X163489707Y-92621786D01*
X163489711Y-92621789D01*
X163620814Y-92709390D01*
X163620827Y-92709397D01*
X163766498Y-92769735D01*
X163766503Y-92769737D01*
X163896982Y-92795691D01*
X163921153Y-92800499D01*
X163921156Y-92800500D01*
X163921158Y-92800500D01*
X164078844Y-92800500D01*
X164078845Y-92800499D01*
X164233497Y-92769737D01*
X164233509Y-92769731D01*
X164239324Y-92767969D01*
X164240158Y-92770720D01*
X164297359Y-92764497D01*
X164359878Y-92795691D01*
X164395608Y-92855734D01*
X164399500Y-92886555D01*
X164399500Y-101913330D01*
X164399499Y-101913348D01*
X164399499Y-102079054D01*
X164399498Y-102079054D01*
X164440422Y-102231782D01*
X164440424Y-102231787D01*
X164443628Y-102237336D01*
X164443629Y-102237338D01*
X164519477Y-102368712D01*
X164519481Y-102368717D01*
X164638349Y-102487585D01*
X164638355Y-102487590D01*
X167665425Y-105514660D01*
X167698910Y-105575983D01*
X167699361Y-105578149D01*
X167730261Y-105733491D01*
X167730264Y-105733501D01*
X167790602Y-105879172D01*
X167790609Y-105879185D01*
X167878210Y-106010288D01*
X167878213Y-106010292D01*
X167989707Y-106121786D01*
X167989711Y-106121789D01*
X168120814Y-106209390D01*
X168120827Y-106209397D01*
X168266498Y-106269735D01*
X168266503Y-106269737D01*
X168421153Y-106300499D01*
X168421156Y-106300500D01*
X168421158Y-106300500D01*
X168578844Y-106300500D01*
X168578845Y-106300499D01*
X168733497Y-106269737D01*
X168867579Y-106214199D01*
X168879172Y-106209397D01*
X168879172Y-106209396D01*
X168879179Y-106209394D01*
X169010289Y-106121789D01*
X169121789Y-106010289D01*
X169209394Y-105879179D01*
X169269737Y-105733497D01*
X169300500Y-105578842D01*
X169300500Y-105421158D01*
X169300500Y-105421155D01*
X169300499Y-105421153D01*
X169283782Y-105337114D01*
X169269737Y-105266503D01*
X169248762Y-105215865D01*
X169209396Y-105120825D01*
X169209394Y-105120822D01*
X169209394Y-105120821D01*
X169174694Y-105068889D01*
X169153816Y-105002215D01*
X169172300Y-104934835D01*
X169174676Y-104931136D01*
X169209394Y-104879179D01*
X169269737Y-104733497D01*
X169300500Y-104578842D01*
X169300500Y-104421158D01*
X169300500Y-104421155D01*
X169300499Y-104421153D01*
X169269738Y-104266510D01*
X169269737Y-104266503D01*
X169263695Y-104251917D01*
X169209397Y-104120827D01*
X169209390Y-104120814D01*
X169121789Y-103989711D01*
X169121786Y-103989707D01*
X169010292Y-103878213D01*
X169010288Y-103878210D01*
X168879185Y-103790609D01*
X168879172Y-103790602D01*
X168733501Y-103730264D01*
X168733491Y-103730261D01*
X168578149Y-103699361D01*
X168516238Y-103666976D01*
X168514660Y-103665425D01*
X167136819Y-102287584D01*
X167103334Y-102226261D01*
X167100500Y-102199903D01*
X167100500Y-79079765D01*
X167120185Y-79012726D01*
X167121398Y-79010874D01*
X167162505Y-78949354D01*
X167209394Y-78879179D01*
X167269737Y-78733497D01*
X167288297Y-78640189D01*
X167296620Y-78598351D01*
X167329005Y-78536440D01*
X167389721Y-78501866D01*
X167418237Y-78498542D01*
X178581763Y-78498542D01*
X178648802Y-78518227D01*
X178694557Y-78571031D01*
X178703380Y-78598351D01*
X178730261Y-78733489D01*
X178730264Y-78733501D01*
X178790602Y-78879172D01*
X178790609Y-78879185D01*
X178878210Y-79010288D01*
X178878213Y-79010292D01*
X178989707Y-79121786D01*
X178989711Y-79121789D01*
X179120814Y-79209390D01*
X179120827Y-79209397D01*
X179215333Y-79248542D01*
X179266503Y-79269737D01*
X179331147Y-79282595D01*
X179421849Y-79300638D01*
X179483760Y-79333023D01*
X179485338Y-79334573D01*
X181794687Y-81643923D01*
X181794689Y-81643924D01*
X181794693Y-81643927D01*
X181908080Y-81709390D01*
X181931619Y-81722980D01*
X182084346Y-81763904D01*
X182084348Y-81763904D01*
X182250057Y-81763904D01*
X182250073Y-81763903D01*
X184587499Y-81763903D01*
X184654538Y-81783588D01*
X184700293Y-81836392D01*
X184710237Y-81905550D01*
X184681212Y-81969106D01*
X184675180Y-81975584D01*
X173312181Y-93338583D01*
X173250858Y-93372068D01*
X173181166Y-93367084D01*
X173125233Y-93325212D01*
X173100816Y-93259748D01*
X173100500Y-93250902D01*
X173100500Y-85300097D01*
X173120185Y-85233058D01*
X173136819Y-85212416D01*
X173558633Y-84790602D01*
X174014662Y-84334572D01*
X174075983Y-84301089D01*
X174078150Y-84300638D01*
X174136085Y-84289113D01*
X174233497Y-84269737D01*
X174379179Y-84209394D01*
X174510289Y-84121789D01*
X174621789Y-84010289D01*
X174709394Y-83879179D01*
X174769737Y-83733497D01*
X174800500Y-83578842D01*
X174800500Y-83421158D01*
X174800500Y-83421155D01*
X174800499Y-83421153D01*
X174774531Y-83290606D01*
X174769737Y-83266503D01*
X174769735Y-83266498D01*
X174709397Y-83120827D01*
X174709390Y-83120814D01*
X174621789Y-82989711D01*
X174621786Y-82989707D01*
X174510292Y-82878213D01*
X174510288Y-82878210D01*
X174379185Y-82790609D01*
X174379172Y-82790602D01*
X174233501Y-82730264D01*
X174233489Y-82730261D01*
X174078845Y-82699500D01*
X174078842Y-82699500D01*
X173921158Y-82699500D01*
X173921155Y-82699500D01*
X173766510Y-82730261D01*
X173766498Y-82730264D01*
X173620827Y-82790602D01*
X173620814Y-82790609D01*
X173489711Y-82878210D01*
X173489707Y-82878213D01*
X173378213Y-82989707D01*
X173378210Y-82989711D01*
X173290609Y-83120814D01*
X173290602Y-83120827D01*
X173230264Y-83266498D01*
X173230261Y-83266508D01*
X173199361Y-83421850D01*
X173166976Y-83483761D01*
X173165425Y-83485339D01*
X172312181Y-84338583D01*
X172250858Y-84372068D01*
X172181166Y-84367084D01*
X172125233Y-84325212D01*
X172100816Y-84259748D01*
X172100500Y-84250902D01*
X172100500Y-82800097D01*
X172120185Y-82733058D01*
X172136819Y-82712416D01*
X172530782Y-82318453D01*
X173014662Y-81834572D01*
X173075983Y-81801089D01*
X173078150Y-81800638D01*
X173136085Y-81789113D01*
X173233497Y-81769737D01*
X173379179Y-81709394D01*
X173510289Y-81621789D01*
X173621789Y-81510289D01*
X173709394Y-81379179D01*
X173769737Y-81233497D01*
X173800500Y-81078842D01*
X173800500Y-80921158D01*
X173800500Y-80921155D01*
X173800499Y-80921153D01*
X173769737Y-80766503D01*
X173769404Y-80765700D01*
X173709397Y-80620827D01*
X173709390Y-80620814D01*
X173621789Y-80489711D01*
X173621786Y-80489707D01*
X173510292Y-80378213D01*
X173510288Y-80378210D01*
X173379185Y-80290609D01*
X173379172Y-80290602D01*
X173233501Y-80230264D01*
X173233489Y-80230261D01*
X173078845Y-80199500D01*
X173078842Y-80199500D01*
X172921158Y-80199500D01*
X172921155Y-80199500D01*
X172766510Y-80230261D01*
X172766498Y-80230264D01*
X172620827Y-80290602D01*
X172620814Y-80290609D01*
X172489711Y-80378210D01*
X172489707Y-80378213D01*
X172378213Y-80489707D01*
X172378210Y-80489711D01*
X172290609Y-80620814D01*
X172290602Y-80620827D01*
X172230264Y-80766498D01*
X172230261Y-80766508D01*
X172199361Y-80921850D01*
X172166976Y-80983761D01*
X172165425Y-80985339D01*
X171019482Y-82131281D01*
X171019480Y-82131283D01*
X171008608Y-82150115D01*
X171000648Y-82163903D01*
X170940423Y-82268215D01*
X170899499Y-82420943D01*
X170899499Y-82420945D01*
X170899499Y-82589046D01*
X170899500Y-82589059D01*
X170899500Y-100920234D01*
X170879815Y-100987273D01*
X170878602Y-100989125D01*
X170790609Y-101120814D01*
X170790602Y-101120827D01*
X170730264Y-101266498D01*
X170730261Y-101266510D01*
X170699500Y-101421153D01*
X170699500Y-101578846D01*
X170730261Y-101733489D01*
X170730264Y-101733501D01*
X170790602Y-101879172D01*
X170790609Y-101879185D01*
X170878210Y-102010288D01*
X170878213Y-102010292D01*
X170989707Y-102121786D01*
X170989711Y-102121789D01*
X171120814Y-102209390D01*
X171120827Y-102209397D01*
X171188279Y-102237336D01*
X171266503Y-102269737D01*
X171386736Y-102293653D01*
X171421153Y-102300499D01*
X171421156Y-102300500D01*
X171421158Y-102300500D01*
X171578843Y-102300500D01*
X171595304Y-102297225D01*
X171644568Y-102287426D01*
X171714158Y-102293653D01*
X171769336Y-102336515D01*
X171783320Y-102361589D01*
X171790606Y-102379179D01*
X171790609Y-102379185D01*
X171878210Y-102510288D01*
X171878213Y-102510292D01*
X171989707Y-102621786D01*
X171989711Y-102621789D01*
X172120814Y-102709390D01*
X172120827Y-102709397D01*
X172263502Y-102768494D01*
X172266503Y-102769737D01*
X172421153Y-102800499D01*
X172421156Y-102800500D01*
X172421158Y-102800500D01*
X172578844Y-102800500D01*
X172578845Y-102800499D01*
X172733497Y-102769737D01*
X172733509Y-102769731D01*
X172739324Y-102767969D01*
X172740158Y-102770720D01*
X172760601Y-102768496D01*
X172793147Y-102763817D01*
X172795159Y-102764736D01*
X172797359Y-102764497D01*
X172826779Y-102779176D01*
X172856703Y-102792842D01*
X172857899Y-102794703D01*
X172859878Y-102795691D01*
X172876687Y-102823938D01*
X172894477Y-102851620D01*
X172894896Y-102854538D01*
X172895608Y-102855734D01*
X172899500Y-102886555D01*
X172899500Y-102920234D01*
X172879815Y-102987273D01*
X172878602Y-102989125D01*
X172790609Y-103120814D01*
X172790602Y-103120827D01*
X172730264Y-103266498D01*
X172730261Y-103266510D01*
X172699500Y-103421153D01*
X172699500Y-103578846D01*
X172730261Y-103733489D01*
X172730264Y-103733501D01*
X172790602Y-103879172D01*
X172790609Y-103879185D01*
X172878602Y-104010874D01*
X172899480Y-104077551D01*
X172899500Y-104079765D01*
X172899500Y-104920234D01*
X172879815Y-104987273D01*
X172878602Y-104989125D01*
X172790609Y-105120814D01*
X172790602Y-105120827D01*
X172730264Y-105266498D01*
X172730261Y-105266510D01*
X172699500Y-105421153D01*
X172699500Y-105578846D01*
X172730261Y-105733489D01*
X172730264Y-105733501D01*
X172790602Y-105879172D01*
X172790609Y-105879185D01*
X172878210Y-106010288D01*
X172878213Y-106010292D01*
X172989707Y-106121786D01*
X172989711Y-106121789D01*
X173120814Y-106209390D01*
X173120827Y-106209397D01*
X173266498Y-106269735D01*
X173266503Y-106269737D01*
X173421153Y-106300499D01*
X173421156Y-106300500D01*
X173421158Y-106300500D01*
X173578844Y-106300500D01*
X173578845Y-106300499D01*
X173733497Y-106269737D01*
X173867579Y-106214199D01*
X173879172Y-106209397D01*
X173879172Y-106209396D01*
X173879179Y-106209394D01*
X174010289Y-106121789D01*
X174121789Y-106010289D01*
X174209394Y-105879179D01*
X174269737Y-105733497D01*
X174300500Y-105578842D01*
X174300500Y-105421158D01*
X174300500Y-105421155D01*
X174300499Y-105421153D01*
X174283782Y-105337114D01*
X174269737Y-105266503D01*
X174248762Y-105215865D01*
X174209397Y-105120827D01*
X174209390Y-105120814D01*
X174133986Y-105007964D01*
X174121398Y-104989125D01*
X174107251Y-104943945D01*
X177319500Y-104943945D01*
X177319500Y-105136055D01*
X177328828Y-105194949D01*
X177349553Y-105325802D01*
X177408916Y-105508506D01*
X177454110Y-105597203D01*
X177496135Y-105679681D01*
X177609055Y-105835102D01*
X177744898Y-105970945D01*
X177900319Y-106083865D01*
X177974743Y-106121786D01*
X178071493Y-106171083D01*
X178162845Y-106200764D01*
X178254199Y-106230447D01*
X178443945Y-106260500D01*
X178443946Y-106260500D01*
X178636054Y-106260500D01*
X178636055Y-106260500D01*
X178825801Y-106230447D01*
X179008509Y-106171082D01*
X179179681Y-106083865D01*
X179335102Y-105970945D01*
X179470945Y-105835102D01*
X179477041Y-105826711D01*
X179532368Y-105784046D01*
X179601981Y-105778065D01*
X179663777Y-105810670D01*
X179698136Y-105871508D01*
X179698836Y-105914968D01*
X179700097Y-105915093D01*
X179699500Y-105921155D01*
X179699500Y-106078846D01*
X179730261Y-106233489D01*
X179730264Y-106233501D01*
X179790602Y-106379172D01*
X179790609Y-106379185D01*
X179878210Y-106510288D01*
X179878213Y-106510292D01*
X179989707Y-106621786D01*
X179989711Y-106621789D01*
X180120814Y-106709390D01*
X180120827Y-106709397D01*
X180266498Y-106769735D01*
X180266503Y-106769737D01*
X180421153Y-106800499D01*
X180421156Y-106800500D01*
X180421158Y-106800500D01*
X180578844Y-106800500D01*
X180578845Y-106800499D01*
X180733497Y-106769737D01*
X180879179Y-106709394D01*
X181010289Y-106621789D01*
X189751232Y-97880844D01*
X189791454Y-97853968D01*
X189926547Y-97798013D01*
X190074035Y-97699464D01*
X190199464Y-97574035D01*
X190298013Y-97426547D01*
X190365894Y-97262666D01*
X190400500Y-97088691D01*
X190400500Y-96911309D01*
X190400500Y-96911306D01*
X190400499Y-96911304D01*
X190365896Y-96737341D01*
X190365893Y-96737332D01*
X190298016Y-96573459D01*
X190298009Y-96573446D01*
X190199464Y-96425965D01*
X190199461Y-96425961D01*
X190074038Y-96300538D01*
X190074034Y-96300535D01*
X189926553Y-96201990D01*
X189926540Y-96201983D01*
X189762667Y-96134106D01*
X189762658Y-96134103D01*
X189588694Y-96099500D01*
X189588691Y-96099500D01*
X189411309Y-96099500D01*
X189411306Y-96099500D01*
X189237341Y-96134103D01*
X189237332Y-96134106D01*
X189073459Y-96201983D01*
X189073446Y-96201990D01*
X188925965Y-96300535D01*
X188925961Y-96300538D01*
X188800538Y-96425961D01*
X188800535Y-96425965D01*
X188701985Y-96573455D01*
X188646031Y-96708541D01*
X188619151Y-96748769D01*
X182481647Y-102886273D01*
X182420324Y-102919758D01*
X182350632Y-102914774D01*
X182294699Y-102872902D01*
X182270282Y-102807438D01*
X182271493Y-102779194D01*
X182272836Y-102770720D01*
X182300500Y-102596055D01*
X182300500Y-102403945D01*
X182270447Y-102214199D01*
X182226536Y-102079054D01*
X182211083Y-102031493D01*
X182211082Y-102031491D01*
X182123865Y-101860319D01*
X182010945Y-101704898D01*
X181875102Y-101569055D01*
X181719681Y-101456135D01*
X181548506Y-101368916D01*
X181365802Y-101309553D01*
X181270928Y-101294526D01*
X181176055Y-101279500D01*
X180983945Y-101279500D01*
X180920696Y-101289517D01*
X180794197Y-101309553D01*
X180611493Y-101368916D01*
X180440318Y-101456135D01*
X180365782Y-101510289D01*
X180284898Y-101569055D01*
X180284896Y-101569057D01*
X180284895Y-101569057D01*
X180149057Y-101704895D01*
X180149057Y-101704896D01*
X180149055Y-101704898D01*
X180100560Y-101771645D01*
X180036135Y-101860318D01*
X179948916Y-102031493D01*
X179889553Y-102214197D01*
X179875884Y-102300499D01*
X179859500Y-102403945D01*
X179859500Y-102596055D01*
X179872141Y-102675865D01*
X179889553Y-102785802D01*
X179948916Y-102968506D01*
X179959422Y-102989125D01*
X180036135Y-103139681D01*
X180149055Y-103295102D01*
X180284898Y-103430945D01*
X180440319Y-103543865D01*
X180508965Y-103578842D01*
X180611493Y-103631083D01*
X180668176Y-103649500D01*
X180794199Y-103690447D01*
X180983945Y-103720500D01*
X180983946Y-103720500D01*
X181176054Y-103720500D01*
X181176055Y-103720500D01*
X181359195Y-103691493D01*
X181428487Y-103700447D01*
X181481939Y-103745444D01*
X181502579Y-103812195D01*
X181483854Y-103879509D01*
X181466273Y-103901647D01*
X179941647Y-105426273D01*
X179880324Y-105459758D01*
X179810632Y-105454774D01*
X179754699Y-105412902D01*
X179730282Y-105347438D01*
X179731493Y-105319194D01*
X179731712Y-105317817D01*
X179760500Y-105136055D01*
X179760500Y-104943945D01*
X179730447Y-104754199D01*
X179700764Y-104662845D01*
X179671083Y-104571493D01*
X179671082Y-104571491D01*
X179583865Y-104400319D01*
X179470945Y-104244898D01*
X179335102Y-104109055D01*
X179179681Y-103996135D01*
X179167065Y-103989707D01*
X179008506Y-103908916D01*
X178825802Y-103849553D01*
X178730928Y-103834526D01*
X178636055Y-103819500D01*
X178443945Y-103819500D01*
X178380696Y-103829517D01*
X178254197Y-103849553D01*
X178071493Y-103908916D01*
X177900318Y-103996135D01*
X177817848Y-104056054D01*
X177744898Y-104109055D01*
X177744896Y-104109057D01*
X177744895Y-104109057D01*
X177609057Y-104244895D01*
X177609057Y-104244896D01*
X177609055Y-104244898D01*
X177603955Y-104251918D01*
X177496135Y-104400318D01*
X177408916Y-104571493D01*
X177349553Y-104754197D01*
X177337106Y-104832786D01*
X177319500Y-104943945D01*
X174107251Y-104943945D01*
X174100520Y-104922448D01*
X174100500Y-104920234D01*
X174100500Y-104079765D01*
X174120185Y-104012726D01*
X174121398Y-104010874D01*
X174209390Y-103879185D01*
X174209390Y-103879184D01*
X174209394Y-103879179D01*
X174269737Y-103733497D01*
X174300500Y-103578842D01*
X174300500Y-103421158D01*
X174300500Y-103421155D01*
X174300499Y-103421153D01*
X174269737Y-103266503D01*
X174269735Y-103266498D01*
X174209397Y-103120827D01*
X174209390Y-103120814D01*
X174121398Y-102989125D01*
X174100520Y-102922447D01*
X174100500Y-102920234D01*
X174100500Y-102403945D01*
X174779500Y-102403945D01*
X174779500Y-102596055D01*
X174792141Y-102675865D01*
X174809553Y-102785802D01*
X174868916Y-102968506D01*
X174879422Y-102989125D01*
X174956135Y-103139681D01*
X175069055Y-103295102D01*
X175204898Y-103430945D01*
X175360319Y-103543865D01*
X175428965Y-103578842D01*
X175531493Y-103631083D01*
X175588176Y-103649500D01*
X175714199Y-103690447D01*
X175903945Y-103720500D01*
X175903946Y-103720500D01*
X176096054Y-103720500D01*
X176096055Y-103720500D01*
X176285801Y-103690447D01*
X176468509Y-103631082D01*
X176639681Y-103543865D01*
X176795102Y-103430945D01*
X176930945Y-103295102D01*
X177043865Y-103139681D01*
X177131082Y-102968509D01*
X177190447Y-102785801D01*
X177220500Y-102596055D01*
X177220500Y-102403945D01*
X177190447Y-102214199D01*
X177146536Y-102079054D01*
X177131083Y-102031493D01*
X177131082Y-102031491D01*
X177043865Y-101860319D01*
X176930945Y-101704898D01*
X176795102Y-101569055D01*
X176639681Y-101456135D01*
X176468506Y-101368916D01*
X176285802Y-101309553D01*
X176190928Y-101294526D01*
X176096055Y-101279500D01*
X175903945Y-101279500D01*
X175840696Y-101289517D01*
X175714197Y-101309553D01*
X175531493Y-101368916D01*
X175360318Y-101456135D01*
X175285782Y-101510289D01*
X175204898Y-101569055D01*
X175204896Y-101569057D01*
X175204895Y-101569057D01*
X175069057Y-101704895D01*
X175069057Y-101704896D01*
X175069055Y-101704898D01*
X175020560Y-101771645D01*
X174956135Y-101860318D01*
X174868916Y-102031493D01*
X174809553Y-102214197D01*
X174795884Y-102300499D01*
X174779500Y-102403945D01*
X174100500Y-102403945D01*
X174100500Y-101579765D01*
X174120185Y-101512726D01*
X174121398Y-101510874D01*
X174209390Y-101379185D01*
X174209390Y-101379184D01*
X174209394Y-101379179D01*
X174269737Y-101233497D01*
X174300500Y-101078842D01*
X174300500Y-100921158D01*
X174300500Y-100921155D01*
X174300499Y-100921153D01*
X174269738Y-100766510D01*
X174269737Y-100766503D01*
X174211082Y-100624896D01*
X174209397Y-100620827D01*
X174209390Y-100620814D01*
X174121398Y-100489125D01*
X174100520Y-100422447D01*
X174100500Y-100420234D01*
X174100500Y-98579765D01*
X174120185Y-98512726D01*
X174121398Y-98510874D01*
X174209390Y-98379185D01*
X174209390Y-98379184D01*
X174209394Y-98379179D01*
X174269737Y-98233497D01*
X174300500Y-98078842D01*
X174300500Y-97921158D01*
X174300500Y-97921155D01*
X174300499Y-97921153D01*
X174269737Y-97766503D01*
X174241968Y-97699461D01*
X174209397Y-97620827D01*
X174209390Y-97620814D01*
X174121398Y-97489125D01*
X174100520Y-97422447D01*
X174100500Y-97420234D01*
X174100500Y-94300097D01*
X174120185Y-94233058D01*
X174136819Y-94212416D01*
X186549014Y-81800222D01*
X186610337Y-81766737D01*
X186636695Y-81763903D01*
X190569511Y-81763903D01*
X190636550Y-81783588D01*
X190649215Y-81792911D01*
X191415540Y-82435934D01*
X191454242Y-82494106D01*
X191455350Y-82563967D01*
X191423515Y-82618605D01*
X189178941Y-84863181D01*
X189117618Y-84896666D01*
X189091260Y-84899500D01*
X185079766Y-84899500D01*
X185012727Y-84879815D01*
X185010875Y-84878602D01*
X184879185Y-84790609D01*
X184879172Y-84790602D01*
X184733501Y-84730264D01*
X184733489Y-84730261D01*
X184578845Y-84699500D01*
X184578842Y-84699500D01*
X184421158Y-84699500D01*
X184421155Y-84699500D01*
X184266510Y-84730261D01*
X184266498Y-84730264D01*
X184120827Y-84790602D01*
X184120814Y-84790609D01*
X183989711Y-84878210D01*
X183989707Y-84878213D01*
X183878213Y-84989707D01*
X183878210Y-84989711D01*
X183790609Y-85120814D01*
X183790602Y-85120827D01*
X183730264Y-85266498D01*
X183730261Y-85266510D01*
X183699500Y-85421153D01*
X183699500Y-85578846D01*
X183730261Y-85733489D01*
X183730264Y-85733501D01*
X183790602Y-85879172D01*
X183790609Y-85879185D01*
X183878210Y-86010288D01*
X183878213Y-86010292D01*
X183989707Y-86121786D01*
X183989711Y-86121789D01*
X184120814Y-86209390D01*
X184120827Y-86209397D01*
X184266498Y-86269735D01*
X184266503Y-86269737D01*
X184421153Y-86300499D01*
X184421156Y-86300500D01*
X184421158Y-86300500D01*
X184578844Y-86300500D01*
X184578845Y-86300499D01*
X184733497Y-86269737D01*
X184879179Y-86209394D01*
X184879185Y-86209390D01*
X185010875Y-86121398D01*
X185077553Y-86100520D01*
X185079766Y-86100500D01*
X189304688Y-86100500D01*
X189304704Y-86100501D01*
X189312300Y-86100501D01*
X189470411Y-86100501D01*
X189470414Y-86100501D01*
X189623142Y-86059577D01*
X189673261Y-86030639D01*
X189760073Y-85980520D01*
X189871877Y-85868716D01*
X189871877Y-85868714D01*
X189882085Y-85858507D01*
X189882087Y-85858504D01*
X193867220Y-81873371D01*
X193867223Y-81873370D01*
X193979027Y-81761566D01*
X194029146Y-81674754D01*
X194058084Y-81624635D01*
X194099007Y-81471908D01*
X194099007Y-81313793D01*
X194099007Y-76977568D01*
X194099008Y-76977565D01*
X194099008Y-76948225D01*
X194118694Y-76881186D01*
X194171499Y-76835432D01*
X194171511Y-76835430D01*
X194211789Y-76824737D01*
X194224150Y-76823613D01*
X194338609Y-76787947D01*
X194408470Y-76786795D01*
X194467862Y-76823596D01*
X194497930Y-76886665D01*
X194499500Y-76906332D01*
X194499500Y-109375500D01*
X194479815Y-109442539D01*
X194427011Y-109488294D01*
X194375500Y-109499500D01*
X105624500Y-109499500D01*
X105557461Y-109479815D01*
X105511706Y-109427011D01*
X105500500Y-109375500D01*
X105500500Y-101323945D01*
X134029500Y-101323945D01*
X134029500Y-101516054D01*
X134059553Y-101705802D01*
X134118916Y-101888506D01*
X134118918Y-101888509D01*
X134206135Y-102059681D01*
X134319055Y-102215102D01*
X134454898Y-102350945D01*
X134610319Y-102463865D01*
X134656882Y-102487590D01*
X134781493Y-102551083D01*
X134846081Y-102572069D01*
X134903756Y-102611506D01*
X134930955Y-102675865D01*
X134919041Y-102744711D01*
X134871797Y-102796187D01*
X134846081Y-102807931D01*
X134781493Y-102828916D01*
X134610318Y-102916135D01*
X134538232Y-102968509D01*
X134454898Y-103029055D01*
X134454896Y-103029057D01*
X134454895Y-103029057D01*
X134319057Y-103164895D01*
X134319057Y-103164896D01*
X134319055Y-103164898D01*
X134270560Y-103231645D01*
X134206135Y-103320318D01*
X134118916Y-103491493D01*
X134059553Y-103674197D01*
X134029500Y-103863945D01*
X134029500Y-104056054D01*
X134059553Y-104245802D01*
X134118916Y-104428506D01*
X134118918Y-104428509D01*
X134206135Y-104599681D01*
X134319055Y-104755102D01*
X134454898Y-104890945D01*
X134610319Y-105003865D01*
X134737941Y-105068892D01*
X134781493Y-105091083D01*
X134846081Y-105112069D01*
X134903756Y-105151506D01*
X134930955Y-105215865D01*
X134919041Y-105284711D01*
X134871797Y-105336187D01*
X134846081Y-105347931D01*
X134781493Y-105368916D01*
X134610318Y-105456135D01*
X134538232Y-105508509D01*
X134454898Y-105569055D01*
X134454896Y-105569057D01*
X134454895Y-105569057D01*
X134319057Y-105704895D01*
X134319057Y-105704896D01*
X134319055Y-105704898D01*
X134298281Y-105733491D01*
X134206135Y-105860318D01*
X134118916Y-106031493D01*
X134059553Y-106214197D01*
X134050756Y-106269738D01*
X134029500Y-106403945D01*
X134029500Y-106596055D01*
X134033576Y-106621789D01*
X134059553Y-106785802D01*
X134118916Y-106968506D01*
X134118918Y-106968509D01*
X134206135Y-107139681D01*
X134319055Y-107295102D01*
X134454898Y-107430945D01*
X134610319Y-107543865D01*
X134781491Y-107631082D01*
X134781493Y-107631083D01*
X134872845Y-107660764D01*
X134964199Y-107690447D01*
X135153945Y-107720500D01*
X135153946Y-107720500D01*
X135346054Y-107720500D01*
X135346055Y-107720500D01*
X135535801Y-107690447D01*
X135718509Y-107631082D01*
X135889681Y-107543865D01*
X136045102Y-107430945D01*
X136180945Y-107295102D01*
X136293865Y-107139681D01*
X136381082Y-106968509D01*
X136440447Y-106785801D01*
X136470500Y-106596055D01*
X136470500Y-106403945D01*
X136445122Y-106243713D01*
X141549500Y-106243713D01*
X141549500Y-106756287D01*
X141582754Y-106966243D01*
X141583490Y-106968509D01*
X141648444Y-107168414D01*
X141744951Y-107357820D01*
X141869890Y-107529786D01*
X142020213Y-107680109D01*
X142192179Y-107805048D01*
X142192181Y-107805049D01*
X142192184Y-107805051D01*
X142381588Y-107901557D01*
X142583757Y-107967246D01*
X142793713Y-108000500D01*
X142793714Y-108000500D01*
X143006286Y-108000500D01*
X143006287Y-108000500D01*
X143216243Y-107967246D01*
X143418412Y-107901557D01*
X143607816Y-107805051D01*
X143765556Y-107690447D01*
X143779784Y-107680110D01*
X143779784Y-107680109D01*
X143779792Y-107680104D01*
X143918604Y-107541291D01*
X143979923Y-107507809D01*
X144049615Y-107512793D01*
X144105549Y-107554664D01*
X144111821Y-107563878D01*
X144115185Y-107569333D01*
X144115186Y-107569334D01*
X144207288Y-107718656D01*
X144331344Y-107842712D01*
X144480666Y-107934814D01*
X144647203Y-107989999D01*
X144749991Y-108000500D01*
X146050008Y-108000499D01*
X146152797Y-107989999D01*
X146319334Y-107934814D01*
X146468656Y-107842712D01*
X146592712Y-107718656D01*
X146684814Y-107569334D01*
X146739999Y-107402797D01*
X146750500Y-107300009D01*
X146750499Y-106243713D01*
X151649500Y-106243713D01*
X151649500Y-106756287D01*
X151682754Y-106966243D01*
X151683490Y-106968509D01*
X151748444Y-107168414D01*
X151844951Y-107357820D01*
X151969890Y-107529786D01*
X152120213Y-107680109D01*
X152292179Y-107805048D01*
X152292181Y-107805049D01*
X152292184Y-107805051D01*
X152481588Y-107901557D01*
X152683757Y-107967246D01*
X152893713Y-108000500D01*
X152893714Y-108000500D01*
X153106286Y-108000500D01*
X153106287Y-108000500D01*
X153316243Y-107967246D01*
X153518412Y-107901557D01*
X153707816Y-107805051D01*
X153865556Y-107690447D01*
X153879784Y-107680110D01*
X153879784Y-107680109D01*
X153879792Y-107680104D01*
X154018604Y-107541291D01*
X154079923Y-107507809D01*
X154149615Y-107512793D01*
X154205549Y-107554664D01*
X154211821Y-107563878D01*
X154215185Y-107569333D01*
X154215186Y-107569334D01*
X154307288Y-107718656D01*
X154431344Y-107842712D01*
X154580666Y-107934814D01*
X154747203Y-107989999D01*
X154849991Y-108000500D01*
X156150008Y-108000499D01*
X156252797Y-107989999D01*
X156419334Y-107934814D01*
X156568656Y-107842712D01*
X156692712Y-107718656D01*
X156784814Y-107569334D01*
X156839999Y-107402797D01*
X156850500Y-107300009D01*
X156850499Y-105699992D01*
X156839999Y-105597203D01*
X156807037Y-105497733D01*
X156804636Y-105427907D01*
X156840367Y-105367865D01*
X156902888Y-105336672D01*
X156948935Y-105337114D01*
X156988270Y-105344937D01*
X157016230Y-105350499D01*
X157016232Y-105350500D01*
X157016233Y-105350500D01*
X157183768Y-105350500D01*
X157183769Y-105350499D01*
X157348082Y-105317816D01*
X157502863Y-105253703D01*
X157642162Y-105160626D01*
X157760626Y-105042162D01*
X157853703Y-104902863D01*
X157917816Y-104748082D01*
X157950500Y-104583767D01*
X157950500Y-104416233D01*
X157917816Y-104251918D01*
X157863510Y-104120814D01*
X157853704Y-104097139D01*
X157760626Y-103957837D01*
X157642162Y-103839373D01*
X157502860Y-103746295D01*
X157348082Y-103682184D01*
X157348074Y-103682182D01*
X157183771Y-103649500D01*
X157183767Y-103649500D01*
X157016233Y-103649500D01*
X157016228Y-103649500D01*
X156851925Y-103682182D01*
X156851917Y-103682184D01*
X156697139Y-103746295D01*
X156557837Y-103839373D01*
X156439373Y-103957837D01*
X156346295Y-104097139D01*
X156282184Y-104251917D01*
X156282182Y-104251925D01*
X156249500Y-104416228D01*
X156249500Y-104583771D01*
X156282182Y-104748074D01*
X156282185Y-104748086D01*
X156317269Y-104832786D01*
X156324738Y-104902255D01*
X156293463Y-104964734D01*
X156233374Y-105000386D01*
X156190106Y-105003596D01*
X156150011Y-104999500D01*
X154849998Y-104999500D01*
X154849981Y-104999501D01*
X154747203Y-105010000D01*
X154747200Y-105010001D01*
X154580668Y-105065185D01*
X154580663Y-105065187D01*
X154431342Y-105157289D01*
X154307289Y-105281342D01*
X154211821Y-105436121D01*
X154159873Y-105482845D01*
X154090910Y-105494068D01*
X154026828Y-105466224D01*
X154018601Y-105458705D01*
X153879786Y-105319890D01*
X153707820Y-105194951D01*
X153518414Y-105098444D01*
X153518413Y-105098443D01*
X153518412Y-105098443D01*
X153316243Y-105032754D01*
X153316241Y-105032753D01*
X153316240Y-105032753D01*
X153133840Y-105003864D01*
X153106287Y-104999500D01*
X152893713Y-104999500D01*
X152866160Y-105003864D01*
X152683760Y-105032753D01*
X152481585Y-105098444D01*
X152292179Y-105194951D01*
X152120213Y-105319890D01*
X151969890Y-105470213D01*
X151844951Y-105642179D01*
X151748444Y-105831585D01*
X151682753Y-106033760D01*
X151654936Y-106209390D01*
X151649500Y-106243713D01*
X146750499Y-106243713D01*
X146750499Y-105699992D01*
X146739999Y-105597203D01*
X146707037Y-105497733D01*
X146704636Y-105427907D01*
X146740367Y-105367865D01*
X146802888Y-105336672D01*
X146848935Y-105337114D01*
X146888270Y-105344937D01*
X146916230Y-105350499D01*
X146916232Y-105350500D01*
X146916233Y-105350500D01*
X147083768Y-105350500D01*
X147083769Y-105350499D01*
X147248082Y-105317816D01*
X147402863Y-105253703D01*
X147542162Y-105160626D01*
X147660626Y-105042162D01*
X147753703Y-104902863D01*
X147817816Y-104748082D01*
X147850500Y-104583767D01*
X147850500Y-104416233D01*
X147817816Y-104251918D01*
X147763510Y-104120814D01*
X147753704Y-104097139D01*
X147660626Y-103957837D01*
X147542162Y-103839373D01*
X147402860Y-103746295D01*
X147248082Y-103682184D01*
X147248074Y-103682182D01*
X147083771Y-103649500D01*
X147083767Y-103649500D01*
X146916233Y-103649500D01*
X146916228Y-103649500D01*
X146751925Y-103682182D01*
X146751917Y-103682184D01*
X146597139Y-103746295D01*
X146457837Y-103839373D01*
X146339373Y-103957837D01*
X146246295Y-104097139D01*
X146182184Y-104251917D01*
X146182182Y-104251925D01*
X146149500Y-104416228D01*
X146149500Y-104583771D01*
X146182182Y-104748074D01*
X146182185Y-104748086D01*
X146217269Y-104832786D01*
X146224738Y-104902255D01*
X146193463Y-104964734D01*
X146133374Y-105000386D01*
X146090106Y-105003596D01*
X146050011Y-104999500D01*
X144749998Y-104999500D01*
X144749981Y-104999501D01*
X144647203Y-105010000D01*
X144647200Y-105010001D01*
X144480668Y-105065185D01*
X144480663Y-105065187D01*
X144331342Y-105157289D01*
X144207289Y-105281342D01*
X144111821Y-105436121D01*
X144059873Y-105482845D01*
X143990910Y-105494068D01*
X143926828Y-105466224D01*
X143918601Y-105458705D01*
X143779786Y-105319890D01*
X143607820Y-105194951D01*
X143418414Y-105098444D01*
X143418413Y-105098443D01*
X143418412Y-105098443D01*
X143216243Y-105032754D01*
X143216241Y-105032753D01*
X143216240Y-105032753D01*
X143033840Y-105003864D01*
X143006287Y-104999500D01*
X142793713Y-104999500D01*
X142766160Y-105003864D01*
X142583760Y-105032753D01*
X142381585Y-105098444D01*
X142192179Y-105194951D01*
X142020213Y-105319890D01*
X141869890Y-105470213D01*
X141744951Y-105642179D01*
X141648444Y-105831585D01*
X141582753Y-106033760D01*
X141554936Y-106209390D01*
X141549500Y-106243713D01*
X136445122Y-106243713D01*
X136440447Y-106214199D01*
X136438886Y-106209394D01*
X136381083Y-106031493D01*
X136381082Y-106031491D01*
X136293865Y-105860319D01*
X136180945Y-105704898D01*
X136045102Y-105569055D01*
X135889681Y-105456135D01*
X135831074Y-105426273D01*
X135718504Y-105368915D01*
X135653919Y-105347931D01*
X135596243Y-105308494D01*
X135569044Y-105244136D01*
X135580958Y-105175289D01*
X135628202Y-105123813D01*
X135653919Y-105112069D01*
X135718504Y-105091084D01*
X135718506Y-105091082D01*
X135718509Y-105091082D01*
X135889681Y-105003865D01*
X136045102Y-104890945D01*
X136180945Y-104755102D01*
X136293865Y-104599681D01*
X136381082Y-104428509D01*
X136440447Y-104245801D01*
X136470500Y-104056055D01*
X136470500Y-103863945D01*
X136440447Y-103674199D01*
X136381082Y-103491491D01*
X136293865Y-103320319D01*
X136180945Y-103164898D01*
X136045102Y-103029055D01*
X135889681Y-102916135D01*
X135887010Y-102914774D01*
X135718504Y-102828915D01*
X135653919Y-102807931D01*
X135596243Y-102768494D01*
X135569044Y-102704136D01*
X135580958Y-102635289D01*
X135628202Y-102583813D01*
X135653919Y-102572069D01*
X135718504Y-102551084D01*
X135718506Y-102551082D01*
X135718509Y-102551082D01*
X135889681Y-102463865D01*
X136045102Y-102350945D01*
X136180945Y-102215102D01*
X136293865Y-102059681D01*
X136381082Y-101888509D01*
X136440447Y-101705801D01*
X136470500Y-101516055D01*
X136470500Y-101323945D01*
X136440447Y-101134199D01*
X136410764Y-101042845D01*
X136381083Y-100951493D01*
X136293864Y-100780318D01*
X136283823Y-100766498D01*
X136180945Y-100624898D01*
X136045102Y-100489055D01*
X135889681Y-100376135D01*
X135718506Y-100288916D01*
X135535802Y-100229553D01*
X135440928Y-100214526D01*
X135346055Y-100199500D01*
X135153945Y-100199500D01*
X135090696Y-100209517D01*
X134964197Y-100229553D01*
X134781493Y-100288916D01*
X134610318Y-100376135D01*
X134549622Y-100420234D01*
X134454898Y-100489055D01*
X134454896Y-100489057D01*
X134454895Y-100489057D01*
X134319057Y-100624895D01*
X134319057Y-100624896D01*
X134319055Y-100624898D01*
X134270560Y-100691645D01*
X134206135Y-100780318D01*
X134118916Y-100951493D01*
X134059553Y-101134197D01*
X134029500Y-101323945D01*
X105500500Y-101323945D01*
X105500500Y-76906856D01*
X105520185Y-76839817D01*
X105572989Y-76794062D01*
X105642147Y-76784118D01*
X105661387Y-76788470D01*
X105775758Y-76824110D01*
X105846079Y-76830500D01*
X106353920Y-76830499D01*
X106353927Y-76830499D01*
X106424235Y-76824111D01*
X106424236Y-76824110D01*
X106424242Y-76824110D01*
X106586072Y-76773681D01*
X106731132Y-76685990D01*
X106850990Y-76566132D01*
X106894177Y-76494691D01*
X106945702Y-76447506D01*
X107014561Y-76435667D01*
X107078890Y-76462935D01*
X107106409Y-76494694D01*
X107149404Y-76565819D01*
X107269177Y-76685592D01*
X107269181Y-76685595D01*
X107414133Y-76773221D01*
X107414137Y-76773223D01*
X107575848Y-76823613D01*
X107575846Y-76823613D01*
X107646127Y-76830000D01*
X107650000Y-76830000D01*
X108150000Y-76830000D01*
X108153873Y-76830000D01*
X108224152Y-76823613D01*
X108385862Y-76773223D01*
X108385866Y-76773221D01*
X108530818Y-76685595D01*
X108530822Y-76685592D01*
X108650592Y-76565822D01*
X108650595Y-76565818D01*
X108738221Y-76420866D01*
X108738223Y-76420862D01*
X108788613Y-76259152D01*
X108795000Y-76188873D01*
X108795000Y-75750000D01*
X108150000Y-75750000D01*
X108150000Y-76830000D01*
X107650000Y-76830000D01*
X107650000Y-75624000D01*
X107669685Y-75556961D01*
X107722489Y-75511206D01*
X107774000Y-75500000D01*
X107900000Y-75500000D01*
X107900000Y-75374000D01*
X107919685Y-75306961D01*
X107972489Y-75261206D01*
X108024000Y-75250000D01*
X108795000Y-75250000D01*
X108795000Y-75024501D01*
X108814685Y-74957462D01*
X108867489Y-74911707D01*
X108919000Y-74900501D01*
X109016649Y-74900501D01*
X109018792Y-74901130D01*
G37*
%TD.AperFunction*%
%TA.AperFunction,Conductor*%
G36*
X164148802Y-78518227D02*
G01*
X164194557Y-78571031D01*
X164203380Y-78598351D01*
X164230261Y-78733489D01*
X164230264Y-78733501D01*
X164290602Y-78879172D01*
X164290609Y-78879185D01*
X164378602Y-79010874D01*
X164399480Y-79077551D01*
X164399500Y-79079765D01*
X164399500Y-91113444D01*
X164379815Y-91180483D01*
X164327011Y-91226238D01*
X164257853Y-91236182D01*
X164250462Y-91234890D01*
X164238925Y-91232511D01*
X164233497Y-91230263D01*
X164078842Y-91199500D01*
X164078807Y-91199500D01*
X164077303Y-91199190D01*
X164046835Y-91182981D01*
X164016238Y-91166976D01*
X164015633Y-91166381D01*
X164015619Y-91166374D01*
X164015611Y-91166359D01*
X164014660Y-91165425D01*
X158286590Y-85437355D01*
X158286588Y-85437352D01*
X158167717Y-85318481D01*
X158167709Y-85318475D01*
X158077688Y-85266502D01*
X158077687Y-85266502D01*
X158057864Y-85255057D01*
X158030785Y-85239423D01*
X157878057Y-85198499D01*
X157719943Y-85198499D01*
X157712347Y-85198499D01*
X157712331Y-85198500D01*
X111307935Y-85198500D01*
X111240896Y-85178815D01*
X111220254Y-85162181D01*
X109979226Y-83921153D01*
X153199500Y-83921153D01*
X153199500Y-84078846D01*
X153230261Y-84233489D01*
X153230264Y-84233501D01*
X153290602Y-84379172D01*
X153290609Y-84379185D01*
X153378210Y-84510288D01*
X153378213Y-84510292D01*
X153489707Y-84621786D01*
X153489711Y-84621789D01*
X153620814Y-84709390D01*
X153620827Y-84709397D01*
X153766498Y-84769735D01*
X153766503Y-84769737D01*
X153921153Y-84800499D01*
X153921156Y-84800500D01*
X153921158Y-84800500D01*
X154078844Y-84800500D01*
X154078845Y-84800499D01*
X154233497Y-84769737D01*
X154379179Y-84709394D01*
X154510289Y-84621789D01*
X154621789Y-84510289D01*
X154709394Y-84379179D01*
X154712340Y-84372068D01*
X154741984Y-84300500D01*
X154769737Y-84233497D01*
X154800500Y-84078842D01*
X154800500Y-83921158D01*
X154800500Y-83921155D01*
X154800499Y-83921153D01*
X156199500Y-83921153D01*
X156199500Y-84078846D01*
X156230261Y-84233489D01*
X156230264Y-84233501D01*
X156290602Y-84379172D01*
X156290609Y-84379185D01*
X156378210Y-84510288D01*
X156378213Y-84510292D01*
X156489707Y-84621786D01*
X156489711Y-84621789D01*
X156620814Y-84709390D01*
X156620827Y-84709397D01*
X156766498Y-84769735D01*
X156766503Y-84769737D01*
X156921153Y-84800499D01*
X156921156Y-84800500D01*
X156921158Y-84800500D01*
X157078844Y-84800500D01*
X157078845Y-84800499D01*
X157233497Y-84769737D01*
X157379179Y-84709394D01*
X157510289Y-84621789D01*
X157621789Y-84510289D01*
X157709394Y-84379179D01*
X157712340Y-84372068D01*
X157741984Y-84300500D01*
X157769737Y-84233497D01*
X157800500Y-84078842D01*
X157800500Y-83921158D01*
X157800500Y-83921155D01*
X157800499Y-83921153D01*
X157769738Y-83766510D01*
X157769737Y-83766503D01*
X157756062Y-83733489D01*
X157709397Y-83620827D01*
X157709390Y-83620814D01*
X157621789Y-83489711D01*
X157621786Y-83489707D01*
X157510292Y-83378213D01*
X157510288Y-83378210D01*
X157379185Y-83290609D01*
X157379172Y-83290602D01*
X157233501Y-83230264D01*
X157233489Y-83230261D01*
X157078845Y-83199500D01*
X157078842Y-83199500D01*
X156921158Y-83199500D01*
X156921155Y-83199500D01*
X156766510Y-83230261D01*
X156766498Y-83230264D01*
X156620827Y-83290602D01*
X156620814Y-83290609D01*
X156489711Y-83378210D01*
X156489707Y-83378213D01*
X156378213Y-83489707D01*
X156378210Y-83489711D01*
X156290609Y-83620814D01*
X156290602Y-83620827D01*
X156230264Y-83766498D01*
X156230261Y-83766510D01*
X156199500Y-83921153D01*
X154800499Y-83921153D01*
X154769738Y-83766510D01*
X154769737Y-83766503D01*
X154756062Y-83733489D01*
X154709397Y-83620827D01*
X154709390Y-83620814D01*
X154621789Y-83489711D01*
X154621786Y-83489707D01*
X154510292Y-83378213D01*
X154510288Y-83378210D01*
X154379185Y-83290609D01*
X154379172Y-83290602D01*
X154233501Y-83230264D01*
X154233489Y-83230261D01*
X154078845Y-83199500D01*
X154078842Y-83199500D01*
X153921158Y-83199500D01*
X153921155Y-83199500D01*
X153766510Y-83230261D01*
X153766498Y-83230264D01*
X153620827Y-83290602D01*
X153620814Y-83290609D01*
X153489711Y-83378210D01*
X153489707Y-83378213D01*
X153378213Y-83489707D01*
X153378210Y-83489711D01*
X153290609Y-83620814D01*
X153290602Y-83620827D01*
X153230264Y-83766498D01*
X153230261Y-83766510D01*
X153199500Y-83921153D01*
X109979226Y-83921153D01*
X108609033Y-82550960D01*
X108575548Y-82489637D01*
X108580532Y-82419945D01*
X108622404Y-82364012D01*
X108640420Y-82352794D01*
X108649780Y-82348024D01*
X108707816Y-82318454D01*
X108776967Y-82268213D01*
X108879786Y-82193512D01*
X108879788Y-82193509D01*
X108879792Y-82193507D01*
X109030104Y-82043195D01*
X109030106Y-82043191D01*
X109030109Y-82043189D01*
X109130108Y-81905550D01*
X109155051Y-81871219D01*
X109155349Y-81870633D01*
X109175235Y-81831608D01*
X109223209Y-81780812D01*
X109285719Y-81763903D01*
X154749928Y-81763903D01*
X154749944Y-81763904D01*
X154757540Y-81763904D01*
X154915651Y-81763904D01*
X154915654Y-81763904D01*
X155068382Y-81722980D01*
X155118501Y-81694042D01*
X155205313Y-81643923D01*
X155317117Y-81532119D01*
X155317117Y-81532117D01*
X155327325Y-81521910D01*
X155327326Y-81521907D01*
X157514664Y-79334571D01*
X157575985Y-79301088D01*
X157578152Y-79300637D01*
X157578841Y-79300500D01*
X157578842Y-79300500D01*
X157733497Y-79269737D01*
X157879179Y-79209394D01*
X158010289Y-79121789D01*
X158121789Y-79010289D01*
X158209394Y-78879179D01*
X158269737Y-78733497D01*
X158288297Y-78640189D01*
X158296620Y-78598351D01*
X158329005Y-78536440D01*
X158389721Y-78501866D01*
X158418237Y-78498542D01*
X164081763Y-78498542D01*
X164148802Y-78518227D01*
G37*
%TD.AperFunction*%
%TA.AperFunction,Conductor*%
G36*
X149271581Y-76885546D02*
G01*
X149292222Y-76902179D01*
X150768604Y-78378562D01*
X150768606Y-78378563D01*
X150768610Y-78378566D01*
X150905529Y-78457615D01*
X150905536Y-78457619D01*
X151058263Y-78498543D01*
X151058265Y-78498543D01*
X151223974Y-78498543D01*
X151223990Y-78498542D01*
X156352860Y-78498542D01*
X156419899Y-78518227D01*
X156465654Y-78571031D01*
X156475598Y-78640189D01*
X156446573Y-78703745D01*
X156440541Y-78710223D01*
X154624181Y-80526584D01*
X154562858Y-80560069D01*
X154536500Y-80562903D01*
X111108503Y-80562903D01*
X111041464Y-80543218D01*
X110995709Y-80490414D01*
X110985765Y-80421256D01*
X111008185Y-80366018D01*
X111100800Y-80238542D01*
X111100799Y-80238542D01*
X111100803Y-80238538D01*
X111197309Y-80049134D01*
X111262998Y-79846965D01*
X111296252Y-79637009D01*
X111296252Y-79424435D01*
X111277845Y-79308221D01*
X111286799Y-79238931D01*
X111331795Y-79185479D01*
X111398547Y-79164839D01*
X111438634Y-79170894D01*
X111575262Y-79215288D01*
X111785218Y-79248542D01*
X111785219Y-79248542D01*
X111997791Y-79248542D01*
X111997792Y-79248542D01*
X112207748Y-79215288D01*
X112409917Y-79149599D01*
X112599321Y-79053093D01*
X112658236Y-79010289D01*
X112771291Y-78928151D01*
X112771293Y-78928148D01*
X112771297Y-78928146D01*
X112921609Y-78777834D01*
X112921611Y-78777830D01*
X112921614Y-78777828D01*
X113046553Y-78605862D01*
X113046552Y-78605862D01*
X113046556Y-78605858D01*
X113143062Y-78416454D01*
X113208751Y-78214285D01*
X113242005Y-78004329D01*
X113242005Y-77791755D01*
X113223598Y-77675541D01*
X113232552Y-77606250D01*
X113277548Y-77552798D01*
X113344300Y-77532158D01*
X113384387Y-77538213D01*
X113521015Y-77582607D01*
X113730971Y-77615861D01*
X113730972Y-77615861D01*
X113943544Y-77615861D01*
X113943545Y-77615861D01*
X114153501Y-77582607D01*
X114355670Y-77516918D01*
X114545074Y-77420412D01*
X114646231Y-77346918D01*
X114717044Y-77295470D01*
X114717046Y-77295467D01*
X114717050Y-77295465D01*
X114867362Y-77145153D01*
X114867364Y-77145149D01*
X114867367Y-77145147D01*
X114959558Y-77018255D01*
X114992309Y-76973177D01*
X115005023Y-76948225D01*
X115012493Y-76933566D01*
X115060467Y-76882770D01*
X115122977Y-76865861D01*
X149204542Y-76865861D01*
X149271581Y-76885546D01*
G37*
%TD.AperFunction*%
%TA.AperFunction,Conductor*%
G36*
X191675310Y-76792808D02*
G01*
X191775758Y-76824110D01*
X191846079Y-76830500D01*
X192353920Y-76830499D01*
X192353927Y-76830499D01*
X192424238Y-76824111D01*
X192424240Y-76824110D01*
X192424242Y-76824110D01*
X192467518Y-76810623D01*
X192537377Y-76809471D01*
X192592091Y-76841327D01*
X192861688Y-77110923D01*
X192895173Y-77172246D01*
X192898007Y-77198604D01*
X192898007Y-79888049D01*
X192893256Y-79904227D01*
X192893524Y-79921091D01*
X192883615Y-79937060D01*
X192878322Y-79955088D01*
X192865578Y-79966129D01*
X192856687Y-79980461D01*
X192839718Y-79988538D01*
X192825518Y-80000843D01*
X192808826Y-80003243D01*
X192793600Y-80010491D01*
X192774960Y-80008112D01*
X192756360Y-80010787D01*
X192740561Y-80003723D01*
X192724292Y-80001647D01*
X192694302Y-79983039D01*
X192644795Y-79941498D01*
X192606092Y-79883327D01*
X192600500Y-79846508D01*
X192600500Y-78218315D01*
X192600500Y-78218313D01*
X192564868Y-78085331D01*
X192564868Y-78085330D01*
X192564868Y-78085329D01*
X192559578Y-78065587D01*
X192559577Y-78065586D01*
X192559577Y-78065585D01*
X192530639Y-78015465D01*
X192480520Y-77928654D01*
X192368716Y-77816850D01*
X192368715Y-77816849D01*
X192364385Y-77812519D01*
X192364374Y-77812509D01*
X191550740Y-76998875D01*
X191517255Y-76937552D01*
X191522239Y-76867860D01*
X191564111Y-76811927D01*
X191629575Y-76787510D01*
X191675310Y-76792808D01*
G37*
%TD.AperFunction*%
%TA.AperFunction,Conductor*%
G36*
X191184800Y-70520185D02*
G01*
X191230555Y-70572989D01*
X191240499Y-70642147D01*
X191236147Y-70661390D01*
X191211385Y-70740852D01*
X191205000Y-70811126D01*
X191205000Y-71250000D01*
X191976000Y-71250000D01*
X192043039Y-71269685D01*
X192088794Y-71322489D01*
X192100000Y-71374000D01*
X192100000Y-71626000D01*
X192080315Y-71693039D01*
X192027511Y-71738794D01*
X191976000Y-71750000D01*
X191205000Y-71750000D01*
X191205000Y-72188873D01*
X191211852Y-72264278D01*
X191198315Y-72332824D01*
X191149869Y-72383170D01*
X191088361Y-72399500D01*
X189933757Y-72399500D01*
X189866718Y-72379815D01*
X189861400Y-72376075D01*
X189860336Y-72375461D01*
X189714265Y-72314957D01*
X189714260Y-72314955D01*
X189596861Y-72299500D01*
X189083136Y-72299500D01*
X188965734Y-72314955D01*
X188964583Y-72315264D01*
X188963391Y-72315264D01*
X188957679Y-72316016D01*
X188957580Y-72315264D01*
X188907419Y-72315264D01*
X188907320Y-72316017D01*
X188901607Y-72315264D01*
X188900417Y-72315265D01*
X188899265Y-72314956D01*
X188781861Y-72299500D01*
X188268136Y-72299500D01*
X188150746Y-72314953D01*
X188150737Y-72314956D01*
X188004660Y-72375463D01*
X187879218Y-72471718D01*
X187782963Y-72597160D01*
X187722456Y-72743237D01*
X187722455Y-72743239D01*
X187707000Y-72860638D01*
X187707000Y-73139363D01*
X187722453Y-73256753D01*
X187722456Y-73256762D01*
X187773968Y-73381124D01*
X187782964Y-73402841D01*
X187879218Y-73528282D01*
X187879220Y-73528283D01*
X187879222Y-73528286D01*
X187884965Y-73534029D01*
X187883245Y-73535748D01*
X187917183Y-73582213D01*
X187924500Y-73624177D01*
X187924500Y-74125822D01*
X187904815Y-74192861D01*
X187884230Y-74215238D01*
X187884964Y-74215972D01*
X187879222Y-74221713D01*
X187782963Y-74347160D01*
X187722456Y-74493237D01*
X187722455Y-74493239D01*
X187707000Y-74610638D01*
X187707000Y-74889363D01*
X187722453Y-75006753D01*
X187722456Y-75006762D01*
X187738824Y-75046279D01*
X187782964Y-75152841D01*
X187879218Y-75278282D01*
X188004659Y-75374536D01*
X188150738Y-75435044D01*
X188211467Y-75443039D01*
X188267584Y-75450427D01*
X188331481Y-75478693D01*
X188339080Y-75485685D01*
X191363181Y-78509786D01*
X191396666Y-78571109D01*
X191399500Y-78597467D01*
X191399500Y-78703914D01*
X191379815Y-78770953D01*
X191327011Y-78816708D01*
X191257853Y-78826652D01*
X191194297Y-78797627D01*
X191175182Y-78776799D01*
X191100020Y-78673347D01*
X190525585Y-79357931D01*
X190520172Y-79337729D01*
X190454346Y-79223715D01*
X190361254Y-79130623D01*
X190247240Y-79064797D01*
X190142419Y-79036709D01*
X190716223Y-78352876D01*
X190572464Y-78279626D01*
X190370376Y-78213964D01*
X190160493Y-78180722D01*
X189948001Y-78180722D01*
X189738119Y-78213964D01*
X189738116Y-78213964D01*
X189601291Y-78258422D01*
X189531450Y-78260417D01*
X189471617Y-78224337D01*
X189440789Y-78161636D01*
X189440500Y-78121093D01*
X189446165Y-78085330D01*
X189458994Y-78004329D01*
X189458994Y-77791755D01*
X189425740Y-77581799D01*
X189360051Y-77379630D01*
X189263545Y-77190226D01*
X189263543Y-77190223D01*
X189263542Y-77190221D01*
X189138603Y-77018255D01*
X188988280Y-76867932D01*
X188816314Y-76742993D01*
X188626908Y-76646486D01*
X188626907Y-76646485D01*
X188626906Y-76646485D01*
X188424737Y-76580796D01*
X188424735Y-76580795D01*
X188424734Y-76580795D01*
X188263451Y-76555250D01*
X188214781Y-76547542D01*
X188002207Y-76547542D01*
X187962696Y-76553799D01*
X187792253Y-76580795D01*
X187792249Y-76580796D01*
X187655624Y-76625188D01*
X187585783Y-76627183D01*
X187525951Y-76591102D01*
X187495123Y-76528401D01*
X187494834Y-76487864D01*
X187513241Y-76371648D01*
X187513241Y-76159074D01*
X187479987Y-75949118D01*
X187414298Y-75746949D01*
X187317792Y-75557545D01*
X187317790Y-75557542D01*
X187317789Y-75557540D01*
X187192850Y-75385574D01*
X187042527Y-75235251D01*
X186870561Y-75110312D01*
X186681155Y-75013805D01*
X186681154Y-75013804D01*
X186681153Y-75013804D01*
X186478984Y-74948115D01*
X186478982Y-74948114D01*
X186478981Y-74948114D01*
X186302648Y-74920186D01*
X186269028Y-74914861D01*
X186056454Y-74914861D01*
X186022834Y-74920186D01*
X185846500Y-74948114D01*
X185709873Y-74992507D01*
X185640032Y-74994502D01*
X185580199Y-74958421D01*
X185549371Y-74895720D01*
X185549082Y-74855178D01*
X185555249Y-74816239D01*
X185567488Y-74738968D01*
X185567488Y-74526394D01*
X185534234Y-74316438D01*
X185468545Y-74114269D01*
X185372039Y-73924865D01*
X185372037Y-73924862D01*
X185372036Y-73924860D01*
X185247097Y-73752894D01*
X185096774Y-73602571D01*
X184924808Y-73477632D01*
X184735402Y-73381125D01*
X184735401Y-73381124D01*
X184735400Y-73381124D01*
X184533231Y-73315435D01*
X184533229Y-73315434D01*
X184533228Y-73315434D01*
X184371945Y-73289889D01*
X184323275Y-73282181D01*
X184110701Y-73282181D01*
X184071190Y-73288438D01*
X183900747Y-73315434D01*
X183900743Y-73315435D01*
X183764118Y-73359827D01*
X183694277Y-73361822D01*
X183634445Y-73325741D01*
X183603617Y-73263040D01*
X183603328Y-73222503D01*
X183621735Y-73106287D01*
X183621735Y-72893713D01*
X183588481Y-72683757D01*
X183522792Y-72481588D01*
X183426286Y-72292184D01*
X183426284Y-72292181D01*
X183426283Y-72292179D01*
X183301344Y-72120213D01*
X183151021Y-71969890D01*
X182979055Y-71844951D01*
X182789649Y-71748444D01*
X182789648Y-71748443D01*
X182789647Y-71748443D01*
X182587478Y-71682754D01*
X182587476Y-71682753D01*
X182587475Y-71682753D01*
X182426192Y-71657208D01*
X182377522Y-71649500D01*
X182164948Y-71649500D01*
X182116277Y-71657208D01*
X181954995Y-71682753D01*
X181752820Y-71748444D01*
X181563414Y-71844951D01*
X181391448Y-71969890D01*
X181241125Y-72120213D01*
X181116186Y-72292179D01*
X181019679Y-72481585D01*
X180953988Y-72683760D01*
X180930826Y-72830000D01*
X180920735Y-72893713D01*
X180920735Y-73106287D01*
X180928594Y-73155908D01*
X180944566Y-73256753D01*
X180953989Y-73316243D01*
X181007365Y-73480518D01*
X181019679Y-73518414D01*
X181116186Y-73707820D01*
X181241125Y-73879786D01*
X181391448Y-74030109D01*
X181563414Y-74155048D01*
X181563416Y-74155049D01*
X181563419Y-74155051D01*
X181752823Y-74251557D01*
X181954992Y-74317246D01*
X182164948Y-74350500D01*
X182164949Y-74350500D01*
X182377521Y-74350500D01*
X182377522Y-74350500D01*
X182587478Y-74317246D01*
X182724105Y-74272852D01*
X182793944Y-74270858D01*
X182853777Y-74306938D01*
X182884605Y-74369639D01*
X182884894Y-74410182D01*
X182866488Y-74526394D01*
X182866488Y-74738967D01*
X182899723Y-74948808D01*
X182899742Y-74948924D01*
X182958873Y-75130911D01*
X182965432Y-75151095D01*
X183061939Y-75340501D01*
X183186878Y-75512467D01*
X183337201Y-75662790D01*
X183509167Y-75787729D01*
X183509169Y-75787730D01*
X183509172Y-75787732D01*
X183698576Y-75884238D01*
X183900745Y-75949927D01*
X184110701Y-75983181D01*
X184110702Y-75983181D01*
X184323274Y-75983181D01*
X184323275Y-75983181D01*
X184533231Y-75949927D01*
X184669858Y-75905533D01*
X184739697Y-75903539D01*
X184799530Y-75939619D01*
X184830358Y-76002320D01*
X184830647Y-76042863D01*
X184812241Y-76159074D01*
X184812241Y-76371647D01*
X184843044Y-76566133D01*
X184845495Y-76581604D01*
X184907755Y-76773221D01*
X184911185Y-76783775D01*
X185007692Y-76973181D01*
X185100308Y-77100657D01*
X185123788Y-77166464D01*
X185107962Y-77234517D01*
X185057856Y-77283212D01*
X184999990Y-77297542D01*
X151437418Y-77297542D01*
X151370379Y-77277857D01*
X151349737Y-77261223D01*
X150441555Y-76353041D01*
X150408070Y-76291718D01*
X150413054Y-76222026D01*
X150441555Y-76177679D01*
X150576371Y-76042863D01*
X150785478Y-75833755D01*
X150846799Y-75800272D01*
X150911473Y-75803506D01*
X150953757Y-75817246D01*
X151163713Y-75850500D01*
X151163714Y-75850500D01*
X151376286Y-75850500D01*
X151376287Y-75850500D01*
X151586243Y-75817246D01*
X151788412Y-75751557D01*
X151977816Y-75655051D01*
X152064138Y-75592335D01*
X152149786Y-75530109D01*
X152149788Y-75530106D01*
X152149792Y-75530104D01*
X152300104Y-75379792D01*
X152300106Y-75379788D01*
X152300109Y-75379786D01*
X152373855Y-75278282D01*
X152425051Y-75207816D01*
X152429793Y-75198508D01*
X152477763Y-75147711D01*
X152545583Y-75130911D01*
X152611719Y-75153445D01*
X152650763Y-75198500D01*
X152655377Y-75207555D01*
X152780272Y-75379459D01*
X152780276Y-75379464D01*
X152930535Y-75529723D01*
X152930540Y-75529727D01*
X153102442Y-75654620D01*
X153291782Y-75751095D01*
X153493871Y-75816757D01*
X153560000Y-75827231D01*
X153560000Y-74933012D01*
X153617007Y-74965925D01*
X153744174Y-75000000D01*
X153875826Y-75000000D01*
X154002993Y-74965925D01*
X154060000Y-74933012D01*
X154060000Y-75827230D01*
X154126126Y-75816757D01*
X154126129Y-75816757D01*
X154328217Y-75751095D01*
X154517557Y-75654620D01*
X154689458Y-75529728D01*
X154803133Y-75416053D01*
X154864456Y-75382568D01*
X154934148Y-75387552D01*
X154990082Y-75429423D01*
X155006997Y-75460401D01*
X155056202Y-75592328D01*
X155056206Y-75592335D01*
X155142452Y-75707544D01*
X155142455Y-75707547D01*
X155257664Y-75793793D01*
X155257671Y-75793797D01*
X155392517Y-75844091D01*
X155392516Y-75844091D01*
X155399444Y-75844835D01*
X155452127Y-75850500D01*
X157247872Y-75850499D01*
X157307483Y-75844091D01*
X157442331Y-75793796D01*
X157557546Y-75707546D01*
X157643796Y-75592331D01*
X157694091Y-75457483D01*
X157700500Y-75397873D01*
X157700499Y-73602128D01*
X157694091Y-73542517D01*
X157691566Y-73535748D01*
X157643797Y-73407671D01*
X157643793Y-73407664D01*
X157557547Y-73292455D01*
X157557544Y-73292452D01*
X157442335Y-73206206D01*
X157442328Y-73206202D01*
X157307482Y-73155908D01*
X157307483Y-73155908D01*
X157247883Y-73149501D01*
X157247881Y-73149500D01*
X157247873Y-73149500D01*
X157247865Y-73149500D01*
X155900097Y-73149500D01*
X155833058Y-73129815D01*
X155812416Y-73113181D01*
X155337590Y-72638355D01*
X155337588Y-72638352D01*
X155218717Y-72519481D01*
X155218716Y-72519480D01*
X155131904Y-72469360D01*
X155131904Y-72469359D01*
X155131900Y-72469358D01*
X155081785Y-72440423D01*
X154929057Y-72399499D01*
X154770943Y-72399499D01*
X154763347Y-72399499D01*
X154763331Y-72399500D01*
X119045659Y-72399500D01*
X118978620Y-72379815D01*
X118950670Y-72355206D01*
X118186162Y-71444102D01*
X118186158Y-71444098D01*
X118142938Y-71402559D01*
X118017738Y-71331592D01*
X118017734Y-71331591D01*
X118017733Y-71331590D01*
X118017732Y-71331590D01*
X117877602Y-71298770D01*
X117877601Y-71298770D01*
X117733901Y-71306757D01*
X117733898Y-71306758D01*
X117598275Y-71354906D01*
X117598267Y-71354911D01*
X117548492Y-71388312D01*
X116444162Y-72314957D01*
X116396196Y-72355206D01*
X116377982Y-72370489D01*
X116313974Y-72398502D01*
X116298276Y-72399500D01*
X112436728Y-72399500D01*
X112369689Y-72379815D01*
X112349047Y-72363181D01*
X111624220Y-71638355D01*
X111624218Y-71638352D01*
X111505347Y-71519481D01*
X111505346Y-71519480D01*
X111418534Y-71469360D01*
X111418534Y-71469359D01*
X111418530Y-71469358D01*
X111368415Y-71440423D01*
X111215687Y-71399499D01*
X111215680Y-71399497D01*
X111215552Y-71399481D01*
X111215432Y-71399431D01*
X111207836Y-71397396D01*
X111208104Y-71396395D01*
X111164657Y-71378397D01*
X111164006Y-71379526D01*
X111156966Y-71375461D01*
X111010895Y-71314957D01*
X111010890Y-71314955D01*
X110893491Y-71299500D01*
X110379766Y-71299500D01*
X110262364Y-71314955D01*
X110261213Y-71315264D01*
X110260021Y-71315264D01*
X110254309Y-71316016D01*
X110254210Y-71315264D01*
X110204049Y-71315264D01*
X110203950Y-71316017D01*
X110198237Y-71315264D01*
X110197047Y-71315265D01*
X110195895Y-71314956D01*
X110078491Y-71299500D01*
X109564766Y-71299500D01*
X109447376Y-71314953D01*
X109447364Y-71314957D01*
X109301293Y-71375461D01*
X109294254Y-71379526D01*
X109293247Y-71377783D01*
X109238198Y-71399069D01*
X109227873Y-71399500D01*
X108919499Y-71399500D01*
X108852460Y-71379815D01*
X108806705Y-71327011D01*
X108795499Y-71275500D01*
X108795499Y-70811071D01*
X108789111Y-70740764D01*
X108789110Y-70740761D01*
X108789110Y-70740758D01*
X108764378Y-70661390D01*
X108763226Y-70591530D01*
X108800027Y-70532138D01*
X108863096Y-70502070D01*
X108882763Y-70500500D01*
X191117761Y-70500500D01*
X191184800Y-70520185D01*
G37*
%TD.AperFunction*%
%TA.AperFunction,Conductor*%
G36*
X191116942Y-75370185D02*
G01*
X191137584Y-75386819D01*
X191168181Y-75417416D01*
X191201666Y-75478739D01*
X191204500Y-75505097D01*
X191204500Y-76188928D01*
X191210888Y-76259235D01*
X191210890Y-76259242D01*
X191242190Y-76359688D01*
X191243342Y-76429548D01*
X191206541Y-76488940D01*
X191143472Y-76519008D01*
X191074159Y-76510206D01*
X191036124Y-76484259D01*
X190114046Y-75562181D01*
X190080561Y-75500858D01*
X190085545Y-75431166D01*
X190127417Y-75375233D01*
X190192881Y-75350816D01*
X190201727Y-75350500D01*
X191049903Y-75350500D01*
X191116942Y-75370185D01*
G37*
%TD.AperFunction*%
%TA.AperFunction,Conductor*%
G36*
X194467862Y-72824120D02*
G01*
X194497930Y-72887189D01*
X194499500Y-72906856D01*
X194499500Y-74093667D01*
X194479815Y-74160706D01*
X194427011Y-74206461D01*
X194357853Y-74216405D01*
X194338610Y-74212053D01*
X194224148Y-74176385D01*
X194153873Y-74170000D01*
X194150000Y-74170000D01*
X194150000Y-75376000D01*
X194130315Y-75443039D01*
X194077511Y-75488794D01*
X194026000Y-75500000D01*
X193774000Y-75500000D01*
X193706961Y-75480315D01*
X193661206Y-75427511D01*
X193650000Y-75376000D01*
X193650000Y-74170000D01*
X193646127Y-74170000D01*
X193575847Y-74176386D01*
X193414137Y-74226776D01*
X193414133Y-74226778D01*
X193269181Y-74314404D01*
X193269177Y-74314407D01*
X193149407Y-74434177D01*
X193106409Y-74505306D01*
X193054881Y-74552493D01*
X192986022Y-74564332D01*
X192921693Y-74537063D01*
X192894175Y-74505305D01*
X192850992Y-74433871D01*
X192850989Y-74433867D01*
X192731132Y-74314010D01*
X192731128Y-74314007D01*
X192586073Y-74226319D01*
X192586068Y-74226317D01*
X192424246Y-74175891D01*
X192424238Y-74175889D01*
X192375003Y-74171415D01*
X192353921Y-74169500D01*
X192353918Y-74169500D01*
X191846071Y-74169500D01*
X191775760Y-74175889D01*
X191775755Y-74175890D01*
X191685285Y-74204082D01*
X191615424Y-74205234D01*
X191586393Y-74193083D01*
X191581787Y-74190424D01*
X191581786Y-74190423D01*
X191581785Y-74190423D01*
X191429057Y-74149499D01*
X191270943Y-74149499D01*
X191263347Y-74149499D01*
X191263331Y-74149500D01*
X189933757Y-74149500D01*
X189866718Y-74129815D01*
X189861400Y-74126075D01*
X189860336Y-74125461D01*
X189714265Y-74064957D01*
X189714260Y-74064955D01*
X189596870Y-74049501D01*
X189596867Y-74049500D01*
X189596861Y-74049500D01*
X189596854Y-74049500D01*
X189249500Y-74049500D01*
X189240814Y-74046949D01*
X189231853Y-74048238D01*
X189207812Y-74037259D01*
X189182461Y-74029815D01*
X189176533Y-74022974D01*
X189168297Y-74019213D01*
X189154007Y-73996978D01*
X189136706Y-73977011D01*
X189134418Y-73966496D01*
X189130523Y-73960435D01*
X189125500Y-73925500D01*
X189125500Y-73824499D01*
X189145185Y-73757460D01*
X189197989Y-73711705D01*
X189249500Y-73700499D01*
X189596863Y-73700499D01*
X189714253Y-73685046D01*
X189714257Y-73685044D01*
X189714262Y-73685044D01*
X189860341Y-73624536D01*
X189860345Y-73624532D01*
X189867376Y-73620474D01*
X189868382Y-73622216D01*
X189923432Y-73600931D01*
X189933757Y-73600500D01*
X192313331Y-73600500D01*
X192313347Y-73600501D01*
X192320943Y-73600501D01*
X192479054Y-73600501D01*
X192479057Y-73600501D01*
X192631785Y-73559577D01*
X192631787Y-73559575D01*
X192631789Y-73559575D01*
X192631790Y-73559574D01*
X192685988Y-73528283D01*
X192685989Y-73528282D01*
X192768716Y-73480520D01*
X192880520Y-73368716D01*
X192880520Y-73368714D01*
X192890724Y-73358511D01*
X192890728Y-73358506D01*
X193407908Y-72841325D01*
X193469229Y-72807842D01*
X193532477Y-72810622D01*
X193575758Y-72824110D01*
X193646079Y-72830500D01*
X194153920Y-72830499D01*
X194153927Y-72830499D01*
X194224235Y-72824111D01*
X194224237Y-72824110D01*
X194224242Y-72824110D01*
X194338609Y-72788470D01*
X194408469Y-72787319D01*
X194467862Y-72824120D01*
G37*
%TD.AperFunction*%
%TA.AperFunction,Conductor*%
G36*
X142458034Y-73620185D02*
G01*
X142503789Y-73672989D01*
X142513733Y-73742147D01*
X142496723Y-73789290D01*
X142494947Y-73792188D01*
X142398444Y-73981585D01*
X142398443Y-73981587D01*
X142398443Y-73981588D01*
X142381389Y-74034075D01*
X142332753Y-74183760D01*
X142311721Y-74316553D01*
X142299500Y-74393713D01*
X142299500Y-74606287D01*
X142304740Y-74639370D01*
X142321572Y-74745647D01*
X142332754Y-74816243D01*
X142363772Y-74911707D01*
X142398445Y-75018419D01*
X142398446Y-75018420D01*
X142431640Y-75083566D01*
X142444537Y-75152235D01*
X142418261Y-75216975D01*
X142361155Y-75257233D01*
X142321156Y-75263861D01*
X117168074Y-75263861D01*
X117101035Y-75244176D01*
X117055280Y-75191372D01*
X117045336Y-75122214D01*
X117050143Y-75101543D01*
X117099768Y-74948811D01*
X117099768Y-74948808D01*
X117133011Y-74738927D01*
X117133011Y-74707337D01*
X117152696Y-74640298D01*
X117205500Y-74594543D01*
X117274658Y-74584599D01*
X117318153Y-74599460D01*
X117439796Y-74668410D01*
X117579926Y-74701230D01*
X117723626Y-74693242D01*
X117724328Y-74692993D01*
X117859252Y-74645093D01*
X117859251Y-74645093D01*
X117859255Y-74645092D01*
X117909038Y-74611685D01*
X119079546Y-73629510D01*
X119143554Y-73601498D01*
X119159252Y-73600500D01*
X142390995Y-73600500D01*
X142458034Y-73620185D01*
G37*
%TD.AperFunction*%
%TA.AperFunction,Conductor*%
G36*
X106293039Y-71519685D02*
G01*
X106338794Y-71572489D01*
X106350000Y-71624000D01*
X106350000Y-72830000D01*
X106353873Y-72830000D01*
X106424152Y-72823613D01*
X106585862Y-72773223D01*
X106585866Y-72773221D01*
X106730818Y-72685595D01*
X106730822Y-72685592D01*
X106850593Y-72565821D01*
X106893589Y-72494695D01*
X106945116Y-72447506D01*
X107013975Y-72435667D01*
X107078304Y-72462934D01*
X107105824Y-72494693D01*
X107149010Y-72566132D01*
X107268867Y-72685989D01*
X107268871Y-72685992D01*
X107363568Y-72743238D01*
X107413928Y-72773681D01*
X107575758Y-72824110D01*
X107646079Y-72830500D01*
X108153920Y-72830499D01*
X108153927Y-72830499D01*
X108224235Y-72824111D01*
X108224236Y-72824110D01*
X108224242Y-72824110D01*
X108386072Y-72773681D01*
X108531132Y-72685990D01*
X108580303Y-72636819D01*
X108641626Y-72603334D01*
X108667984Y-72600500D01*
X109227873Y-72600500D01*
X109294912Y-72620185D01*
X109300229Y-72623924D01*
X109301287Y-72624534D01*
X109301289Y-72624536D01*
X109301290Y-72624536D01*
X109301293Y-72624538D01*
X109334651Y-72638355D01*
X109447368Y-72685044D01*
X109564769Y-72700500D01*
X110078490Y-72700499D01*
X110078493Y-72700499D01*
X110195885Y-72685045D01*
X110195885Y-72685044D01*
X110195892Y-72685044D01*
X110195897Y-72685041D01*
X110197030Y-72684739D01*
X110198215Y-72684738D01*
X110203951Y-72683984D01*
X110204050Y-72684738D01*
X110254210Y-72684737D01*
X110254310Y-72683983D01*
X110260037Y-72684737D01*
X110261221Y-72684737D01*
X110262364Y-72685043D01*
X110262366Y-72685043D01*
X110262368Y-72685044D01*
X110379769Y-72700500D01*
X110893490Y-72700499D01*
X110916284Y-72697498D01*
X110985318Y-72708263D01*
X111020150Y-72732756D01*
X111199713Y-72912319D01*
X111233198Y-72973642D01*
X111228214Y-73043334D01*
X111199713Y-73087681D01*
X110524212Y-73763181D01*
X110502316Y-73775136D01*
X110482718Y-73790577D01*
X110469288Y-73793171D01*
X110462889Y-73796666D01*
X110448426Y-73798928D01*
X110442486Y-73799500D01*
X110379770Y-73799501D01*
X110262368Y-73814956D01*
X110256383Y-73817434D01*
X110241024Y-73818915D01*
X110221994Y-73815264D01*
X110204049Y-73815264D01*
X110203950Y-73816017D01*
X110198237Y-73815264D01*
X110197047Y-73815265D01*
X110195895Y-73814956D01*
X110078500Y-73799501D01*
X110078497Y-73799500D01*
X110078491Y-73799500D01*
X110078484Y-73799500D01*
X109988964Y-73799500D01*
X109973475Y-73795350D01*
X109959733Y-73796005D01*
X109926965Y-73782888D01*
X109916351Y-73776760D01*
X109911978Y-73774235D01*
X109903535Y-73769361D01*
X109903533Y-73769359D01*
X109903532Y-73769359D01*
X109853416Y-73740424D01*
X109700688Y-73699500D01*
X109542574Y-73699500D01*
X109534978Y-73699500D01*
X109534962Y-73699501D01*
X107386668Y-73699501D01*
X107386652Y-73699500D01*
X107379056Y-73699500D01*
X107220942Y-73699500D01*
X107113586Y-73728266D01*
X107068209Y-73740425D01*
X107068208Y-73740426D01*
X107018095Y-73769360D01*
X107018094Y-73769361D01*
X106983576Y-73789290D01*
X106931284Y-73819480D01*
X106931281Y-73819482D01*
X106819477Y-73931287D01*
X106592091Y-74158672D01*
X106530768Y-74192157D01*
X106467520Y-74189376D01*
X106424242Y-74175890D01*
X106353921Y-74169500D01*
X106353918Y-74169500D01*
X105846071Y-74169500D01*
X105775765Y-74175888D01*
X105775758Y-74175889D01*
X105775758Y-74175890D01*
X105720585Y-74193083D01*
X105661390Y-74211529D01*
X105591530Y-74212679D01*
X105532137Y-74175878D01*
X105502069Y-74112809D01*
X105500500Y-74093143D01*
X105500500Y-72906332D01*
X105520185Y-72839293D01*
X105572989Y-72793538D01*
X105642147Y-72783594D01*
X105661391Y-72787947D01*
X105775849Y-72823613D01*
X105846127Y-72830000D01*
X105850000Y-72830000D01*
X105850000Y-71624000D01*
X105869685Y-71556961D01*
X105922489Y-71511206D01*
X105974000Y-71500000D01*
X106226000Y-71500000D01*
X106293039Y-71519685D01*
G37*
%TD.AperFunction*%
%TD*%
M02*
