%TF.GenerationSoftware,KiCad,Pcbnew,9.0.0+1*%
%TF.CreationDate,2025-04-07T23:30:03+02:00*%
%TF.ProjectId,WikiSumo_v25,57696b69-5375-46d6-9f5f-7632352e6b69,rev?*%
%TF.SameCoordinates,Original*%
%TF.FileFunction,Legend,Top*%
%TF.FilePolarity,Positive*%
%FSLAX46Y46*%
G04 Gerber Fmt 4.6, Leading zero omitted, Abs format (unit mm)*
G04 Created by KiCad (PCBNEW 9.0.0+1) date 2025-04-07 23:30:03*
%MOMM*%
%LPD*%
G01*
G04 APERTURE LIST*
%ADD10C,0.150000*%
%ADD11C,0.120000*%
%ADD12C,0.127000*%
G04 APERTURE END LIST*
D10*
X149166666Y-89954819D02*
X149166666Y-90669104D01*
X149166666Y-90669104D02*
X149119047Y-90811961D01*
X149119047Y-90811961D02*
X149023809Y-90907200D01*
X149023809Y-90907200D02*
X148880952Y-90954819D01*
X148880952Y-90954819D02*
X148785714Y-90954819D01*
X150071428Y-90288152D02*
X150071428Y-90954819D01*
X149833333Y-89907200D02*
X149595238Y-90621485D01*
X149595238Y-90621485D02*
X150214285Y-90621485D01*
X155428571Y-94614700D02*
X156571429Y-94614700D01*
X156000000Y-95186128D02*
X156000000Y-94043271D01*
X142428571Y-94614700D02*
X143571429Y-94614700D01*
X193152987Y-82566009D02*
X193700162Y-83025143D01*
X193700162Y-83025143D02*
X193778988Y-83153448D01*
X193778988Y-83153448D02*
X193790726Y-83287623D01*
X193790726Y-83287623D02*
X193735378Y-83427667D01*
X193735378Y-83427667D02*
X193674160Y-83500623D01*
X193397859Y-82274183D02*
X193795775Y-81799965D01*
X193795775Y-81799965D02*
X193873339Y-82300184D01*
X193873339Y-82300184D02*
X193965166Y-82190749D01*
X193965166Y-82190749D02*
X194062862Y-82148402D01*
X194062862Y-82148402D02*
X194129949Y-82142532D01*
X194129949Y-82142532D02*
X194233514Y-82167272D01*
X194233514Y-82167272D02*
X194415906Y-82320316D01*
X194415906Y-82320316D02*
X194458254Y-82418013D01*
X194458254Y-82418013D02*
X194464123Y-82485100D01*
X194464123Y-82485100D02*
X194439384Y-82588665D01*
X194439384Y-82588665D02*
X194255730Y-82807535D01*
X194255730Y-82807535D02*
X194158034Y-82849883D01*
X194158034Y-82849883D02*
X194090946Y-82855752D01*
X165933333Y-100034580D02*
X165885714Y-100082200D01*
X165885714Y-100082200D02*
X165742857Y-100129819D01*
X165742857Y-100129819D02*
X165647619Y-100129819D01*
X165647619Y-100129819D02*
X165504762Y-100082200D01*
X165504762Y-100082200D02*
X165409524Y-99986961D01*
X165409524Y-99986961D02*
X165361905Y-99891723D01*
X165361905Y-99891723D02*
X165314286Y-99701247D01*
X165314286Y-99701247D02*
X165314286Y-99558390D01*
X165314286Y-99558390D02*
X165361905Y-99367914D01*
X165361905Y-99367914D02*
X165409524Y-99272676D01*
X165409524Y-99272676D02*
X165504762Y-99177438D01*
X165504762Y-99177438D02*
X165647619Y-99129819D01*
X165647619Y-99129819D02*
X165742857Y-99129819D01*
X165742857Y-99129819D02*
X165885714Y-99177438D01*
X165885714Y-99177438D02*
X165933333Y-99225057D01*
X166266667Y-99129819D02*
X166933333Y-99129819D01*
X166933333Y-99129819D02*
X166504762Y-100129819D01*
X170765833Y-95199580D02*
X170718214Y-95247200D01*
X170718214Y-95247200D02*
X170575357Y-95294819D01*
X170575357Y-95294819D02*
X170480119Y-95294819D01*
X170480119Y-95294819D02*
X170337262Y-95247200D01*
X170337262Y-95247200D02*
X170242024Y-95151961D01*
X170242024Y-95151961D02*
X170194405Y-95056723D01*
X170194405Y-95056723D02*
X170146786Y-94866247D01*
X170146786Y-94866247D02*
X170146786Y-94723390D01*
X170146786Y-94723390D02*
X170194405Y-94532914D01*
X170194405Y-94532914D02*
X170242024Y-94437676D01*
X170242024Y-94437676D02*
X170337262Y-94342438D01*
X170337262Y-94342438D02*
X170480119Y-94294819D01*
X170480119Y-94294819D02*
X170575357Y-94294819D01*
X170575357Y-94294819D02*
X170718214Y-94342438D01*
X170718214Y-94342438D02*
X170765833Y-94390057D01*
X171670595Y-94294819D02*
X171194405Y-94294819D01*
X171194405Y-94294819D02*
X171146786Y-94771009D01*
X171146786Y-94771009D02*
X171194405Y-94723390D01*
X171194405Y-94723390D02*
X171289643Y-94675771D01*
X171289643Y-94675771D02*
X171527738Y-94675771D01*
X171527738Y-94675771D02*
X171622976Y-94723390D01*
X171622976Y-94723390D02*
X171670595Y-94771009D01*
X171670595Y-94771009D02*
X171718214Y-94866247D01*
X171718214Y-94866247D02*
X171718214Y-95104342D01*
X171718214Y-95104342D02*
X171670595Y-95199580D01*
X171670595Y-95199580D02*
X171622976Y-95247200D01*
X171622976Y-95247200D02*
X171527738Y-95294819D01*
X171527738Y-95294819D02*
X171289643Y-95294819D01*
X171289643Y-95294819D02*
X171194405Y-95247200D01*
X171194405Y-95247200D02*
X171146786Y-95199580D01*
X165838095Y-98029819D02*
X165838095Y-98839342D01*
X165838095Y-98839342D02*
X165885714Y-98934580D01*
X165885714Y-98934580D02*
X165933333Y-98982200D01*
X165933333Y-98982200D02*
X166028571Y-99029819D01*
X166028571Y-99029819D02*
X166219047Y-99029819D01*
X166219047Y-99029819D02*
X166314285Y-98982200D01*
X166314285Y-98982200D02*
X166361904Y-98934580D01*
X166361904Y-98934580D02*
X166409523Y-98839342D01*
X166409523Y-98839342D02*
X166409523Y-98029819D01*
X167028571Y-98458390D02*
X166933333Y-98410771D01*
X166933333Y-98410771D02*
X166885714Y-98363152D01*
X166885714Y-98363152D02*
X166838095Y-98267914D01*
X166838095Y-98267914D02*
X166838095Y-98220295D01*
X166838095Y-98220295D02*
X166885714Y-98125057D01*
X166885714Y-98125057D02*
X166933333Y-98077438D01*
X166933333Y-98077438D02*
X167028571Y-98029819D01*
X167028571Y-98029819D02*
X167219047Y-98029819D01*
X167219047Y-98029819D02*
X167314285Y-98077438D01*
X167314285Y-98077438D02*
X167361904Y-98125057D01*
X167361904Y-98125057D02*
X167409523Y-98220295D01*
X167409523Y-98220295D02*
X167409523Y-98267914D01*
X167409523Y-98267914D02*
X167361904Y-98363152D01*
X167361904Y-98363152D02*
X167314285Y-98410771D01*
X167314285Y-98410771D02*
X167219047Y-98458390D01*
X167219047Y-98458390D02*
X167028571Y-98458390D01*
X167028571Y-98458390D02*
X166933333Y-98506009D01*
X166933333Y-98506009D02*
X166885714Y-98553628D01*
X166885714Y-98553628D02*
X166838095Y-98648866D01*
X166838095Y-98648866D02*
X166838095Y-98839342D01*
X166838095Y-98839342D02*
X166885714Y-98934580D01*
X166885714Y-98934580D02*
X166933333Y-98982200D01*
X166933333Y-98982200D02*
X167028571Y-99029819D01*
X167028571Y-99029819D02*
X167219047Y-99029819D01*
X167219047Y-99029819D02*
X167314285Y-98982200D01*
X167314285Y-98982200D02*
X167361904Y-98934580D01*
X167361904Y-98934580D02*
X167409523Y-98839342D01*
X167409523Y-98839342D02*
X167409523Y-98648866D01*
X167409523Y-98648866D02*
X167361904Y-98553628D01*
X167361904Y-98553628D02*
X167314285Y-98506009D01*
X167314285Y-98506009D02*
X167219047Y-98458390D01*
X132044819Y-104555238D02*
X131568628Y-104888571D01*
X132044819Y-105126666D02*
X131044819Y-105126666D01*
X131044819Y-105126666D02*
X131044819Y-104745714D01*
X131044819Y-104745714D02*
X131092438Y-104650476D01*
X131092438Y-104650476D02*
X131140057Y-104602857D01*
X131140057Y-104602857D02*
X131235295Y-104555238D01*
X131235295Y-104555238D02*
X131378152Y-104555238D01*
X131378152Y-104555238D02*
X131473390Y-104602857D01*
X131473390Y-104602857D02*
X131521009Y-104650476D01*
X131521009Y-104650476D02*
X131568628Y-104745714D01*
X131568628Y-104745714D02*
X131568628Y-105126666D01*
X131044819Y-104269523D02*
X132044819Y-103936190D01*
X132044819Y-103936190D02*
X131044819Y-103602857D01*
X131140057Y-103317142D02*
X131092438Y-103269523D01*
X131092438Y-103269523D02*
X131044819Y-103174285D01*
X131044819Y-103174285D02*
X131044819Y-102936190D01*
X131044819Y-102936190D02*
X131092438Y-102840952D01*
X131092438Y-102840952D02*
X131140057Y-102793333D01*
X131140057Y-102793333D02*
X131235295Y-102745714D01*
X131235295Y-102745714D02*
X131330533Y-102745714D01*
X131330533Y-102745714D02*
X131473390Y-102793333D01*
X131473390Y-102793333D02*
X132044819Y-103364761D01*
X132044819Y-103364761D02*
X132044819Y-102745714D01*
X127541667Y-71257200D02*
X127684524Y-71304819D01*
X127684524Y-71304819D02*
X127922619Y-71304819D01*
X127922619Y-71304819D02*
X128017857Y-71257200D01*
X128017857Y-71257200D02*
X128065476Y-71209580D01*
X128065476Y-71209580D02*
X128113095Y-71114342D01*
X128113095Y-71114342D02*
X128113095Y-71019104D01*
X128113095Y-71019104D02*
X128065476Y-70923866D01*
X128065476Y-70923866D02*
X128017857Y-70876247D01*
X128017857Y-70876247D02*
X127922619Y-70828628D01*
X127922619Y-70828628D02*
X127732143Y-70781009D01*
X127732143Y-70781009D02*
X127636905Y-70733390D01*
X127636905Y-70733390D02*
X127589286Y-70685771D01*
X127589286Y-70685771D02*
X127541667Y-70590533D01*
X127541667Y-70590533D02*
X127541667Y-70495295D01*
X127541667Y-70495295D02*
X127589286Y-70400057D01*
X127589286Y-70400057D02*
X127636905Y-70352438D01*
X127636905Y-70352438D02*
X127732143Y-70304819D01*
X127732143Y-70304819D02*
X127970238Y-70304819D01*
X127970238Y-70304819D02*
X128113095Y-70352438D01*
X128446429Y-70304819D02*
X128684524Y-71304819D01*
X128684524Y-71304819D02*
X128875000Y-70590533D01*
X128875000Y-70590533D02*
X129065476Y-71304819D01*
X129065476Y-71304819D02*
X129303572Y-70304819D01*
X130208333Y-71304819D02*
X129636905Y-71304819D01*
X129922619Y-71304819D02*
X129922619Y-70304819D01*
X129922619Y-70304819D02*
X129827381Y-70447676D01*
X129827381Y-70447676D02*
X129732143Y-70542914D01*
X129732143Y-70542914D02*
X129636905Y-70590533D01*
X116709580Y-102226666D02*
X116757200Y-102274285D01*
X116757200Y-102274285D02*
X116804819Y-102417142D01*
X116804819Y-102417142D02*
X116804819Y-102512380D01*
X116804819Y-102512380D02*
X116757200Y-102655237D01*
X116757200Y-102655237D02*
X116661961Y-102750475D01*
X116661961Y-102750475D02*
X116566723Y-102798094D01*
X116566723Y-102798094D02*
X116376247Y-102845713D01*
X116376247Y-102845713D02*
X116233390Y-102845713D01*
X116233390Y-102845713D02*
X116042914Y-102798094D01*
X116042914Y-102798094D02*
X115947676Y-102750475D01*
X115947676Y-102750475D02*
X115852438Y-102655237D01*
X115852438Y-102655237D02*
X115804819Y-102512380D01*
X115804819Y-102512380D02*
X115804819Y-102417142D01*
X115804819Y-102417142D02*
X115852438Y-102274285D01*
X115852438Y-102274285D02*
X115900057Y-102226666D01*
X116138152Y-101369523D02*
X116804819Y-101369523D01*
X115757200Y-101607618D02*
X116471485Y-101845713D01*
X116471485Y-101845713D02*
X116471485Y-101226666D01*
X189100595Y-101304819D02*
X189100595Y-102114342D01*
X189100595Y-102114342D02*
X189148214Y-102209580D01*
X189148214Y-102209580D02*
X189195833Y-102257200D01*
X189195833Y-102257200D02*
X189291071Y-102304819D01*
X189291071Y-102304819D02*
X189481547Y-102304819D01*
X189481547Y-102304819D02*
X189576785Y-102257200D01*
X189576785Y-102257200D02*
X189624404Y-102209580D01*
X189624404Y-102209580D02*
X189672023Y-102114342D01*
X189672023Y-102114342D02*
X189672023Y-101304819D01*
X190576785Y-101304819D02*
X190386309Y-101304819D01*
X190386309Y-101304819D02*
X190291071Y-101352438D01*
X190291071Y-101352438D02*
X190243452Y-101400057D01*
X190243452Y-101400057D02*
X190148214Y-101542914D01*
X190148214Y-101542914D02*
X190100595Y-101733390D01*
X190100595Y-101733390D02*
X190100595Y-102114342D01*
X190100595Y-102114342D02*
X190148214Y-102209580D01*
X190148214Y-102209580D02*
X190195833Y-102257200D01*
X190195833Y-102257200D02*
X190291071Y-102304819D01*
X190291071Y-102304819D02*
X190481547Y-102304819D01*
X190481547Y-102304819D02*
X190576785Y-102257200D01*
X190576785Y-102257200D02*
X190624404Y-102209580D01*
X190624404Y-102209580D02*
X190672023Y-102114342D01*
X190672023Y-102114342D02*
X190672023Y-101876247D01*
X190672023Y-101876247D02*
X190624404Y-101781009D01*
X190624404Y-101781009D02*
X190576785Y-101733390D01*
X190576785Y-101733390D02*
X190481547Y-101685771D01*
X190481547Y-101685771D02*
X190291071Y-101685771D01*
X190291071Y-101685771D02*
X190195833Y-101733390D01*
X190195833Y-101733390D02*
X190148214Y-101781009D01*
X190148214Y-101781009D02*
X190100595Y-101876247D01*
X153916666Y-109504819D02*
X153916666Y-110219104D01*
X153916666Y-110219104D02*
X153869047Y-110361961D01*
X153869047Y-110361961D02*
X153773809Y-110457200D01*
X153773809Y-110457200D02*
X153630952Y-110504819D01*
X153630952Y-110504819D02*
X153535714Y-110504819D01*
X154821428Y-109504819D02*
X154630952Y-109504819D01*
X154630952Y-109504819D02*
X154535714Y-109552438D01*
X154535714Y-109552438D02*
X154488095Y-109600057D01*
X154488095Y-109600057D02*
X154392857Y-109742914D01*
X154392857Y-109742914D02*
X154345238Y-109933390D01*
X154345238Y-109933390D02*
X154345238Y-110314342D01*
X154345238Y-110314342D02*
X154392857Y-110409580D01*
X154392857Y-110409580D02*
X154440476Y-110457200D01*
X154440476Y-110457200D02*
X154535714Y-110504819D01*
X154535714Y-110504819D02*
X154726190Y-110504819D01*
X154726190Y-110504819D02*
X154821428Y-110457200D01*
X154821428Y-110457200D02*
X154869047Y-110409580D01*
X154869047Y-110409580D02*
X154916666Y-110314342D01*
X154916666Y-110314342D02*
X154916666Y-110076247D01*
X154916666Y-110076247D02*
X154869047Y-109981009D01*
X154869047Y-109981009D02*
X154821428Y-109933390D01*
X154821428Y-109933390D02*
X154726190Y-109885771D01*
X154726190Y-109885771D02*
X154535714Y-109885771D01*
X154535714Y-109885771D02*
X154440476Y-109933390D01*
X154440476Y-109933390D02*
X154392857Y-109981009D01*
X154392857Y-109981009D02*
X154345238Y-110076247D01*
X129333333Y-102104819D02*
X129000000Y-101628628D01*
X128761905Y-102104819D02*
X128761905Y-101104819D01*
X128761905Y-101104819D02*
X129142857Y-101104819D01*
X129142857Y-101104819D02*
X129238095Y-101152438D01*
X129238095Y-101152438D02*
X129285714Y-101200057D01*
X129285714Y-101200057D02*
X129333333Y-101295295D01*
X129333333Y-101295295D02*
X129333333Y-101438152D01*
X129333333Y-101438152D02*
X129285714Y-101533390D01*
X129285714Y-101533390D02*
X129238095Y-101581009D01*
X129238095Y-101581009D02*
X129142857Y-101628628D01*
X129142857Y-101628628D02*
X128761905Y-101628628D01*
X130190476Y-101104819D02*
X130000000Y-101104819D01*
X130000000Y-101104819D02*
X129904762Y-101152438D01*
X129904762Y-101152438D02*
X129857143Y-101200057D01*
X129857143Y-101200057D02*
X129761905Y-101342914D01*
X129761905Y-101342914D02*
X129714286Y-101533390D01*
X129714286Y-101533390D02*
X129714286Y-101914342D01*
X129714286Y-101914342D02*
X129761905Y-102009580D01*
X129761905Y-102009580D02*
X129809524Y-102057200D01*
X129809524Y-102057200D02*
X129904762Y-102104819D01*
X129904762Y-102104819D02*
X130095238Y-102104819D01*
X130095238Y-102104819D02*
X130190476Y-102057200D01*
X130190476Y-102057200D02*
X130238095Y-102009580D01*
X130238095Y-102009580D02*
X130285714Y-101914342D01*
X130285714Y-101914342D02*
X130285714Y-101676247D01*
X130285714Y-101676247D02*
X130238095Y-101581009D01*
X130238095Y-101581009D02*
X130190476Y-101533390D01*
X130190476Y-101533390D02*
X130095238Y-101485771D01*
X130095238Y-101485771D02*
X129904762Y-101485771D01*
X129904762Y-101485771D02*
X129809524Y-101533390D01*
X129809524Y-101533390D02*
X129761905Y-101581009D01*
X129761905Y-101581009D02*
X129714286Y-101676247D01*
X170765833Y-99329580D02*
X170718214Y-99377200D01*
X170718214Y-99377200D02*
X170575357Y-99424819D01*
X170575357Y-99424819D02*
X170480119Y-99424819D01*
X170480119Y-99424819D02*
X170337262Y-99377200D01*
X170337262Y-99377200D02*
X170242024Y-99281961D01*
X170242024Y-99281961D02*
X170194405Y-99186723D01*
X170194405Y-99186723D02*
X170146786Y-98996247D01*
X170146786Y-98996247D02*
X170146786Y-98853390D01*
X170146786Y-98853390D02*
X170194405Y-98662914D01*
X170194405Y-98662914D02*
X170242024Y-98567676D01*
X170242024Y-98567676D02*
X170337262Y-98472438D01*
X170337262Y-98472438D02*
X170480119Y-98424819D01*
X170480119Y-98424819D02*
X170575357Y-98424819D01*
X170575357Y-98424819D02*
X170718214Y-98472438D01*
X170718214Y-98472438D02*
X170765833Y-98520057D01*
X171622976Y-98424819D02*
X171432500Y-98424819D01*
X171432500Y-98424819D02*
X171337262Y-98472438D01*
X171337262Y-98472438D02*
X171289643Y-98520057D01*
X171289643Y-98520057D02*
X171194405Y-98662914D01*
X171194405Y-98662914D02*
X171146786Y-98853390D01*
X171146786Y-98853390D02*
X171146786Y-99234342D01*
X171146786Y-99234342D02*
X171194405Y-99329580D01*
X171194405Y-99329580D02*
X171242024Y-99377200D01*
X171242024Y-99377200D02*
X171337262Y-99424819D01*
X171337262Y-99424819D02*
X171527738Y-99424819D01*
X171527738Y-99424819D02*
X171622976Y-99377200D01*
X171622976Y-99377200D02*
X171670595Y-99329580D01*
X171670595Y-99329580D02*
X171718214Y-99234342D01*
X171718214Y-99234342D02*
X171718214Y-98996247D01*
X171718214Y-98996247D02*
X171670595Y-98901009D01*
X171670595Y-98901009D02*
X171622976Y-98853390D01*
X171622976Y-98853390D02*
X171527738Y-98805771D01*
X171527738Y-98805771D02*
X171337262Y-98805771D01*
X171337262Y-98805771D02*
X171242024Y-98853390D01*
X171242024Y-98853390D02*
X171194405Y-98901009D01*
X171194405Y-98901009D02*
X171146786Y-98996247D01*
X132704819Y-106238094D02*
X131704819Y-106238094D01*
X131704819Y-106238094D02*
X131704819Y-105999999D01*
X131704819Y-105999999D02*
X131752438Y-105857142D01*
X131752438Y-105857142D02*
X131847676Y-105761904D01*
X131847676Y-105761904D02*
X131942914Y-105714285D01*
X131942914Y-105714285D02*
X132133390Y-105666666D01*
X132133390Y-105666666D02*
X132276247Y-105666666D01*
X132276247Y-105666666D02*
X132466723Y-105714285D01*
X132466723Y-105714285D02*
X132561961Y-105761904D01*
X132561961Y-105761904D02*
X132657200Y-105857142D01*
X132657200Y-105857142D02*
X132704819Y-105999999D01*
X132704819Y-105999999D02*
X132704819Y-106238094D01*
X131800057Y-105285713D02*
X131752438Y-105238094D01*
X131752438Y-105238094D02*
X131704819Y-105142856D01*
X131704819Y-105142856D02*
X131704819Y-104904761D01*
X131704819Y-104904761D02*
X131752438Y-104809523D01*
X131752438Y-104809523D02*
X131800057Y-104761904D01*
X131800057Y-104761904D02*
X131895295Y-104714285D01*
X131895295Y-104714285D02*
X131990533Y-104714285D01*
X131990533Y-104714285D02*
X132133390Y-104761904D01*
X132133390Y-104761904D02*
X132704819Y-105333332D01*
X132704819Y-105333332D02*
X132704819Y-104714285D01*
X172979819Y-103855238D02*
X172503628Y-104188571D01*
X172979819Y-104426666D02*
X171979819Y-104426666D01*
X171979819Y-104426666D02*
X171979819Y-104045714D01*
X171979819Y-104045714D02*
X172027438Y-103950476D01*
X172027438Y-103950476D02*
X172075057Y-103902857D01*
X172075057Y-103902857D02*
X172170295Y-103855238D01*
X172170295Y-103855238D02*
X172313152Y-103855238D01*
X172313152Y-103855238D02*
X172408390Y-103902857D01*
X172408390Y-103902857D02*
X172456009Y-103950476D01*
X172456009Y-103950476D02*
X172503628Y-104045714D01*
X172503628Y-104045714D02*
X172503628Y-104426666D01*
X171979819Y-103569523D02*
X172979819Y-103236190D01*
X172979819Y-103236190D02*
X171979819Y-102902857D01*
X172979819Y-102045714D02*
X172979819Y-102617142D01*
X172979819Y-102331428D02*
X171979819Y-102331428D01*
X171979819Y-102331428D02*
X172122676Y-102426666D01*
X172122676Y-102426666D02*
X172217914Y-102521904D01*
X172217914Y-102521904D02*
X172265533Y-102617142D01*
X126854819Y-88166666D02*
X126854819Y-88642856D01*
X126854819Y-88642856D02*
X125854819Y-88642856D01*
X125950057Y-87880951D02*
X125902438Y-87833332D01*
X125902438Y-87833332D02*
X125854819Y-87738094D01*
X125854819Y-87738094D02*
X125854819Y-87499999D01*
X125854819Y-87499999D02*
X125902438Y-87404761D01*
X125902438Y-87404761D02*
X125950057Y-87357142D01*
X125950057Y-87357142D02*
X126045295Y-87309523D01*
X126045295Y-87309523D02*
X126140533Y-87309523D01*
X126140533Y-87309523D02*
X126283390Y-87357142D01*
X126283390Y-87357142D02*
X126854819Y-87928570D01*
X126854819Y-87928570D02*
X126854819Y-87309523D01*
X182333333Y-93804819D02*
X182000000Y-93328628D01*
X181761905Y-93804819D02*
X181761905Y-92804819D01*
X181761905Y-92804819D02*
X182142857Y-92804819D01*
X182142857Y-92804819D02*
X182238095Y-92852438D01*
X182238095Y-92852438D02*
X182285714Y-92900057D01*
X182285714Y-92900057D02*
X182333333Y-92995295D01*
X182333333Y-92995295D02*
X182333333Y-93138152D01*
X182333333Y-93138152D02*
X182285714Y-93233390D01*
X182285714Y-93233390D02*
X182238095Y-93281009D01*
X182238095Y-93281009D02*
X182142857Y-93328628D01*
X182142857Y-93328628D02*
X181761905Y-93328628D01*
X183238095Y-92804819D02*
X182761905Y-92804819D01*
X182761905Y-92804819D02*
X182714286Y-93281009D01*
X182714286Y-93281009D02*
X182761905Y-93233390D01*
X182761905Y-93233390D02*
X182857143Y-93185771D01*
X182857143Y-93185771D02*
X183095238Y-93185771D01*
X183095238Y-93185771D02*
X183190476Y-93233390D01*
X183190476Y-93233390D02*
X183238095Y-93281009D01*
X183238095Y-93281009D02*
X183285714Y-93376247D01*
X183285714Y-93376247D02*
X183285714Y-93614342D01*
X183285714Y-93614342D02*
X183238095Y-93709580D01*
X183238095Y-93709580D02*
X183190476Y-93757200D01*
X183190476Y-93757200D02*
X183095238Y-93804819D01*
X183095238Y-93804819D02*
X182857143Y-93804819D01*
X182857143Y-93804819D02*
X182761905Y-93757200D01*
X182761905Y-93757200D02*
X182714286Y-93709580D01*
X192009580Y-103104166D02*
X192057200Y-103151785D01*
X192057200Y-103151785D02*
X192104819Y-103294642D01*
X192104819Y-103294642D02*
X192104819Y-103389880D01*
X192104819Y-103389880D02*
X192057200Y-103532737D01*
X192057200Y-103532737D02*
X191961961Y-103627975D01*
X191961961Y-103627975D02*
X191866723Y-103675594D01*
X191866723Y-103675594D02*
X191676247Y-103723213D01*
X191676247Y-103723213D02*
X191533390Y-103723213D01*
X191533390Y-103723213D02*
X191342914Y-103675594D01*
X191342914Y-103675594D02*
X191247676Y-103627975D01*
X191247676Y-103627975D02*
X191152438Y-103532737D01*
X191152438Y-103532737D02*
X191104819Y-103389880D01*
X191104819Y-103389880D02*
X191104819Y-103294642D01*
X191104819Y-103294642D02*
X191152438Y-103151785D01*
X191152438Y-103151785D02*
X191200057Y-103104166D01*
X191200057Y-102723213D02*
X191152438Y-102675594D01*
X191152438Y-102675594D02*
X191104819Y-102580356D01*
X191104819Y-102580356D02*
X191104819Y-102342261D01*
X191104819Y-102342261D02*
X191152438Y-102247023D01*
X191152438Y-102247023D02*
X191200057Y-102199404D01*
X191200057Y-102199404D02*
X191295295Y-102151785D01*
X191295295Y-102151785D02*
X191390533Y-102151785D01*
X191390533Y-102151785D02*
X191533390Y-102199404D01*
X191533390Y-102199404D02*
X192104819Y-102770832D01*
X192104819Y-102770832D02*
X192104819Y-102151785D01*
X188209580Y-103104166D02*
X188257200Y-103151785D01*
X188257200Y-103151785D02*
X188304819Y-103294642D01*
X188304819Y-103294642D02*
X188304819Y-103389880D01*
X188304819Y-103389880D02*
X188257200Y-103532737D01*
X188257200Y-103532737D02*
X188161961Y-103627975D01*
X188161961Y-103627975D02*
X188066723Y-103675594D01*
X188066723Y-103675594D02*
X187876247Y-103723213D01*
X187876247Y-103723213D02*
X187733390Y-103723213D01*
X187733390Y-103723213D02*
X187542914Y-103675594D01*
X187542914Y-103675594D02*
X187447676Y-103627975D01*
X187447676Y-103627975D02*
X187352438Y-103532737D01*
X187352438Y-103532737D02*
X187304819Y-103389880D01*
X187304819Y-103389880D02*
X187304819Y-103294642D01*
X187304819Y-103294642D02*
X187352438Y-103151785D01*
X187352438Y-103151785D02*
X187400057Y-103104166D01*
X188304819Y-102151785D02*
X188304819Y-102723213D01*
X188304819Y-102437499D02*
X187304819Y-102437499D01*
X187304819Y-102437499D02*
X187447676Y-102532737D01*
X187447676Y-102532737D02*
X187542914Y-102627975D01*
X187542914Y-102627975D02*
X187590533Y-102723213D01*
X125029819Y-86686904D02*
X125839342Y-86686904D01*
X125839342Y-86686904D02*
X125934580Y-86639285D01*
X125934580Y-86639285D02*
X125982200Y-86591666D01*
X125982200Y-86591666D02*
X126029819Y-86496428D01*
X126029819Y-86496428D02*
X126029819Y-86305952D01*
X126029819Y-86305952D02*
X125982200Y-86210714D01*
X125982200Y-86210714D02*
X125934580Y-86163095D01*
X125934580Y-86163095D02*
X125839342Y-86115476D01*
X125839342Y-86115476D02*
X125029819Y-86115476D01*
X125029819Y-85734523D02*
X125029819Y-85067857D01*
X125029819Y-85067857D02*
X126029819Y-85496428D01*
X187454819Y-106238094D02*
X186454819Y-106238094D01*
X186454819Y-106238094D02*
X186454819Y-105999999D01*
X186454819Y-105999999D02*
X186502438Y-105857142D01*
X186502438Y-105857142D02*
X186597676Y-105761904D01*
X186597676Y-105761904D02*
X186692914Y-105714285D01*
X186692914Y-105714285D02*
X186883390Y-105666666D01*
X186883390Y-105666666D02*
X187026247Y-105666666D01*
X187026247Y-105666666D02*
X187216723Y-105714285D01*
X187216723Y-105714285D02*
X187311961Y-105761904D01*
X187311961Y-105761904D02*
X187407200Y-105857142D01*
X187407200Y-105857142D02*
X187454819Y-105999999D01*
X187454819Y-105999999D02*
X187454819Y-106238094D01*
X187454819Y-104714285D02*
X187454819Y-105285713D01*
X187454819Y-104999999D02*
X186454819Y-104999999D01*
X186454819Y-104999999D02*
X186597676Y-105095237D01*
X186597676Y-105095237D02*
X186692914Y-105190475D01*
X186692914Y-105190475D02*
X186740533Y-105285713D01*
X188683333Y-88754819D02*
X188207143Y-88754819D01*
X188207143Y-88754819D02*
X188207143Y-87754819D01*
X189540476Y-88754819D02*
X188969048Y-88754819D01*
X189254762Y-88754819D02*
X189254762Y-87754819D01*
X189254762Y-87754819D02*
X189159524Y-87897676D01*
X189159524Y-87897676D02*
X189064286Y-87992914D01*
X189064286Y-87992914D02*
X188969048Y-88040533D01*
X143816666Y-109504819D02*
X143816666Y-110219104D01*
X143816666Y-110219104D02*
X143769047Y-110361961D01*
X143769047Y-110361961D02*
X143673809Y-110457200D01*
X143673809Y-110457200D02*
X143530952Y-110504819D01*
X143530952Y-110504819D02*
X143435714Y-110504819D01*
X144769047Y-109504819D02*
X144292857Y-109504819D01*
X144292857Y-109504819D02*
X144245238Y-109981009D01*
X144245238Y-109981009D02*
X144292857Y-109933390D01*
X144292857Y-109933390D02*
X144388095Y-109885771D01*
X144388095Y-109885771D02*
X144626190Y-109885771D01*
X144626190Y-109885771D02*
X144721428Y-109933390D01*
X144721428Y-109933390D02*
X144769047Y-109981009D01*
X144769047Y-109981009D02*
X144816666Y-110076247D01*
X144816666Y-110076247D02*
X144816666Y-110314342D01*
X144816666Y-110314342D02*
X144769047Y-110409580D01*
X144769047Y-110409580D02*
X144721428Y-110457200D01*
X144721428Y-110457200D02*
X144626190Y-110504819D01*
X144626190Y-110504819D02*
X144388095Y-110504819D01*
X144388095Y-110504819D02*
X144292857Y-110457200D01*
X144292857Y-110457200D02*
X144245238Y-110409580D01*
X126759580Y-102226666D02*
X126807200Y-102274285D01*
X126807200Y-102274285D02*
X126854819Y-102417142D01*
X126854819Y-102417142D02*
X126854819Y-102512380D01*
X126854819Y-102512380D02*
X126807200Y-102655237D01*
X126807200Y-102655237D02*
X126711961Y-102750475D01*
X126711961Y-102750475D02*
X126616723Y-102798094D01*
X126616723Y-102798094D02*
X126426247Y-102845713D01*
X126426247Y-102845713D02*
X126283390Y-102845713D01*
X126283390Y-102845713D02*
X126092914Y-102798094D01*
X126092914Y-102798094D02*
X125997676Y-102750475D01*
X125997676Y-102750475D02*
X125902438Y-102655237D01*
X125902438Y-102655237D02*
X125854819Y-102512380D01*
X125854819Y-102512380D02*
X125854819Y-102417142D01*
X125854819Y-102417142D02*
X125902438Y-102274285D01*
X125902438Y-102274285D02*
X125950057Y-102226666D01*
X125854819Y-101893332D02*
X125854819Y-101274285D01*
X125854819Y-101274285D02*
X126235771Y-101607618D01*
X126235771Y-101607618D02*
X126235771Y-101464761D01*
X126235771Y-101464761D02*
X126283390Y-101369523D01*
X126283390Y-101369523D02*
X126331009Y-101321904D01*
X126331009Y-101321904D02*
X126426247Y-101274285D01*
X126426247Y-101274285D02*
X126664342Y-101274285D01*
X126664342Y-101274285D02*
X126759580Y-101321904D01*
X126759580Y-101321904D02*
X126807200Y-101369523D01*
X126807200Y-101369523D02*
X126854819Y-101464761D01*
X126854819Y-101464761D02*
X126854819Y-101750475D01*
X126854819Y-101750475D02*
X126807200Y-101845713D01*
X126807200Y-101845713D02*
X126759580Y-101893332D01*
X158134819Y-74833333D02*
X158849104Y-74833333D01*
X158849104Y-74833333D02*
X158991961Y-74880952D01*
X158991961Y-74880952D02*
X159087200Y-74976190D01*
X159087200Y-74976190D02*
X159134819Y-75119047D01*
X159134819Y-75119047D02*
X159134819Y-75214285D01*
X158230057Y-74404761D02*
X158182438Y-74357142D01*
X158182438Y-74357142D02*
X158134819Y-74261904D01*
X158134819Y-74261904D02*
X158134819Y-74023809D01*
X158134819Y-74023809D02*
X158182438Y-73928571D01*
X158182438Y-73928571D02*
X158230057Y-73880952D01*
X158230057Y-73880952D02*
X158325295Y-73833333D01*
X158325295Y-73833333D02*
X158420533Y-73833333D01*
X158420533Y-73833333D02*
X158563390Y-73880952D01*
X158563390Y-73880952D02*
X159134819Y-74452380D01*
X159134819Y-74452380D02*
X159134819Y-73833333D01*
X161253095Y-74354819D02*
X161253095Y-75164342D01*
X161253095Y-75164342D02*
X161300714Y-75259580D01*
X161300714Y-75259580D02*
X161348333Y-75307200D01*
X161348333Y-75307200D02*
X161443571Y-75354819D01*
X161443571Y-75354819D02*
X161634047Y-75354819D01*
X161634047Y-75354819D02*
X161729285Y-75307200D01*
X161729285Y-75307200D02*
X161776904Y-75259580D01*
X161776904Y-75259580D02*
X161824523Y-75164342D01*
X161824523Y-75164342D02*
X161824523Y-74354819D01*
X162824523Y-75354819D02*
X162253095Y-75354819D01*
X162538809Y-75354819D02*
X162538809Y-74354819D01*
X162538809Y-74354819D02*
X162443571Y-74497676D01*
X162443571Y-74497676D02*
X162348333Y-74592914D01*
X162348333Y-74592914D02*
X162253095Y-74640533D01*
D11*
%TO.C,J4*%
X144290000Y-93090000D02*
X144290000Y-95910000D01*
X144290000Y-93090000D02*
X145990000Y-91790000D01*
X144290000Y-95910000D02*
X145990000Y-97210000D01*
X145990000Y-91790000D02*
X154710000Y-91790000D01*
X145990000Y-97210000D02*
X154710000Y-97210000D01*
X154710000Y-91790000D02*
X154710000Y-97210000D01*
%TO.C,J3*%
X182107304Y-71126254D02*
X180397489Y-73163932D01*
X190172216Y-81365902D02*
X180397489Y-73163932D01*
X191882031Y-79328224D02*
X182107304Y-71126254D01*
X191882031Y-79328224D02*
X190172216Y-81365902D01*
X192854908Y-80144564D02*
X193873747Y-80999471D01*
X193873747Y-80999471D02*
X193018839Y-82018311D01*
%TO.C,C7*%
X164350000Y-98835000D02*
X168735000Y-98835000D01*
X168735000Y-95815000D02*
X164350000Y-95815000D01*
X168735000Y-98835000D02*
X168735000Y-95815000D01*
%TO.C,C5*%
X170816665Y-95640000D02*
X171048335Y-95640000D01*
X170816665Y-96360000D02*
X171048335Y-96360000D01*
D10*
%TO.C,U8*%
X163725000Y-99500000D02*
X163725000Y-99725000D01*
X163725000Y-99500000D02*
X169475000Y-99500000D01*
X163725000Y-108150000D02*
X163725000Y-107925000D01*
X163725000Y-108150000D02*
X169475000Y-108150000D01*
X169475000Y-99500000D02*
X169475000Y-99725000D01*
X169475000Y-108150000D02*
X169475000Y-107925000D01*
D11*
X163225000Y-99750000D02*
X162985000Y-99420000D01*
X163465000Y-99420000D01*
X163225000Y-99750000D01*
G36*
X163225000Y-99750000D02*
G01*
X162985000Y-99420000D01*
X163465000Y-99420000D01*
X163225000Y-99750000D01*
G37*
%TO.C,RV2*%
X132720000Y-99075000D02*
X137790000Y-99075000D01*
X132720000Y-108845000D02*
X132720000Y-99075000D01*
X132720000Y-108845000D02*
X137790000Y-108845000D01*
X137790000Y-108845000D02*
X137790000Y-99075000D01*
%TO.C,SW1*%
X126425000Y-72450000D02*
X126425000Y-72500000D01*
X126425000Y-72450000D02*
X131325000Y-72450000D01*
X126425000Y-74150000D02*
X126425000Y-75650000D01*
X126425000Y-77350000D02*
X126425000Y-77300000D01*
X126425000Y-77350000D02*
X131325000Y-77350000D01*
X131325000Y-72450000D02*
X131325000Y-72500000D01*
X131325000Y-74150000D02*
X131325000Y-75650000D01*
X131325000Y-77350000D02*
X131325000Y-77300000D01*
%TO.C,C4*%
X106690000Y-98764437D02*
X106690000Y-106420000D01*
X106690000Y-106420000D02*
X109540000Y-106420000D01*
X107754437Y-97700000D02*
X106690000Y-98764437D01*
X107754437Y-97700000D02*
X109540000Y-97700000D01*
X113560000Y-96460000D02*
X113560000Y-97460000D01*
X114060000Y-96960000D02*
X113060000Y-96960000D01*
X114345563Y-97700000D02*
X112560000Y-97700000D01*
X114345563Y-97700000D02*
X115410000Y-98764437D01*
X115410000Y-98764437D02*
X115410000Y-106420000D01*
X115410000Y-106420000D02*
X112560000Y-106420000D01*
%TO.C,U6*%
X189862500Y-97890000D02*
X189062500Y-97890000D01*
X189862500Y-97890000D02*
X190662500Y-97890000D01*
X189862500Y-101010000D02*
X189062500Y-101010000D01*
X189862500Y-101010000D02*
X190662500Y-101010000D01*
X191402500Y-101290000D02*
X190922500Y-101290000D01*
X191162500Y-100960000D01*
X191402500Y-101290000D01*
G36*
X191402500Y-101290000D02*
G01*
X190922500Y-101290000D01*
X191162500Y-100960000D01*
X191402500Y-101290000D01*
G37*
%TO.C,J6*%
X150440000Y-102990000D02*
X150440000Y-108960000D01*
X150440000Y-108960000D02*
X158060000Y-108960000D01*
X150450000Y-106700000D02*
X151200000Y-106700000D01*
X150450000Y-108200000D02*
X150450000Y-108950000D01*
X150450000Y-108950000D02*
X152250000Y-108950000D01*
X151200000Y-103750000D02*
X154250000Y-103750000D01*
X151200000Y-106700000D02*
X151200000Y-103750000D01*
X152250000Y-108200000D02*
X150450000Y-108200000D01*
X152250000Y-108950000D02*
X152250000Y-108200000D01*
X153750000Y-108200000D02*
X153750000Y-108950000D01*
X153750000Y-108950000D02*
X154750000Y-108950000D01*
X154250000Y-103750000D02*
X156240000Y-103750000D01*
X154750000Y-108200000D02*
X153750000Y-108200000D01*
X154750000Y-108950000D02*
X154750000Y-108200000D01*
X156250000Y-108200000D02*
X156250000Y-108950000D01*
X156250000Y-108950000D02*
X158050000Y-108950000D01*
X157100000Y-109250000D02*
X158350000Y-109250000D01*
X157300000Y-106700000D02*
X157300000Y-105360000D01*
X158050000Y-106700000D02*
X157300000Y-106700000D01*
X158050000Y-108200000D02*
X156250000Y-108200000D01*
X158050000Y-108950000D02*
X158050000Y-108200000D01*
X158060000Y-102990000D02*
X150440000Y-102990000D01*
X158060000Y-108960000D02*
X158060000Y-102990000D01*
X158350000Y-109250000D02*
X158350000Y-108000000D01*
%TO.C,R6*%
X129727064Y-99265000D02*
X129272936Y-99265000D01*
X129727064Y-100735000D02*
X129272936Y-100735000D01*
%TO.C,J1*%
X106126253Y-80999471D02*
X107836068Y-83037149D01*
X115900980Y-72797501D02*
X106126253Y-80999471D01*
X115900980Y-72797501D02*
X117610795Y-74835179D01*
X116873856Y-71981161D02*
X117892696Y-71126253D01*
X117610795Y-74835179D02*
X107836068Y-83037149D01*
X117892696Y-71126253D02*
X118747603Y-72145092D01*
%TO.C,C6*%
X171048335Y-97640000D02*
X170816665Y-97640000D01*
X171048335Y-98360000D02*
X170816665Y-98360000D01*
%TO.C,D2*%
X128100000Y-101990000D02*
X128100000Y-107500000D01*
X131400000Y-101990000D02*
X128100000Y-101990000D01*
X131400000Y-101990000D02*
X131400000Y-107500000D01*
%TO.C,RV1*%
X173655000Y-97365000D02*
X183425000Y-97365000D01*
X173655000Y-107635000D02*
X173655000Y-97365000D01*
X173655000Y-107635000D02*
X183425000Y-107635000D01*
X173831000Y-107636000D02*
X176260000Y-107636000D01*
X173831000Y-109155000D02*
X173831000Y-107636000D01*
X173831000Y-109155000D02*
X176260000Y-109155000D01*
X175045000Y-109155000D02*
X175045000Y-108396000D01*
X176260000Y-109155000D02*
X176260000Y-107636000D01*
X183425000Y-107635000D02*
X183425000Y-97365000D01*
%TO.C,L2*%
X112700000Y-81700000D02*
X115700000Y-81700000D01*
X112700000Y-94300000D02*
X112700000Y-81700000D01*
X115700000Y-94300000D02*
X112700000Y-94300000D01*
X122300000Y-81700000D02*
X125300000Y-81700000D01*
X125300000Y-81700000D02*
X125300000Y-94300000D01*
X125300000Y-94300000D02*
X122300000Y-94300000D01*
%TO.C,R5*%
X182272936Y-94265000D02*
X182727064Y-94265000D01*
X182272936Y-95735000D02*
X182727064Y-95735000D01*
%TO.C,C2*%
X192590000Y-103648752D02*
X192590000Y-102226248D01*
X194410000Y-103648752D02*
X194410000Y-102226248D01*
%TO.C,C1*%
X185090000Y-102226248D02*
X185090000Y-103648752D01*
X186910000Y-102226248D02*
X186910000Y-103648752D01*
%TO.C,U7*%
X127025000Y-89385000D02*
X127025000Y-90750000D01*
X127025000Y-90750000D02*
X127975000Y-90750000D01*
X137425000Y-89385000D02*
X137425000Y-90750000D01*
X137425000Y-90750000D02*
X136475000Y-90750000D01*
X128015000Y-93575000D02*
X127545000Y-93915000D01*
X127545000Y-93235000D01*
X128015000Y-93575000D01*
G36*
X128015000Y-93575000D02*
G01*
X127545000Y-93915000D01*
X127545000Y-93235000D01*
X128015000Y-93575000D01*
G37*
%TO.C,D1*%
X187850000Y-109010000D02*
X187850000Y-103500000D01*
X187850000Y-109010000D02*
X191150000Y-109010000D01*
X191150000Y-109010000D02*
X191150000Y-103500000D01*
%TO.C,L1*%
X185850000Y-89000000D02*
X188180000Y-89000000D01*
X185850000Y-91330000D02*
X185850000Y-89000000D01*
X186230000Y-89380000D02*
X186230000Y-91650000D01*
X186230000Y-89380000D02*
X193470000Y-89380000D01*
X186230000Y-94350000D02*
X186230000Y-96620000D01*
X186230000Y-96620000D02*
X193470000Y-96620000D01*
X193470000Y-89380000D02*
X193470000Y-91650000D01*
X193470000Y-94350000D02*
X193470000Y-96620000D01*
%TO.C,J5*%
X140340000Y-102990000D02*
X140340000Y-108960000D01*
X140340000Y-108960000D02*
X147960000Y-108960000D01*
X140350000Y-106700000D02*
X141100000Y-106700000D01*
X140350000Y-108200000D02*
X140350000Y-108950000D01*
X140350000Y-108950000D02*
X142150000Y-108950000D01*
X141100000Y-103750000D02*
X144150000Y-103750000D01*
X141100000Y-106700000D02*
X141100000Y-103750000D01*
X142150000Y-108200000D02*
X140350000Y-108200000D01*
X142150000Y-108950000D02*
X142150000Y-108200000D01*
X143650000Y-108200000D02*
X143650000Y-108950000D01*
X143650000Y-108950000D02*
X144650000Y-108950000D01*
X144150000Y-103750000D02*
X146140000Y-103750000D01*
X144650000Y-108200000D02*
X143650000Y-108200000D01*
X144650000Y-108950000D02*
X144650000Y-108200000D01*
X146150000Y-108200000D02*
X146150000Y-108950000D01*
X146150000Y-108950000D02*
X147950000Y-108950000D01*
X147000000Y-109250000D02*
X148250000Y-109250000D01*
X147200000Y-106700000D02*
X147200000Y-105360000D01*
X147950000Y-106700000D02*
X147200000Y-106700000D01*
X147950000Y-108200000D02*
X146150000Y-108200000D01*
X147950000Y-108950000D02*
X147950000Y-108200000D01*
X147960000Y-102990000D02*
X140340000Y-102990000D01*
X147960000Y-108960000D02*
X147960000Y-102990000D01*
X148250000Y-109250000D02*
X148250000Y-108000000D01*
%TO.C,C3*%
X116740000Y-98764437D02*
X116740000Y-106420000D01*
X116740000Y-106420000D02*
X119590000Y-106420000D01*
X117804437Y-97700000D02*
X116740000Y-98764437D01*
X117804437Y-97700000D02*
X119590000Y-97700000D01*
X123610000Y-96460000D02*
X123610000Y-97460000D01*
X124110000Y-96960000D02*
X123110000Y-96960000D01*
X124395563Y-97700000D02*
X122610000Y-97700000D01*
X124395563Y-97700000D02*
X125460000Y-98764437D01*
X125460000Y-98764437D02*
X125460000Y-106420000D01*
X125460000Y-106420000D02*
X122610000Y-106420000D01*
%TO.C,J2*%
X142320000Y-73170000D02*
X142320000Y-75830000D01*
X155080000Y-73170000D02*
X142320000Y-73170000D01*
X155080000Y-73170000D02*
X155080000Y-75830000D01*
X155080000Y-75830000D02*
X142320000Y-75830000D01*
X156350000Y-73170000D02*
X157680000Y-73170000D01*
X157680000Y-73170000D02*
X157680000Y-74500000D01*
D12*
%TO.C,U1*%
X160015000Y-71850000D02*
X160015000Y-71550000D01*
X160015000Y-94250000D02*
X160015000Y-91900000D01*
X164515000Y-70250000D02*
X164515000Y-71550000D01*
X164515000Y-71550000D02*
X160015000Y-71550000D01*
X173515000Y-70250000D02*
X164515000Y-70250000D01*
X173515000Y-70250000D02*
X173515000Y-71550000D01*
X178015000Y-71550000D02*
X173515000Y-71550000D01*
X178015000Y-71850000D02*
X178015000Y-71550000D01*
X178015000Y-94250000D02*
X160015000Y-94250000D01*
X178015000Y-94250000D02*
X178015000Y-91900000D01*
%TD*%
M02*
