%TF.GenerationSoftware,KiCad,Pcbnew,9.0.0+1*%
%TF.CreationDate,2025-04-07T23:30:09+02:00*%
%TF.ProjectId,WikiSumo_v25,57696b69-5375-46d6-9f5f-7632352e6b69,rev?*%
%TF.SameCoordinates,Original*%
%TF.FileFunction,Soldermask,Top*%
%TF.FilePolarity,Negative*%
%FSLAX46Y46*%
G04 Gerber Fmt 4.6, Leading zero omitted, Abs format (unit mm)*
G04 Created by KiCad (PCBNEW 9.0.0+1) date 2025-04-07 23:30:09*
%MOMM*%
%LPD*%
G01*
G04 APERTURE LIST*
G04 Aperture macros list*
%AMRoundRect*
0 Rectangle with rounded corners*
0 $1 Rounding radius*
0 $2 $3 $4 $5 $6 $7 $8 $9 X,Y pos of 4 corners*
0 Add a 4 corners polygon primitive as box body*
4,1,4,$2,$3,$4,$5,$6,$7,$8,$9,$2,$3,0*
0 Add four circle primitives for the rounded corners*
1,1,$1+$1,$2,$3*
1,1,$1+$1,$4,$5*
1,1,$1+$1,$6,$7*
1,1,$1+$1,$8,$9*
0 Add four rect primitives between the rounded corners*
20,1,$1+$1,$2,$3,$4,$5,0*
20,1,$1+$1,$4,$5,$6,$7,0*
20,1,$1+$1,$6,$7,$8,$9,0*
20,1,$1+$1,$8,$9,$2,$3,0*%
%AMHorizOval*
0 Thick line with rounded ends*
0 $1 width*
0 $2 $3 position (X,Y) of the first rounded end (center of the circle)*
0 $4 $5 position (X,Y) of the second rounded end (center of the circle)*
0 Add line between two ends*
20,1,$1,$2,$3,$4,$5,0*
0 Add two circle primitives to create the rounded ends*
1,1,$1,$2,$3*
1,1,$1,$4,$5*%
%AMRotRect*
0 Rectangle, with rotation*
0 The origin of the aperture is its center*
0 $1 length*
0 $2 width*
0 $3 Rotation angle, in degrees counterclockwise*
0 Add horizontal line*
21,1,$1,$2,0,0,$3*%
G04 Aperture macros list end*
%ADD10RoundRect,0.760000X-1.140000X-1.140000X1.140000X-1.140000X1.140000X1.140000X-1.140000X1.140000X0*%
%ADD11C,4.000000*%
%ADD12RotRect,1.700000X1.700000X230.000000*%
%ADD13HorizOval,1.700000X0.000000X0.000000X0.000000X0.000000X0*%
%ADD14RoundRect,0.250001X0.499999X0.924999X-0.499999X0.924999X-0.499999X-0.924999X0.499999X-0.924999X0*%
%ADD15RoundRect,0.155000X-0.212500X-0.155000X0.212500X-0.155000X0.212500X0.155000X-0.212500X0.155000X0*%
%ADD16R,1.750000X0.450000*%
%ADD17C,1.440000*%
%ADD18RoundRect,0.250000X-0.525000X-0.250000X0.525000X-0.250000X0.525000X0.250000X-0.525000X0.250000X0*%
%ADD19RoundRect,0.250000X-1.000000X1.950000X-1.000000X-1.950000X1.000000X-1.950000X1.000000X1.950000X0*%
%ADD20RoundRect,0.150000X0.512500X0.150000X-0.512500X0.150000X-0.512500X-0.150000X0.512500X-0.150000X0*%
%ADD21C,1.200000*%
%ADD22RoundRect,0.250000X0.600000X0.750000X-0.600000X0.750000X-0.600000X-0.750000X0.600000X-0.750000X0*%
%ADD23O,1.700000X2.000000*%
%ADD24RoundRect,0.250000X0.350000X0.450000X-0.350000X0.450000X-0.350000X-0.450000X0.350000X-0.450000X0*%
%ADD25RotRect,1.700000X1.700000X310.000000*%
%ADD26HorizOval,1.700000X0.000000X0.000000X0.000000X0.000000X0*%
%ADD27RoundRect,0.155000X0.212500X0.155000X-0.212500X0.155000X-0.212500X-0.155000X0.212500X-0.155000X0*%
%ADD28RoundRect,0.250000X-0.650000X1.000000X-0.650000X-1.000000X0.650000X-1.000000X0.650000X1.000000X0*%
%ADD29R,5.400000X2.900000*%
%ADD30RoundRect,0.250000X-0.350000X-0.450000X0.350000X-0.450000X0.350000X0.450000X-0.350000X0.450000X0*%
%ADD31RoundRect,0.250000X0.650000X-0.412500X0.650000X0.412500X-0.650000X0.412500X-0.650000X-0.412500X0*%
%ADD32RoundRect,0.250000X-0.650000X0.412500X-0.650000X-0.412500X0.650000X-0.412500X0.650000X0.412500X0*%
%ADD33RoundRect,0.250000X0.300000X-2.050000X0.300000X2.050000X-0.300000X2.050000X-0.300000X-2.050000X0*%
%ADD34RoundRect,0.250002X5.149998X-4.449998X5.149998X4.449998X-5.149998X4.449998X-5.149998X-4.449998X0*%
%ADD35RoundRect,0.250000X0.650000X-1.000000X0.650000X1.000000X-0.650000X1.000000X-0.650000X-1.000000X0*%
%ADD36RoundRect,0.375000X-0.375000X-0.725000X0.375000X-0.725000X0.375000X0.725000X-0.375000X0.725000X0*%
%ADD37R,1.700000X1.700000*%
%ADD38O,1.700000X1.700000*%
%ADD39RoundRect,0.102000X-1.512500X-0.762000X1.512500X-0.762000X1.512500X0.762000X-1.512500X0.762000X0*%
G04 APERTURE END LIST*
D10*
%TO.C,J4*%
X147000000Y-94500000D03*
D11*
X152000000Y-94500000D03*
%TD*%
D12*
%TO.C,J3*%
X192000000Y-81163403D03*
D13*
X190054247Y-79530722D03*
X188108494Y-77898042D03*
X186162741Y-76265361D03*
X184216988Y-74632681D03*
X182271235Y-73000000D03*
%TD*%
D14*
%TO.C,C7*%
X167725000Y-97325000D03*
X164475000Y-97325000D03*
%TD*%
D15*
%TO.C,C5*%
X170365000Y-96000000D03*
X171500000Y-96000000D03*
%TD*%
D16*
%TO.C,U8*%
X163000000Y-100250000D03*
X163000000Y-100900000D03*
X163000000Y-101550000D03*
X163000000Y-102200000D03*
X163000000Y-102850000D03*
X163000000Y-103500000D03*
X163000000Y-104150000D03*
X163000000Y-104800000D03*
X163000000Y-105450000D03*
X163000000Y-106100000D03*
X163000000Y-106750000D03*
X163000000Y-107400000D03*
X170200000Y-107400000D03*
X170200000Y-106750000D03*
X170200000Y-106100000D03*
X170200000Y-105450000D03*
X170200000Y-104800000D03*
X170200000Y-104150000D03*
X170200000Y-103500000D03*
X170200000Y-102850000D03*
X170200000Y-102200000D03*
X170200000Y-101550000D03*
X170200000Y-100900000D03*
X170200000Y-100250000D03*
%TD*%
D17*
%TO.C,RV2*%
X135250000Y-101420000D03*
X135250000Y-103960000D03*
X135250000Y-106500000D03*
%TD*%
D18*
%TO.C,SW1*%
X126250000Y-73300000D03*
X131500000Y-73300000D03*
X126250000Y-76500000D03*
X131500000Y-76500000D03*
%TD*%
D19*
%TO.C,C4*%
X111050000Y-98360000D03*
X111050000Y-105760000D03*
%TD*%
D20*
%TO.C,U6*%
X191000000Y-100400000D03*
X191000000Y-99450000D03*
X191000000Y-98500000D03*
X188725000Y-98500000D03*
X188725000Y-99450000D03*
X188725000Y-100400000D03*
%TD*%
D21*
%TO.C,J6*%
X157100000Y-104500000D03*
D22*
X155500000Y-106500000D03*
D23*
X153000000Y-106500000D03*
%TD*%
D24*
%TO.C,R6*%
X130500000Y-100000000D03*
X128500000Y-100000000D03*
%TD*%
D25*
%TO.C,J1*%
X117728764Y-73000000D03*
D26*
X115783011Y-74632681D03*
X113837258Y-76265361D03*
X111891505Y-77898042D03*
X109945752Y-79530722D03*
X108000000Y-81163403D03*
%TD*%
D27*
%TO.C,C6*%
X171500000Y-98000000D03*
X170365000Y-98000000D03*
%TD*%
D28*
%TO.C,D2*%
X129750000Y-103500000D03*
X129750000Y-107500000D03*
%TD*%
D17*
%TO.C,RV1*%
X176000000Y-102500000D03*
X178540000Y-105040000D03*
X181080000Y-102500000D03*
%TD*%
D29*
%TO.C,L2*%
X119000000Y-83050000D03*
X119000000Y-92950000D03*
%TD*%
D30*
%TO.C,R5*%
X181500000Y-95000000D03*
X183500000Y-95000000D03*
%TD*%
D31*
%TO.C,C2*%
X193500000Y-104500000D03*
X193500000Y-101375000D03*
%TD*%
D32*
%TO.C,C1*%
X186000000Y-101375000D03*
X186000000Y-104500000D03*
%TD*%
D33*
%TO.C,U7*%
X128825000Y-93575000D03*
X130525000Y-93575000D03*
X132225000Y-93575000D03*
D34*
X132225000Y-84425000D03*
D33*
X133925000Y-93575000D03*
X135625000Y-93575000D03*
%TD*%
D35*
%TO.C,D1*%
X189500000Y-107500000D03*
X189500000Y-103500000D03*
%TD*%
D36*
%TO.C,L1*%
X186700000Y-93000000D03*
X193000000Y-93000000D03*
%TD*%
D21*
%TO.C,J5*%
X147000000Y-104500000D03*
D22*
X145400000Y-106500000D03*
D23*
X142900000Y-106500000D03*
%TD*%
D19*
%TO.C,C3*%
X121100000Y-98360000D03*
X121100000Y-105760000D03*
%TD*%
D37*
%TO.C,J2*%
X156350000Y-74500000D03*
D38*
X153810000Y-74500000D03*
X151270000Y-74500000D03*
X148730000Y-74500000D03*
X146190000Y-74500000D03*
X143650000Y-74500000D03*
%TD*%
D39*
%TO.C,U1*%
X177000000Y-90780000D03*
X177000000Y-88240000D03*
X177000000Y-85700000D03*
X177000000Y-83160000D03*
X177000000Y-78080000D03*
X177000000Y-80620000D03*
X161030000Y-73000000D03*
X177000000Y-73000000D03*
X161030000Y-75540000D03*
X161030000Y-78080000D03*
X161030000Y-80620000D03*
X161030000Y-83160000D03*
X161030000Y-85700000D03*
X161030000Y-88240000D03*
X161030000Y-90780000D03*
X177000000Y-75540000D03*
%TD*%
M02*
