%TF.GenerationSoftware,KiCad,Pcbnew,9.0.0+1*%
%TF.CreationDate,2025-04-07T23:30:06+02:00*%
%TF.ProjectId,WikiSumo_v25,57696b69-5375-46d6-9f5f-7632352e6b69,rev?*%
%TF.SameCoordinates,Original*%
%TF.FileFunction,Legend,Bot*%
%TF.FilePolarity,Positive*%
%FSLAX46Y46*%
G04 Gerber Fmt 4.6, Leading zero omitted, Abs format (unit mm)*
G04 Created by KiCad (PCBNEW 9.0.0+1) date 2025-04-07 23:30:06*
%MOMM*%
%LPD*%
G01*
G04 APERTURE LIST*
%ADD10C,0.150000*%
%ADD11C,0.120000*%
G04 APERTURE END LIST*
D10*
X110395796Y-73504819D02*
X110729129Y-73028628D01*
X110967224Y-73504819D02*
X110967224Y-72504819D01*
X110967224Y-72504819D02*
X110586272Y-72504819D01*
X110586272Y-72504819D02*
X110491034Y-72552438D01*
X110491034Y-72552438D02*
X110443415Y-72600057D01*
X110443415Y-72600057D02*
X110395796Y-72695295D01*
X110395796Y-72695295D02*
X110395796Y-72838152D01*
X110395796Y-72838152D02*
X110443415Y-72933390D01*
X110443415Y-72933390D02*
X110491034Y-72981009D01*
X110491034Y-72981009D02*
X110586272Y-73028628D01*
X110586272Y-73028628D02*
X110967224Y-73028628D01*
X109443415Y-73504819D02*
X110014843Y-73504819D01*
X109729129Y-73504819D02*
X109729129Y-72504819D01*
X109729129Y-72504819D02*
X109824367Y-72647676D01*
X109824367Y-72647676D02*
X109919605Y-72742914D01*
X109919605Y-72742914D02*
X110014843Y-72790533D01*
X110751449Y-72738095D02*
X111560972Y-72738095D01*
X111560972Y-72738095D02*
X111656210Y-72785714D01*
X111656210Y-72785714D02*
X111703830Y-72833333D01*
X111703830Y-72833333D02*
X111751449Y-72928571D01*
X111751449Y-72928571D02*
X111751449Y-73119047D01*
X111751449Y-73119047D02*
X111703830Y-73214285D01*
X111703830Y-73214285D02*
X111656210Y-73261904D01*
X111656210Y-73261904D02*
X111560972Y-73309523D01*
X111560972Y-73309523D02*
X110751449Y-73309523D01*
X110751449Y-73690476D02*
X110751449Y-74309523D01*
X110751449Y-74309523D02*
X111132401Y-73976190D01*
X111132401Y-73976190D02*
X111132401Y-74119047D01*
X111132401Y-74119047D02*
X111180020Y-74214285D01*
X111180020Y-74214285D02*
X111227639Y-74261904D01*
X111227639Y-74261904D02*
X111322877Y-74309523D01*
X111322877Y-74309523D02*
X111560972Y-74309523D01*
X111560972Y-74309523D02*
X111656210Y-74261904D01*
X111656210Y-74261904D02*
X111703830Y-74214285D01*
X111703830Y-74214285D02*
X111751449Y-74119047D01*
X111751449Y-74119047D02*
X111751449Y-73833333D01*
X111751449Y-73833333D02*
X111703830Y-73738095D01*
X111703830Y-73738095D02*
X111656210Y-73690476D01*
X110395796Y-73904819D02*
X110729129Y-73428628D01*
X110967224Y-73904819D02*
X110967224Y-72904819D01*
X110967224Y-72904819D02*
X110586272Y-72904819D01*
X110586272Y-72904819D02*
X110491034Y-72952438D01*
X110491034Y-72952438D02*
X110443415Y-73000057D01*
X110443415Y-73000057D02*
X110395796Y-73095295D01*
X110395796Y-73095295D02*
X110395796Y-73238152D01*
X110395796Y-73238152D02*
X110443415Y-73333390D01*
X110443415Y-73333390D02*
X110491034Y-73381009D01*
X110491034Y-73381009D02*
X110586272Y-73428628D01*
X110586272Y-73428628D02*
X110967224Y-73428628D01*
X110014843Y-73000057D02*
X109967224Y-72952438D01*
X109967224Y-72952438D02*
X109871986Y-72904819D01*
X109871986Y-72904819D02*
X109633891Y-72904819D01*
X109633891Y-72904819D02*
X109538653Y-72952438D01*
X109538653Y-72952438D02*
X109491034Y-73000057D01*
X109491034Y-73000057D02*
X109443415Y-73095295D01*
X109443415Y-73095295D02*
X109443415Y-73190533D01*
X109443415Y-73190533D02*
X109491034Y-73333390D01*
X109491034Y-73333390D02*
X110062462Y-73904819D01*
X110062462Y-73904819D02*
X109443415Y-73904819D01*
X189099166Y-72404819D02*
X189432499Y-71928628D01*
X189670594Y-72404819D02*
X189670594Y-71404819D01*
X189670594Y-71404819D02*
X189289642Y-71404819D01*
X189289642Y-71404819D02*
X189194404Y-71452438D01*
X189194404Y-71452438D02*
X189146785Y-71500057D01*
X189146785Y-71500057D02*
X189099166Y-71595295D01*
X189099166Y-71595295D02*
X189099166Y-71738152D01*
X189099166Y-71738152D02*
X189146785Y-71833390D01*
X189146785Y-71833390D02*
X189194404Y-71881009D01*
X189194404Y-71881009D02*
X189289642Y-71928628D01*
X189289642Y-71928628D02*
X189670594Y-71928628D01*
X188765832Y-71404819D02*
X188146785Y-71404819D01*
X188146785Y-71404819D02*
X188480118Y-71785771D01*
X188480118Y-71785771D02*
X188337261Y-71785771D01*
X188337261Y-71785771D02*
X188242023Y-71833390D01*
X188242023Y-71833390D02*
X188194404Y-71881009D01*
X188194404Y-71881009D02*
X188146785Y-71976247D01*
X188146785Y-71976247D02*
X188146785Y-72214342D01*
X188146785Y-72214342D02*
X188194404Y-72309580D01*
X188194404Y-72309580D02*
X188242023Y-72357200D01*
X188242023Y-72357200D02*
X188337261Y-72404819D01*
X188337261Y-72404819D02*
X188622975Y-72404819D01*
X188622975Y-72404819D02*
X188718213Y-72357200D01*
X188718213Y-72357200D02*
X188765832Y-72309580D01*
X196589819Y-70738095D02*
X197399342Y-70738095D01*
X197399342Y-70738095D02*
X197494580Y-70785714D01*
X197494580Y-70785714D02*
X197542200Y-70833333D01*
X197542200Y-70833333D02*
X197589819Y-70928571D01*
X197589819Y-70928571D02*
X197589819Y-71119047D01*
X197589819Y-71119047D02*
X197542200Y-71214285D01*
X197542200Y-71214285D02*
X197494580Y-71261904D01*
X197494580Y-71261904D02*
X197399342Y-71309523D01*
X197399342Y-71309523D02*
X196589819Y-71309523D01*
X196923152Y-72214285D02*
X197589819Y-72214285D01*
X196542200Y-71976190D02*
X197256485Y-71738095D01*
X197256485Y-71738095D02*
X197256485Y-72357142D01*
X189099166Y-76254819D02*
X189432499Y-75778628D01*
X189670594Y-76254819D02*
X189670594Y-75254819D01*
X189670594Y-75254819D02*
X189289642Y-75254819D01*
X189289642Y-75254819D02*
X189194404Y-75302438D01*
X189194404Y-75302438D02*
X189146785Y-75350057D01*
X189146785Y-75350057D02*
X189099166Y-75445295D01*
X189099166Y-75445295D02*
X189099166Y-75588152D01*
X189099166Y-75588152D02*
X189146785Y-75683390D01*
X189146785Y-75683390D02*
X189194404Y-75731009D01*
X189194404Y-75731009D02*
X189289642Y-75778628D01*
X189289642Y-75778628D02*
X189670594Y-75778628D01*
X188242023Y-75588152D02*
X188242023Y-76254819D01*
X188480118Y-75207200D02*
X188718213Y-75921485D01*
X188718213Y-75921485D02*
X188099166Y-75921485D01*
D11*
%TO.C,U3*%
X105300000Y-74900000D02*
X105300000Y-72100000D01*
X108700000Y-74900000D02*
X108700000Y-71830000D01*
X108890000Y-71270000D02*
X108610000Y-71270000D01*
X108610000Y-70990000D01*
X108890000Y-71270000D01*
G36*
X108890000Y-71270000D02*
G01*
X108610000Y-71270000D01*
X108610000Y-70990000D01*
X108890000Y-71270000D01*
G37*
%TO.C,U4*%
X191300000Y-74900000D02*
X191300000Y-72100000D01*
X194700000Y-74900000D02*
X194700000Y-71830000D01*
X194890000Y-71270000D02*
X194610000Y-71270000D01*
X194610000Y-70990000D01*
X194890000Y-71270000D01*
G36*
X194890000Y-71270000D02*
G01*
X194610000Y-71270000D01*
X194610000Y-70990000D01*
X194890000Y-71270000D01*
G37*
%TD*%
M02*
