%TF.GenerationSoftware,KiCad,Pcbnew,9.0.1+1*%
%TF.CreationDate,2025-05-17T11:18:49+02:00*%
%TF.ProjectId,WikiSumo_v25,57696b69-5375-46d6-9f5f-7632352e6b69,rev?*%
%TF.SameCoordinates,Original*%
%TF.FileFunction,Legend,Bot*%
%TF.FilePolarity,Positive*%
%FSLAX46Y46*%
G04 Gerber Fmt 4.6, Leading zero omitted, Abs format (unit mm)*
G04 Created by KiCad (PCBNEW 9.0.1+1) date 2025-05-17 11:18:49*
%MOMM*%
%LPD*%
G01*
G04 APERTURE LIST*
%ADD10C,0.120000*%
G04 APERTURE END LIST*
D10*
%TO.C,R1*%
X111002936Y-70975000D02*
X111457064Y-70975000D01*
X111002936Y-72445000D02*
X111457064Y-72445000D01*
%TO.C,U3*%
X105300000Y-74900000D02*
X105300000Y-72100000D01*
X108700000Y-74900000D02*
X108700000Y-71830000D01*
X108890000Y-71270000D02*
X108610000Y-71270000D01*
X108610000Y-70990000D01*
X108890000Y-71270000D01*
G36*
X108890000Y-71270000D02*
G01*
X108610000Y-71270000D01*
X108610000Y-70990000D01*
X108890000Y-71270000D01*
G37*
%TO.C,R2*%
X111367064Y-73605000D02*
X110912936Y-73605000D01*
X111367064Y-75075000D02*
X110912936Y-75075000D01*
%TO.C,R3*%
X188647064Y-71425000D02*
X188192936Y-71425000D01*
X188647064Y-72895000D02*
X188192936Y-72895000D01*
%TO.C,U4*%
X191300000Y-74900000D02*
X191300000Y-72100000D01*
X194700000Y-74900000D02*
X194700000Y-71830000D01*
X194890000Y-71270000D02*
X194610000Y-71270000D01*
X194610000Y-70990000D01*
X194890000Y-71270000D01*
G36*
X194890000Y-71270000D02*
G01*
X194610000Y-71270000D01*
X194610000Y-70990000D01*
X194890000Y-71270000D01*
G37*
%TO.C,R4*%
X188162936Y-73685000D02*
X188617064Y-73685000D01*
X188162936Y-75155000D02*
X188617064Y-75155000D01*
%TD*%
M02*
