M48
; DRILL file {KiCad 9.0.1+1} date 2025-05-17T11:18:38+0200
; FORMAT={-:-/ absolute / metric / decimal}
; #@! TF.CreationDate,2025-05-17T11:18:38+02:00
; #@! TF.GenerationSoftware,Kicad,Pcbnew,9.0.1+1
; #@! TF.FileFunction,Plated,1,2,PTH
FMAT,2
METRIC
; #@! TA.AperFunction,Plated,PTH,ViaDrill
T1C0.300
; #@! TA.AperFunction,Plated,PTH,ComponentDrill
T2C0.330
; #@! TA.AperFunction,Plated,PTH,ComponentDrill
T3C0.750
; #@! TA.AperFunction,Plated,PTH,ComponentDrill
T4C0.800
; #@! TA.AperFunction,Plated,PTH,ComponentDrill
T5C1.000
; #@! TA.AperFunction,Plated,PTH,ViaDrill
T6C3.100
%
G90
G05
T1
X107.26Y-77.44
X107.28Y-78.4
X108.0Y-90.5
X108.0Y-91.5
X108.0Y-92.5
X108.22Y-77.45
X108.961Y-92.5
X109.0Y-90.5
X109.0Y-91.5
X109.5Y-73.0
X110.0Y-90.5
X110.0Y-91.5
X110.0Y-92.5
X110.5Y-73.0
X113.73Y-71.05
X113.73Y-72.05
X114.73Y-71.05
X114.73Y-72.05
X115.73Y-71.05
X115.73Y-72.05
X116.97Y-77.92
X117.0Y-79.0
X118.5Y-79.0
X118.52Y-77.94
X123.79Y-77.98
X123.79Y-78.98
X124.39Y-107.27
X124.39Y-108.27
X124.79Y-77.98
X124.79Y-78.98
X125.0Y-96.5
X125.39Y-107.27
X125.39Y-108.27
X125.46Y-74.53
X125.79Y-77.98
X125.79Y-78.98
X126.0Y-97.5
X126.39Y-107.27
X126.39Y-108.27
X127.03Y-74.59
X132.0Y-102.5
X132.0Y-104.5
X133.3Y-76.845
X133.5Y-102.5
X133.94Y-74.499
X134.16Y-76.845
X135.37Y-74.49
X136.44Y-76.94
X137.71Y-76.99
X138.36Y-92.24
X138.36Y-93.24
X138.7Y-101.93
X138.7Y-102.93
X138.7Y-103.93
X139.06Y-74.06
X139.36Y-92.24
X139.36Y-93.24
X139.7Y-101.93
X139.7Y-102.93
X139.7Y-103.93
X139.86Y-74.05
X140.36Y-92.24
X140.36Y-93.24
X141.0Y-83.5
X141.36Y-76.82
X141.39Y-77.61
X142.5Y-87.5
X142.54Y-76.82
X142.54Y-77.59
X143.5Y-83.5
X145.0Y-87.5
X146.0Y-83.5
X146.24Y-79.31
X147.03Y-92.78
X147.03Y-93.78
X147.5Y-87.5
X148.03Y-92.78
X148.03Y-93.78
X148.47Y-103.8
X148.47Y-104.8
X148.47Y-105.8
X149.03Y-92.78
X149.03Y-93.78
X149.47Y-103.8
X149.47Y-104.8
X149.47Y-105.8
X150.0Y-87.5
X152.38Y-83.5
X152.41Y-79.18
X152.44Y-80.09
X156.0Y-84.5
X156.5Y-87.0
X156.73Y-100.63
X157.5Y-78.5
X157.5Y-84.5
X157.73Y-100.63
X158.39Y-107.67
X158.44Y-97.98
X158.45Y-96.7
X158.67Y-75.54
X158.69Y-73.01
X158.73Y-100.63
X159.25Y-107.67
X160.07Y-107.69
X164.58Y-77.8
X164.58Y-78.8
X164.654Y-90.672
X165.58Y-77.8
X165.58Y-78.8
X166.58Y-77.8
X166.58Y-78.8
X167.02Y-74.64
X167.02Y-75.64
X168.02Y-74.64
X168.02Y-75.64
X168.38Y-87.64
X168.38Y-88.64
X169.02Y-74.64
X169.02Y-75.64
X169.38Y-87.64
X169.38Y-88.64
X169.55Y-107.83
X169.55Y-108.83
X169.68Y-100.65
X169.68Y-101.65
X169.83Y-82.63
X169.83Y-83.63
X169.86Y-80.17
X169.86Y-81.17
X170.02Y-74.64
X170.02Y-75.64
X170.38Y-87.64
X170.38Y-88.64
X170.55Y-107.83
X170.55Y-108.83
X170.68Y-100.65
X170.68Y-101.65
X170.83Y-82.63
X170.83Y-83.63
X170.86Y-80.17
X170.86Y-81.17
X171.55Y-107.83
X171.55Y-108.83
X171.68Y-100.65
X171.68Y-101.65
X171.83Y-82.63
X171.83Y-83.63
X171.86Y-80.17
X171.86Y-81.17
X174.17Y-98.07
X174.21Y-96.77
X174.85Y-99.96
X174.85Y-100.96
X175.85Y-99.96
X175.85Y-100.96
X176.85Y-99.96
X176.85Y-100.96
X179.46Y-76.05
X179.47Y-75.03
X179.56Y-83.17
X180.47Y-80.59
X181.98Y-107.91
X181.98Y-108.91
X182.23Y-77.93
X182.34Y-101.5
X182.97Y-102.25
X182.98Y-107.91
X182.98Y-108.91
X183.33Y-77.93
X183.68Y-102.84
X183.98Y-107.91
X183.98Y-108.91
X184.19Y-95.81
X184.19Y-100.38
X184.4Y-92.3
X184.41Y-93.09
X185.2Y-81.62
X185.25Y-93.08
X185.27Y-92.3
X185.83Y-82.7
X185.83Y-83.7
X185.84Y-80.21
X186.06Y-92.32
X186.06Y-93.08
X186.64Y-80.22
X186.83Y-82.7
X186.83Y-83.7
X187.47Y-80.23
X187.83Y-82.7
X187.83Y-83.7
X188.34Y-99.18
X188.34Y-100.18
X189.34Y-99.18
X189.34Y-100.18
X190.22Y-108.81
X190.34Y-99.18
X190.34Y-100.18
X191.0Y-71.0
X191.0Y-72.0
X191.24Y-108.78
X191.52Y-92.66
X191.52Y-93.66
X192.15Y-108.78
X192.52Y-92.66
X192.52Y-93.66
X193.14Y-77.0
X193.52Y-92.66
X193.52Y-93.66
X193.949Y-77.01
X193.96Y-77.77
T2
X153.145Y-96.045
X153.145Y-97.345
X153.145Y-98.645
X154.445Y-96.045
X154.445Y-97.345
X154.445Y-98.645
X168.725Y-96.105
X168.725Y-97.405
X168.725Y-98.705
X170.025Y-96.105
X170.025Y-97.405
X170.025Y-98.705
T3
X141.62Y-96.97
X142.7Y-105.95
X143.62Y-96.97
X144.7Y-105.95
X152.4Y-105.97
X154.4Y-105.97
T4
X135.25Y-101.42
X135.25Y-103.96
X135.25Y-106.5
X187.13Y-102.97
X189.67Y-105.51
X192.21Y-102.97
T5
X108.0Y-81.163
X109.946Y-79.531
X111.892Y-77.898
X113.837Y-76.265
X115.783Y-74.633
X117.729Y-73.0
X142.5Y-74.5
X145.04Y-74.5
X147.58Y-74.5
X150.12Y-74.5
X152.66Y-74.5
X155.2Y-74.5
X182.271Y-73.0
X184.217Y-74.633
X186.163Y-76.265
X188.108Y-77.898
X190.054Y-79.531
X192.0Y-81.163
T6
X108.0Y-86.5
M30
