%TF.GenerationSoftware,KiCad,Pcbnew,9.0.1+1*%
%TF.CreationDate,2025-05-17T11:18:49+02:00*%
%TF.ProjectId,WikiSumo_v25,57696b69-5375-46d6-9f5f-7632352e6b69,rev?*%
%TF.SameCoordinates,Original*%
%TF.FileFunction,Soldermask,Bot*%
%TF.FilePolarity,Negative*%
%FSLAX46Y46*%
G04 Gerber Fmt 4.6, Leading zero omitted, Abs format (unit mm)*
G04 Created by KiCad (PCBNEW 9.0.1+1) date 2025-05-17 11:18:49*
%MOMM*%
%LPD*%
G01*
G04 APERTURE LIST*
G04 Aperture macros list*
%AMRoundRect*
0 Rectangle with rounded corners*
0 $1 Rounding radius*
0 $2 $3 $4 $5 $6 $7 $8 $9 X,Y pos of 4 corners*
0 Add a 4 corners polygon primitive as box body*
4,1,4,$2,$3,$4,$5,$6,$7,$8,$9,$2,$3,0*
0 Add four circle primitives for the rounded corners*
1,1,$1+$1,$2,$3*
1,1,$1+$1,$4,$5*
1,1,$1+$1,$6,$7*
1,1,$1+$1,$8,$9*
0 Add four rect primitives between the rounded corners*
20,1,$1+$1,$2,$3,$4,$5,0*
20,1,$1+$1,$4,$5,$6,$7,0*
20,1,$1+$1,$6,$7,$8,$9,0*
20,1,$1+$1,$8,$9,$2,$3,0*%
%AMHorizOval*
0 Thick line with rounded ends*
0 $1 width*
0 $2 $3 position (X,Y) of the first rounded end (center of the circle)*
0 $4 $5 position (X,Y) of the second rounded end (center of the circle)*
0 Add line between two ends*
20,1,$1,$2,$3,$4,$5,0*
0 Add two circle primitives to create the rounded ends*
1,1,$1,$2,$3*
1,1,$1,$4,$5*%
%AMRotRect*
0 Rectangle, with rotation*
0 The origin of the aperture is its center*
0 $1 length*
0 $2 width*
0 $3 Rotation angle, in degrees counterclockwise*
0 Add horizontal line*
21,1,$1,$2,0,0,$3*%
G04 Aperture macros list end*
%ADD10RoundRect,0.250000X-0.350000X-0.625000X0.350000X-0.625000X0.350000X0.625000X-0.350000X0.625000X0*%
%ADD11O,1.200000X1.750000*%
%ADD12RotRect,1.700000X1.700000X230.000000*%
%ADD13HorizOval,1.700000X0.000000X0.000000X0.000000X0.000000X0*%
%ADD14C,1.440000*%
%ADD15RotRect,1.700000X1.700000X310.000000*%
%ADD16HorizOval,1.700000X0.000000X0.000000X0.000000X0.000000X0*%
%ADD17C,0.770000*%
%ADD18R,1.700000X1.700000*%
%ADD19O,1.700000X1.700000*%
%ADD20RoundRect,0.250000X-0.350000X-0.450000X0.350000X-0.450000X0.350000X0.450000X-0.350000X0.450000X0*%
%ADD21RoundRect,0.197500X0.197500X0.632500X-0.197500X0.632500X-0.197500X-0.632500X0.197500X-0.632500X0*%
%ADD22RoundRect,0.250000X0.350000X0.450000X-0.350000X0.450000X-0.350000X-0.450000X0.350000X-0.450000X0*%
%ADD23C,4.100000*%
G04 APERTURE END LIST*
D10*
%TO.C,J4*%
X141620000Y-96970000D03*
D11*
X143620000Y-96970000D03*
%TD*%
D12*
%TO.C,J3*%
X192000000Y-81163403D03*
D13*
X190054247Y-79530722D03*
X188108494Y-77898042D03*
X186162741Y-76265361D03*
X184216988Y-74632681D03*
X182271235Y-73000000D03*
%TD*%
D14*
%TO.C,RV2*%
X135250000Y-101420000D03*
X135250000Y-103960000D03*
X135250000Y-106500000D03*
%TD*%
D10*
%TO.C,J6*%
X152400000Y-105970000D03*
D11*
X154400000Y-105970000D03*
%TD*%
D15*
%TO.C,J1*%
X117728764Y-73000000D03*
D16*
X115783011Y-74632681D03*
X113837258Y-76265361D03*
X111891505Y-77898042D03*
X109945752Y-79530722D03*
X108000000Y-81163403D03*
%TD*%
D14*
%TO.C,RV1*%
X187130000Y-102970000D03*
X189670000Y-105510000D03*
X192210000Y-102970000D03*
%TD*%
D17*
%TO.C,U2*%
X154445000Y-98645000D03*
X154445000Y-97345000D03*
X154445000Y-96045000D03*
X153145000Y-98645000D03*
X153145000Y-97345000D03*
X153145000Y-96045000D03*
%TD*%
D10*
%TO.C,J5*%
X142700000Y-105950000D03*
D11*
X144700000Y-105950000D03*
%TD*%
D17*
%TO.C,U5*%
X170025000Y-98705000D03*
X170025000Y-97405000D03*
X170025000Y-96105000D03*
X168725000Y-98705000D03*
X168725000Y-97405000D03*
X168725000Y-96105000D03*
%TD*%
D18*
%TO.C,J2*%
X155200000Y-74500000D03*
D19*
X152660000Y-74500000D03*
X150120000Y-74500000D03*
X147580000Y-74500000D03*
X145040000Y-74500000D03*
X142500000Y-74500000D03*
%TD*%
D20*
%TO.C,R1*%
X110230000Y-71710000D03*
X112230000Y-71710000D03*
%TD*%
D21*
%TO.C,U3*%
X107900000Y-71500000D03*
X107900000Y-75500000D03*
X106100000Y-75500000D03*
X106100000Y-71500000D03*
%TD*%
D22*
%TO.C,R2*%
X112140000Y-74340000D03*
X110140000Y-74340000D03*
%TD*%
%TO.C,R3*%
X189420000Y-72160000D03*
X187420000Y-72160000D03*
%TD*%
D21*
%TO.C,U4*%
X193900000Y-71500000D03*
X193900000Y-75500000D03*
X192100000Y-75500000D03*
X192100000Y-71500000D03*
%TD*%
D20*
%TO.C,R4*%
X187390000Y-74420000D03*
X189390000Y-74420000D03*
%TD*%
D23*
X108000000Y-86500000D03*
M02*
