%TF.GenerationSoftware,KiCad,Pcbnew,9.0.1+1*%
%TF.CreationDate,2025-05-17T11:18:49+02:00*%
%TF.ProjectId,WikiSumo_v25,57696b69-5375-46d6-9f5f-7632352e6b69,rev?*%
%TF.SameCoordinates,Original*%
%TF.FileFunction,Soldermask,Top*%
%TF.FilePolarity,Negative*%
%FSLAX46Y46*%
G04 Gerber Fmt 4.6, Leading zero omitted, Abs format (unit mm)*
G04 Created by KiCad (PCBNEW 9.0.1+1) date 2025-05-17 11:18:49*
%MOMM*%
%LPD*%
G01*
G04 APERTURE LIST*
G04 Aperture macros list*
%AMRoundRect*
0 Rectangle with rounded corners*
0 $1 Rounding radius*
0 $2 $3 $4 $5 $6 $7 $8 $9 X,Y pos of 4 corners*
0 Add a 4 corners polygon primitive as box body*
4,1,4,$2,$3,$4,$5,$6,$7,$8,$9,$2,$3,0*
0 Add four circle primitives for the rounded corners*
1,1,$1+$1,$2,$3*
1,1,$1+$1,$4,$5*
1,1,$1+$1,$6,$7*
1,1,$1+$1,$8,$9*
0 Add four rect primitives between the rounded corners*
20,1,$1+$1,$2,$3,$4,$5,0*
20,1,$1+$1,$4,$5,$6,$7,0*
20,1,$1+$1,$6,$7,$8,$9,0*
20,1,$1+$1,$8,$9,$2,$3,0*%
%AMHorizOval*
0 Thick line with rounded ends*
0 $1 width*
0 $2 $3 position (X,Y) of the first rounded end (center of the circle)*
0 $4 $5 position (X,Y) of the second rounded end (center of the circle)*
0 Add line between two ends*
20,1,$1,$2,$3,$4,$5,0*
0 Add two circle primitives to create the rounded ends*
1,1,$1,$2,$3*
1,1,$1,$4,$5*%
%AMRotRect*
0 Rectangle, with rotation*
0 The origin of the aperture is its center*
0 $1 length*
0 $2 width*
0 $3 Rotation angle, in degrees counterclockwise*
0 Add horizontal line*
21,1,$1,$2,0,0,$3*%
G04 Aperture macros list end*
%ADD10RoundRect,0.250000X-0.350000X-0.625000X0.350000X-0.625000X0.350000X0.625000X-0.350000X0.625000X0*%
%ADD11O,1.200000X1.750000*%
%ADD12RoundRect,0.250000X-0.475000X0.337500X-0.475000X-0.337500X0.475000X-0.337500X0.475000X0.337500X0*%
%ADD13RotRect,1.700000X1.700000X230.000000*%
%ADD14HorizOval,1.700000X0.000000X0.000000X0.000000X0.000000X0*%
%ADD15RoundRect,0.250000X0.525000X0.250000X-0.525000X0.250000X-0.525000X-0.250000X0.525000X-0.250000X0*%
%ADD16C,1.440000*%
%ADD17RoundRect,0.250000X-0.350000X-0.450000X0.350000X-0.450000X0.350000X0.450000X-0.350000X0.450000X0*%
%ADD18RoundRect,0.250000X1.950000X1.000000X-1.950000X1.000000X-1.950000X-1.000000X1.950000X-1.000000X0*%
%ADD19RoundRect,0.250000X-1.000000X1.950000X-1.000000X-1.950000X1.000000X-1.950000X1.000000X1.950000X0*%
%ADD20RoundRect,0.250000X0.337500X0.475000X-0.337500X0.475000X-0.337500X-0.475000X0.337500X-0.475000X0*%
%ADD21RoundRect,0.150000X0.512500X0.150000X-0.512500X0.150000X-0.512500X-0.150000X0.512500X-0.150000X0*%
%ADD22RoundRect,0.250000X0.350000X0.450000X-0.350000X0.450000X-0.350000X-0.450000X0.350000X-0.450000X0*%
%ADD23RotRect,1.700000X1.700000X310.000000*%
%ADD24HorizOval,1.700000X0.000000X0.000000X0.000000X0.000000X0*%
%ADD25RoundRect,0.250000X-0.450000X0.350000X-0.450000X-0.350000X0.450000X-0.350000X0.450000X0.350000X0*%
%ADD26RoundRect,0.250000X-0.650000X1.000000X-0.650000X-1.000000X0.650000X-1.000000X0.650000X1.000000X0*%
%ADD27RoundRect,0.090000X-0.360000X0.660000X-0.360000X-0.660000X0.360000X-0.660000X0.360000X0.660000X0*%
%ADD28R,5.400000X2.900000*%
%ADD29RoundRect,0.250000X0.412500X0.650000X-0.412500X0.650000X-0.412500X-0.650000X0.412500X-0.650000X0*%
%ADD30RoundRect,0.250000X0.650000X-0.412500X0.650000X0.412500X-0.650000X0.412500X-0.650000X-0.412500X0*%
%ADD31RoundRect,0.250000X0.300000X-2.050000X0.300000X2.050000X-0.300000X2.050000X-0.300000X-2.050000X0*%
%ADD32RoundRect,0.250002X5.149998X-4.449998X5.149998X4.449998X-5.149998X4.449998X-5.149998X-4.449998X0*%
%ADD33RoundRect,0.250000X-1.000000X-0.650000X1.000000X-0.650000X1.000000X0.650000X-1.000000X0.650000X0*%
%ADD34RoundRect,0.250000X-1.000000X-1.350000X1.000000X-1.350000X1.000000X1.350000X-1.000000X1.350000X0*%
%ADD35R,2.400000X3.100000*%
%ADD36RoundRect,0.070000X1.100000X0.250000X-1.100000X0.250000X-1.100000X-0.250000X1.100000X-0.250000X0*%
%ADD37C,0.770000*%
%ADD38R,1.700000X1.700000*%
%ADD39O,1.700000X1.700000*%
%ADD40RoundRect,0.102000X-1.512500X-0.762000X1.512500X-0.762000X1.512500X0.762000X-1.512500X0.762000X0*%
%ADD41C,4.100000*%
G04 APERTURE END LIST*
D10*
%TO.C,J4*%
X141620000Y-96970000D03*
D11*
X143620000Y-96970000D03*
%TD*%
D12*
%TO.C,C13*%
X162430000Y-96092500D03*
X162430000Y-98167500D03*
%TD*%
%TO.C,C11*%
X147790000Y-95855000D03*
X147790000Y-97930000D03*
%TD*%
D13*
%TO.C,J3*%
X192000000Y-81163403D03*
D14*
X190054247Y-79530722D03*
X188108494Y-77898042D03*
X186162741Y-76265361D03*
X184216988Y-74632681D03*
X182271235Y-73000000D03*
%TD*%
D15*
%TO.C,SW2*%
X136450000Y-75780000D03*
X131200000Y-75780000D03*
X136450000Y-72580000D03*
X131200000Y-72580000D03*
%TD*%
D16*
%TO.C,RV2*%
X135250000Y-101420000D03*
X135250000Y-103960000D03*
X135250000Y-106500000D03*
%TD*%
D15*
%TO.C,SW1*%
X128150000Y-75790000D03*
X122900000Y-75790000D03*
X128150000Y-72590000D03*
X122900000Y-72590000D03*
%TD*%
D17*
%TO.C,R8*%
X135050000Y-78140000D03*
X137050000Y-78140000D03*
%TD*%
D18*
%TO.C,C14*%
X167880000Y-104960000D03*
X160480000Y-104960000D03*
%TD*%
D19*
%TO.C,C4*%
X111050000Y-98360000D03*
X111050000Y-105760000D03*
%TD*%
D20*
%TO.C,C9*%
X150537500Y-79110000D03*
X148462500Y-79110000D03*
%TD*%
D21*
%TO.C,U6*%
X182365000Y-94540000D03*
X182365000Y-93590000D03*
X182365000Y-92640000D03*
X180090000Y-92640000D03*
X180090000Y-93590000D03*
X180090000Y-94540000D03*
%TD*%
D10*
%TO.C,J6*%
X152400000Y-105970000D03*
D11*
X154400000Y-105970000D03*
%TD*%
D22*
%TO.C,R6*%
X130500000Y-100000000D03*
X128500000Y-100000000D03*
%TD*%
D23*
%TO.C,J1*%
X117728764Y-73000000D03*
D24*
X115783011Y-74632681D03*
X113837258Y-76265361D03*
X111891505Y-77898042D03*
X109945752Y-79530722D03*
X108000000Y-81163403D03*
%TD*%
D25*
%TO.C,R9*%
X159950000Y-96150000D03*
X159950000Y-98150000D03*
%TD*%
D26*
%TO.C,D2*%
X129750000Y-103500000D03*
X129750000Y-107500000D03*
%TD*%
D27*
%TO.C,D6*%
X144160000Y-81170000D03*
X140860000Y-81170000D03*
X140860000Y-86070000D03*
X144160000Y-86070000D03*
%TD*%
%TO.C,D4*%
X157400000Y-81170000D03*
X154100000Y-81170000D03*
X154100000Y-86070000D03*
X157400000Y-86070000D03*
%TD*%
D20*
%TO.C,C10*%
X144045000Y-79060000D03*
X141970000Y-79060000D03*
%TD*%
%TO.C,C8*%
X155957500Y-79020000D03*
X153882500Y-79020000D03*
%TD*%
D16*
%TO.C,RV1*%
X187130000Y-102970000D03*
X189670000Y-105510000D03*
X192210000Y-102970000D03*
%TD*%
D28*
%TO.C,L2*%
X119000000Y-92950000D03*
X119000000Y-83050000D03*
%TD*%
D25*
%TO.C,R10*%
X175800000Y-96230000D03*
X175800000Y-98230000D03*
%TD*%
D17*
%TO.C,R5*%
X186080000Y-96250000D03*
X188080000Y-96250000D03*
%TD*%
D27*
%TO.C,D5*%
X150780000Y-81170000D03*
X147480000Y-81170000D03*
X147480000Y-86070000D03*
X150780000Y-86070000D03*
%TD*%
D18*
%TO.C,C12*%
X181370000Y-104980000D03*
X173970000Y-104980000D03*
%TD*%
D29*
%TO.C,C2*%
X193360000Y-96200000D03*
X190235000Y-96200000D03*
%TD*%
D30*
%TO.C,C1*%
X181380000Y-90012500D03*
X181380000Y-86887500D03*
%TD*%
D31*
%TO.C,U7*%
X128825000Y-93575000D03*
X130525000Y-93575000D03*
X132225000Y-93575000D03*
D32*
X132225000Y-84425000D03*
D31*
X133925000Y-93575000D03*
X135625000Y-93575000D03*
%TD*%
D33*
%TO.C,D1*%
X178660000Y-97920000D03*
X182660000Y-97920000D03*
%TD*%
D34*
%TO.C,L1*%
X185090000Y-89462500D03*
X193190000Y-89462500D03*
%TD*%
D35*
%TO.C,U2*%
X153795000Y-97345000D03*
D36*
X156670000Y-99250000D03*
X156670000Y-97980000D03*
X156670000Y-96710000D03*
X156670000Y-95440000D03*
X150920000Y-95440000D03*
X150920000Y-96710000D03*
X150920000Y-97980000D03*
X150920000Y-99250000D03*
D37*
X154445000Y-98645000D03*
X154445000Y-97345000D03*
X154445000Y-96045000D03*
X153145000Y-98645000D03*
X153145000Y-97345000D03*
X153145000Y-96045000D03*
%TD*%
D10*
%TO.C,J5*%
X142700000Y-105950000D03*
D11*
X144700000Y-105950000D03*
%TD*%
D35*
%TO.C,U5*%
X169375000Y-97405000D03*
D36*
X172250000Y-99310000D03*
X172250000Y-98040000D03*
X172250000Y-96770000D03*
X172250000Y-95500000D03*
X166500000Y-95500000D03*
X166500000Y-96770000D03*
X166500000Y-98040000D03*
X166500000Y-99310000D03*
D37*
X170025000Y-98705000D03*
X170025000Y-97405000D03*
X170025000Y-96105000D03*
X168725000Y-98705000D03*
X168725000Y-97405000D03*
X168725000Y-96105000D03*
%TD*%
D19*
%TO.C,C3*%
X121100000Y-98360000D03*
X121100000Y-105760000D03*
%TD*%
D38*
%TO.C,J2*%
X155200000Y-74500000D03*
D39*
X152660000Y-74500000D03*
X150120000Y-74500000D03*
X147580000Y-74500000D03*
X145040000Y-74500000D03*
X142500000Y-74500000D03*
%TD*%
D40*
%TO.C,U1*%
X177000000Y-90780000D03*
X177000000Y-88240000D03*
X177000000Y-85700000D03*
X177000000Y-83160000D03*
X177000000Y-78080000D03*
X177000000Y-80620000D03*
X161030000Y-73000000D03*
X177000000Y-73000000D03*
X161030000Y-75540000D03*
X161030000Y-78080000D03*
X161030000Y-80620000D03*
X161030000Y-83160000D03*
X161030000Y-85700000D03*
X161030000Y-88240000D03*
X161030000Y-90780000D03*
X177000000Y-75540000D03*
%TD*%
D17*
%TO.C,R7*%
X130095000Y-78150000D03*
X132095000Y-78150000D03*
%TD*%
D41*
X108000000Y-86500000D03*
M02*
