%TF.GenerationSoftware,KiCad,Pcbnew,9.0.1+1*%
%TF.CreationDate,2025-05-17T11:18:49+02:00*%
%TF.ProjectId,WikiSumo_v25,57696b69-5375-46d6-9f5f-7632352e6b69,rev?*%
%TF.SameCoordinates,Original*%
%TF.FileFunction,Legend,Top*%
%TF.FilePolarity,Positive*%
%FSLAX46Y46*%
G04 Gerber Fmt 4.6, Leading zero omitted, Abs format (unit mm)*
G04 Created by KiCad (PCBNEW 9.0.1+1) date 2025-05-17 11:18:49*
%MOMM*%
%LPD*%
G01*
G04 APERTURE LIST*
%ADD10C,0.300000*%
%ADD11C,0.400000*%
%ADD12C,0.200000*%
%ADD13C,0.120000*%
%ADD14C,0.150000*%
%ADD15C,0.127000*%
G04 APERTURE END LIST*
D10*
X144604510Y-93739400D02*
X145747368Y-93739400D01*
X145175939Y-94310828D02*
X145175939Y-93167971D01*
D11*
G36*
X143061705Y-89395171D02*
G01*
X143190058Y-89523525D01*
X143265890Y-89826851D01*
X143265890Y-90444272D01*
X143190058Y-90747597D01*
X143061705Y-90875951D01*
X142942487Y-90935561D01*
X142655960Y-90935561D01*
X142536743Y-90875952D01*
X142408387Y-90747597D01*
X142332557Y-90444272D01*
X142332557Y-89826850D01*
X142408387Y-89523525D01*
X142536744Y-89395169D01*
X142655960Y-89335561D01*
X142942486Y-89335561D01*
X143061705Y-89395171D01*
G37*
G36*
X156459400Y-91557783D02*
G01*
X141710335Y-91557783D01*
X141710335Y-89802228D01*
X141932557Y-89802228D01*
X141932557Y-90468895D01*
X141933227Y-90475703D01*
X141932794Y-90478617D01*
X141934952Y-90493218D01*
X141936400Y-90507913D01*
X141937527Y-90510635D01*
X141938528Y-90517402D01*
X142033766Y-90898354D01*
X142046958Y-90935275D01*
X142055810Y-90947222D01*
X142061501Y-90960961D01*
X142086374Y-90991268D01*
X142276850Y-91181745D01*
X142292187Y-91194332D01*
X142295648Y-91198322D01*
X142301663Y-91202108D01*
X142307157Y-91206617D01*
X142312036Y-91208638D01*
X142328828Y-91219208D01*
X142519305Y-91314447D01*
X142555922Y-91328459D01*
X142563091Y-91328968D01*
X142569729Y-91331718D01*
X142608747Y-91335561D01*
X142989700Y-91335561D01*
X143028718Y-91331718D01*
X143035355Y-91328968D01*
X143042525Y-91328459D01*
X143079143Y-91314446D01*
X143269619Y-91219208D01*
X143286410Y-91208638D01*
X143291290Y-91206617D01*
X143296782Y-91202109D01*
X143302799Y-91198322D01*
X143306261Y-91194330D01*
X143321597Y-91181744D01*
X143512074Y-90991268D01*
X143536946Y-90960961D01*
X143542636Y-90947222D01*
X143551489Y-90935275D01*
X143564681Y-90898354D01*
X143659918Y-90517402D01*
X143660918Y-90510638D01*
X143662047Y-90507913D01*
X143663495Y-90493210D01*
X143665653Y-90478617D01*
X143665219Y-90475703D01*
X143665890Y-90468895D01*
X143665890Y-89802228D01*
X143665219Y-89795419D01*
X143665653Y-89792506D01*
X143663495Y-89777912D01*
X143662047Y-89763210D01*
X143660918Y-89760484D01*
X143659918Y-89753721D01*
X143564681Y-89372769D01*
X143551489Y-89335848D01*
X143542636Y-89323900D01*
X143536946Y-89310162D01*
X143512074Y-89279855D01*
X143367779Y-89135561D01*
X144123033Y-89135561D01*
X144123033Y-91135561D01*
X144125559Y-91161210D01*
X144125352Y-91165927D01*
X144126273Y-91168460D01*
X144126876Y-91174579D01*
X144140160Y-91206649D01*
X144152020Y-91239265D01*
X144155032Y-91242553D01*
X144156739Y-91246675D01*
X144181286Y-91271222D01*
X144204724Y-91296815D01*
X144208764Y-91298700D01*
X144211919Y-91301855D01*
X144243994Y-91315141D01*
X144275439Y-91329815D01*
X144279893Y-91330010D01*
X144284015Y-91331718D01*
X144318730Y-91331718D01*
X144353399Y-91333242D01*
X144357590Y-91331718D01*
X144362051Y-91331718D01*
X144394121Y-91318433D01*
X144426737Y-91306574D01*
X144430025Y-91303561D01*
X144434147Y-91301855D01*
X144458694Y-91277307D01*
X144484287Y-91253870D01*
X144487419Y-91248582D01*
X144489327Y-91246675D01*
X144491134Y-91242310D01*
X144504270Y-91220138D01*
X144989699Y-90179931D01*
X145475130Y-91220138D01*
X145488264Y-91242311D01*
X145490072Y-91246675D01*
X145491979Y-91248582D01*
X145495112Y-91253871D01*
X145520710Y-91277313D01*
X145545252Y-91301855D01*
X145549372Y-91303561D01*
X145552662Y-91306574D01*
X145585286Y-91318437D01*
X145617348Y-91331718D01*
X145621806Y-91331718D01*
X145626000Y-91333243D01*
X145660692Y-91331718D01*
X145695384Y-91331718D01*
X145699502Y-91330011D01*
X145703961Y-91329816D01*
X145735424Y-91315132D01*
X145767480Y-91301855D01*
X145770633Y-91298701D01*
X145774676Y-91296815D01*
X145798123Y-91271211D01*
X145822660Y-91246675D01*
X145824366Y-91242555D01*
X145827379Y-91239266D01*
X145839240Y-91206645D01*
X145852523Y-91174579D01*
X145853125Y-91168460D01*
X145854047Y-91165927D01*
X145853839Y-91161210D01*
X145856366Y-91135561D01*
X145856366Y-89516514D01*
X146408747Y-89516514D01*
X146408747Y-91135561D01*
X146412590Y-91174579D01*
X146442453Y-91246675D01*
X146497633Y-91301855D01*
X146569729Y-91331718D01*
X146647765Y-91331718D01*
X146719861Y-91301855D01*
X146775041Y-91246675D01*
X146804904Y-91174579D01*
X146808747Y-91135561D01*
X146808747Y-89563727D01*
X146868356Y-89444508D01*
X146917694Y-89395170D01*
X147036912Y-89335561D01*
X147323438Y-89335561D01*
X147442657Y-89395171D01*
X147491995Y-89444509D01*
X147551604Y-89563727D01*
X147551604Y-91135561D01*
X147555447Y-91174579D01*
X147585310Y-91246675D01*
X147640490Y-91301855D01*
X147712586Y-91331718D01*
X147790622Y-91331718D01*
X147862718Y-91301855D01*
X147917898Y-91246675D01*
X147947761Y-91174579D01*
X147951604Y-91135561D01*
X147951604Y-89516514D01*
X148408747Y-89516514D01*
X148408747Y-89706990D01*
X148412590Y-89746008D01*
X148415339Y-89752645D01*
X148415849Y-89759815D01*
X148429862Y-89796433D01*
X148525100Y-89986909D01*
X148535669Y-90003700D01*
X148537691Y-90008580D01*
X148542198Y-90014072D01*
X148545986Y-90020089D01*
X148549977Y-90023551D01*
X148562564Y-90038887D01*
X148657802Y-90134125D01*
X148673138Y-90146711D01*
X148676600Y-90150703D01*
X148682616Y-90154490D01*
X148688109Y-90158998D01*
X148692988Y-90161019D01*
X148709780Y-90171589D01*
X148900257Y-90266828D01*
X148903112Y-90267920D01*
X148904271Y-90268779D01*
X148920634Y-90274625D01*
X148936874Y-90280840D01*
X148938312Y-90280942D01*
X148941192Y-90281971D01*
X149300844Y-90371882D01*
X149442657Y-90442790D01*
X149491995Y-90492128D01*
X149551604Y-90611346D01*
X149551604Y-90707396D01*
X149491995Y-90826614D01*
X149442657Y-90875951D01*
X149323439Y-90935561D01*
X148926918Y-90935561D01*
X148671993Y-90850586D01*
X148633762Y-90841894D01*
X148555922Y-90847425D01*
X148486124Y-90882324D01*
X148434995Y-90941277D01*
X148410318Y-91015308D01*
X148415849Y-91093148D01*
X148450748Y-91162946D01*
X148509701Y-91214075D01*
X148545501Y-91230060D01*
X148831215Y-91325298D01*
X148850564Y-91329697D01*
X148855443Y-91331718D01*
X148862517Y-91332414D01*
X148869446Y-91333990D01*
X148874711Y-91333615D01*
X148894461Y-91335561D01*
X149370652Y-91335561D01*
X149409670Y-91331718D01*
X149416307Y-91328968D01*
X149423477Y-91328459D01*
X149460095Y-91314446D01*
X149650571Y-91219208D01*
X149667362Y-91208638D01*
X149672242Y-91206617D01*
X149677734Y-91202109D01*
X149683751Y-91198322D01*
X149687213Y-91194330D01*
X149702549Y-91181744D01*
X149797787Y-91086506D01*
X149810373Y-91071169D01*
X149814365Y-91067708D01*
X149818152Y-91061691D01*
X149822660Y-91056199D01*
X149824681Y-91051319D01*
X149835251Y-91034528D01*
X149930490Y-90844051D01*
X149944502Y-90807434D01*
X149945011Y-90800264D01*
X149947761Y-90793627D01*
X149951604Y-90754609D01*
X149951604Y-90564133D01*
X149947761Y-90525115D01*
X149945011Y-90518477D01*
X149944502Y-90511308D01*
X149930490Y-90474691D01*
X149835251Y-90284214D01*
X149824681Y-90267422D01*
X149822660Y-90262543D01*
X149818152Y-90257050D01*
X149814365Y-90251034D01*
X149810373Y-90247572D01*
X149797787Y-90232236D01*
X149702549Y-90136998D01*
X149687210Y-90124409D01*
X149683751Y-90120421D01*
X149677739Y-90116636D01*
X149672242Y-90112125D01*
X149667360Y-90110102D01*
X149650571Y-90099534D01*
X149460095Y-90004295D01*
X149457240Y-90003202D01*
X149456080Y-90002343D01*
X149439692Y-89996487D01*
X149423478Y-89990283D01*
X149422041Y-89990180D01*
X149419159Y-89989151D01*
X149059501Y-89899236D01*
X148917694Y-89828333D01*
X148868356Y-89778995D01*
X148808747Y-89659776D01*
X148808747Y-89563727D01*
X148868356Y-89444508D01*
X148917694Y-89395170D01*
X149036912Y-89335561D01*
X149433436Y-89335561D01*
X149688358Y-89420536D01*
X149726589Y-89429229D01*
X149804428Y-89423698D01*
X149874226Y-89388799D01*
X149925356Y-89329846D01*
X149950033Y-89255815D01*
X149944502Y-89177975D01*
X149923295Y-89135561D01*
X150408747Y-89135561D01*
X150408747Y-91135561D01*
X150412590Y-91174579D01*
X150442453Y-91246675D01*
X150497633Y-91301855D01*
X150569729Y-91331718D01*
X150647765Y-91331718D01*
X150719861Y-91301855D01*
X150775041Y-91246675D01*
X150804904Y-91174579D01*
X150808747Y-91135561D01*
X150808747Y-89146446D01*
X151266186Y-89146446D01*
X151285554Y-89222041D01*
X151305890Y-89255561D01*
X152058957Y-90259651D01*
X151324469Y-90994140D01*
X151299596Y-91024447D01*
X151269733Y-91096543D01*
X151269733Y-91174579D01*
X151299596Y-91246675D01*
X151354776Y-91301855D01*
X151426872Y-91331718D01*
X151504908Y-91331718D01*
X151577004Y-91301855D01*
X151607311Y-91276982D01*
X152408747Y-90475546D01*
X152408747Y-91135561D01*
X152412590Y-91174579D01*
X152442453Y-91246675D01*
X152497633Y-91301855D01*
X152569729Y-91331718D01*
X152647765Y-91331718D01*
X152719861Y-91301855D01*
X152775041Y-91246675D01*
X152804904Y-91174579D01*
X152808747Y-91135561D01*
X152808747Y-89135561D01*
X153361128Y-89135561D01*
X153361128Y-91135561D01*
X153364971Y-91174579D01*
X153394834Y-91246675D01*
X153450014Y-91301855D01*
X153522110Y-91331718D01*
X153600146Y-91331718D01*
X153672242Y-91301855D01*
X153727422Y-91246675D01*
X153757285Y-91174579D01*
X153761128Y-91135561D01*
X153761128Y-91128084D01*
X154123173Y-91128084D01*
X154135525Y-91205136D01*
X154176424Y-91271597D01*
X154239642Y-91317346D01*
X154315556Y-91335421D01*
X154392608Y-91323069D01*
X154459069Y-91282170D01*
X154504818Y-91218952D01*
X154517594Y-91181885D01*
X154810200Y-89952936D01*
X154986928Y-90615665D01*
X154990355Y-90624804D01*
X154990866Y-90628647D01*
X154993507Y-90633209D01*
X155000695Y-90652376D01*
X155016738Y-90673336D01*
X155029965Y-90696182D01*
X155040252Y-90704055D01*
X155048126Y-90714343D01*
X155070972Y-90727569D01*
X155091932Y-90743613D01*
X155104447Y-90746950D01*
X155115660Y-90753442D01*
X155141829Y-90756918D01*
X155167333Y-90763720D01*
X155180174Y-90762013D01*
X155193017Y-90763720D01*
X155218521Y-90756918D01*
X155244689Y-90753442D01*
X155255900Y-90746950D01*
X155268418Y-90743613D01*
X155289378Y-90727569D01*
X155312224Y-90714343D01*
X155320097Y-90704055D01*
X155330385Y-90696182D01*
X155343611Y-90673336D01*
X155359655Y-90652376D01*
X155366843Y-90633208D01*
X155369484Y-90628647D01*
X155369994Y-90624805D01*
X155373422Y-90615666D01*
X155550150Y-89952935D01*
X155842757Y-91181885D01*
X155855533Y-91218952D01*
X155901282Y-91282171D01*
X155967743Y-91323069D01*
X156044795Y-91335421D01*
X156120709Y-91317347D01*
X156183928Y-91271597D01*
X156224826Y-91205137D01*
X156237178Y-91128084D01*
X156231879Y-91089237D01*
X155755689Y-89089237D01*
X155751075Y-89075852D01*
X155750437Y-89071046D01*
X155747921Y-89066700D01*
X155742913Y-89052170D01*
X155725891Y-89028648D01*
X155711338Y-89003511D01*
X155703182Y-88997268D01*
X155697164Y-88988952D01*
X155672438Y-88973736D01*
X155649371Y-88956080D01*
X155639446Y-88953433D01*
X155630703Y-88948053D01*
X155602037Y-88943457D01*
X155573970Y-88935973D01*
X155563787Y-88937326D01*
X155553651Y-88935701D01*
X155525405Y-88942426D01*
X155496614Y-88946252D01*
X155487726Y-88951397D01*
X155477737Y-88953776D01*
X155454211Y-88970800D01*
X155429079Y-88985351D01*
X155422837Y-88993504D01*
X155414519Y-88999525D01*
X155399298Y-89024257D01*
X155381648Y-89047318D01*
X155376249Y-89061712D01*
X155373620Y-89065986D01*
X155372853Y-89070769D01*
X155367881Y-89084028D01*
X155180175Y-89787923D01*
X154992470Y-89084029D01*
X154987498Y-89070771D01*
X154986731Y-89065985D01*
X154984099Y-89061709D01*
X154978703Y-89047318D01*
X154961056Y-89024263D01*
X154945833Y-88999525D01*
X154937511Y-88993503D01*
X154931272Y-88985351D01*
X154906144Y-88970803D01*
X154882614Y-88953775D01*
X154872623Y-88951396D01*
X154863738Y-88946252D01*
X154834951Y-88942427D01*
X154806700Y-88935701D01*
X154796560Y-88937326D01*
X154786381Y-88935974D01*
X154758322Y-88943456D01*
X154729648Y-88948053D01*
X154720901Y-88953435D01*
X154710980Y-88956081D01*
X154687923Y-88973728D01*
X154663187Y-88988951D01*
X154657165Y-88997271D01*
X154649013Y-89003512D01*
X154634462Y-89028644D01*
X154617438Y-89052170D01*
X154612429Y-89066700D01*
X154609914Y-89071046D01*
X154609275Y-89075851D01*
X154604662Y-89089237D01*
X154128472Y-91089237D01*
X154123173Y-91128084D01*
X153761128Y-91128084D01*
X153761128Y-89135561D01*
X153757285Y-89096543D01*
X153727422Y-89024447D01*
X153672242Y-88969267D01*
X153600146Y-88939404D01*
X153522110Y-88939404D01*
X153450014Y-88969267D01*
X153394834Y-89024447D01*
X153364971Y-89096543D01*
X153361128Y-89135561D01*
X152808747Y-89135561D01*
X152804904Y-89096543D01*
X152775041Y-89024447D01*
X152719861Y-88969267D01*
X152647765Y-88939404D01*
X152569729Y-88939404D01*
X152497633Y-88969267D01*
X152442453Y-89024447D01*
X152412590Y-89096543D01*
X152408747Y-89135561D01*
X152408747Y-89909862D01*
X152344671Y-89973937D01*
X151625890Y-89015561D01*
X151599405Y-88986652D01*
X151532257Y-88946893D01*
X151455005Y-88935857D01*
X151379410Y-88955225D01*
X151316981Y-89002046D01*
X151277222Y-89069194D01*
X151266186Y-89146446D01*
X150808747Y-89146446D01*
X150808747Y-89135561D01*
X150804904Y-89096543D01*
X150775041Y-89024447D01*
X150719861Y-88969267D01*
X150647765Y-88939404D01*
X150569729Y-88939404D01*
X150497633Y-88969267D01*
X150442453Y-89024447D01*
X150412590Y-89096543D01*
X150408747Y-89135561D01*
X149923295Y-89135561D01*
X149909603Y-89108177D01*
X149850650Y-89057048D01*
X149814850Y-89041063D01*
X149529136Y-88945825D01*
X149509789Y-88941425D01*
X149504908Y-88939404D01*
X149497831Y-88938707D01*
X149490905Y-88937132D01*
X149485639Y-88937506D01*
X149465890Y-88935561D01*
X148989699Y-88935561D01*
X148950681Y-88939404D01*
X148944040Y-88942154D01*
X148936873Y-88942664D01*
X148900255Y-88956676D01*
X148709780Y-89051915D01*
X148692989Y-89062484D01*
X148688109Y-89064506D01*
X148682614Y-89069015D01*
X148676599Y-89072802D01*
X148673137Y-89076792D01*
X148657802Y-89089379D01*
X148562564Y-89184617D01*
X148549977Y-89199952D01*
X148545986Y-89203415D01*
X148542198Y-89209431D01*
X148537691Y-89214924D01*
X148535669Y-89219803D01*
X148525100Y-89236595D01*
X148429862Y-89427071D01*
X148415849Y-89463689D01*
X148415339Y-89470858D01*
X148412590Y-89477496D01*
X148408747Y-89516514D01*
X147951604Y-89516514D01*
X147947761Y-89477496D01*
X147945011Y-89470858D01*
X147944502Y-89463689D01*
X147930490Y-89427072D01*
X147835251Y-89236595D01*
X147824681Y-89219803D01*
X147822660Y-89214924D01*
X147818152Y-89209431D01*
X147814365Y-89203415D01*
X147810373Y-89199953D01*
X147797787Y-89184617D01*
X147702549Y-89089379D01*
X147687210Y-89076790D01*
X147683751Y-89072802D01*
X147677739Y-89069017D01*
X147672242Y-89064506D01*
X147667360Y-89062483D01*
X147650571Y-89051915D01*
X147460095Y-88956676D01*
X147423478Y-88942664D01*
X147416310Y-88942154D01*
X147409670Y-88939404D01*
X147370652Y-88935561D01*
X146989699Y-88935561D01*
X146950681Y-88939404D01*
X146944040Y-88942154D01*
X146936873Y-88942664D01*
X146900255Y-88956676D01*
X146709780Y-89051915D01*
X146692989Y-89062484D01*
X146688109Y-89064506D01*
X146682614Y-89069015D01*
X146676599Y-89072802D01*
X146673137Y-89076792D01*
X146657802Y-89089379D01*
X146562564Y-89184617D01*
X146549977Y-89199952D01*
X146545986Y-89203415D01*
X146542198Y-89209431D01*
X146537691Y-89214924D01*
X146535669Y-89219803D01*
X146525100Y-89236595D01*
X146429862Y-89427071D01*
X146415849Y-89463689D01*
X146415339Y-89470858D01*
X146412590Y-89477496D01*
X146408747Y-89516514D01*
X145856366Y-89516514D01*
X145856366Y-89135561D01*
X145852523Y-89096543D01*
X145822660Y-89024447D01*
X145767480Y-88969267D01*
X145695384Y-88939404D01*
X145617348Y-88939404D01*
X145545252Y-88969267D01*
X145490072Y-89024447D01*
X145460209Y-89096543D01*
X145456366Y-89135561D01*
X145456366Y-90234048D01*
X145170936Y-89622413D01*
X145162471Y-89608124D01*
X145160712Y-89603286D01*
X145157577Y-89599863D01*
X145150953Y-89588681D01*
X145128536Y-89568152D01*
X145108008Y-89545736D01*
X145099956Y-89541978D01*
X145093403Y-89535977D01*
X145064834Y-89525588D01*
X145037293Y-89512736D01*
X145028416Y-89512345D01*
X145020065Y-89509309D01*
X144989698Y-89510643D01*
X144959332Y-89509309D01*
X144950980Y-89512345D01*
X144942104Y-89512736D01*
X144914564Y-89525588D01*
X144885994Y-89535977D01*
X144879439Y-89541979D01*
X144871390Y-89545736D01*
X144850863Y-89568150D01*
X144828445Y-89588681D01*
X144821820Y-89599863D01*
X144818686Y-89603286D01*
X144816926Y-89608124D01*
X144808462Y-89622413D01*
X144523033Y-90234046D01*
X144523033Y-89135561D01*
X144519190Y-89096543D01*
X144489327Y-89024447D01*
X144434147Y-88969267D01*
X144362051Y-88939404D01*
X144284015Y-88939404D01*
X144211919Y-88969267D01*
X144156739Y-89024447D01*
X144126876Y-89096543D01*
X144123033Y-89135561D01*
X143367779Y-89135561D01*
X143321597Y-89089379D01*
X143306258Y-89076790D01*
X143302799Y-89072802D01*
X143296787Y-89069017D01*
X143291290Y-89064506D01*
X143286408Y-89062483D01*
X143269619Y-89051915D01*
X143079143Y-88956676D01*
X143042526Y-88942664D01*
X143035358Y-88942154D01*
X143028718Y-88939404D01*
X142989700Y-88935561D01*
X142608747Y-88935561D01*
X142569729Y-88939404D01*
X142563088Y-88942154D01*
X142555921Y-88942664D01*
X142519303Y-88956676D01*
X142328828Y-89051915D01*
X142312037Y-89062484D01*
X142307157Y-89064506D01*
X142301661Y-89069015D01*
X142295647Y-89072802D01*
X142292187Y-89076791D01*
X142276850Y-89089378D01*
X142086374Y-89279855D01*
X142061501Y-89310162D01*
X142055810Y-89323900D01*
X142046958Y-89335848D01*
X142033766Y-89372769D01*
X141938528Y-89753721D01*
X141937527Y-89760487D01*
X141936400Y-89763210D01*
X141934952Y-89777904D01*
X141932794Y-89792506D01*
X141933227Y-89795419D01*
X141932557Y-89802228D01*
X141710335Y-89802228D01*
X141710335Y-88713339D01*
X156459400Y-88713339D01*
X156459400Y-91557783D01*
G37*
D12*
X156212856Y-101182780D02*
X156212856Y-102182780D01*
X156212856Y-102182780D02*
X155879523Y-101468495D01*
X155879523Y-101468495D02*
X155546190Y-102182780D01*
X155546190Y-102182780D02*
X155546190Y-101182780D01*
X154879523Y-102182780D02*
X154689047Y-102182780D01*
X154689047Y-102182780D02*
X154593809Y-102135161D01*
X154593809Y-102135161D02*
X154498571Y-102039923D01*
X154498571Y-102039923D02*
X154450952Y-101849447D01*
X154450952Y-101849447D02*
X154450952Y-101516114D01*
X154450952Y-101516114D02*
X154498571Y-101325638D01*
X154498571Y-101325638D02*
X154593809Y-101230400D01*
X154593809Y-101230400D02*
X154689047Y-101182780D01*
X154689047Y-101182780D02*
X154879523Y-101182780D01*
X154879523Y-101182780D02*
X154974761Y-101230400D01*
X154974761Y-101230400D02*
X155069999Y-101325638D01*
X155069999Y-101325638D02*
X155117618Y-101516114D01*
X155117618Y-101516114D02*
X155117618Y-101849447D01*
X155117618Y-101849447D02*
X155069999Y-102039923D01*
X155069999Y-102039923D02*
X154974761Y-102135161D01*
X154974761Y-102135161D02*
X154879523Y-102182780D01*
X154165237Y-102182780D02*
X153593809Y-102182780D01*
X153879523Y-101182780D02*
X153879523Y-102182780D01*
X153069999Y-102182780D02*
X152879523Y-102182780D01*
X152879523Y-102182780D02*
X152784285Y-102135161D01*
X152784285Y-102135161D02*
X152689047Y-102039923D01*
X152689047Y-102039923D02*
X152641428Y-101849447D01*
X152641428Y-101849447D02*
X152641428Y-101516114D01*
X152641428Y-101516114D02*
X152689047Y-101325638D01*
X152689047Y-101325638D02*
X152784285Y-101230400D01*
X152784285Y-101230400D02*
X152879523Y-101182780D01*
X152879523Y-101182780D02*
X153069999Y-101182780D01*
X153069999Y-101182780D02*
X153165237Y-101230400D01*
X153165237Y-101230400D02*
X153260475Y-101325638D01*
X153260475Y-101325638D02*
X153308094Y-101516114D01*
X153308094Y-101516114D02*
X153308094Y-101849447D01*
X153308094Y-101849447D02*
X153260475Y-102039923D01*
X153260475Y-102039923D02*
X153165237Y-102135161D01*
X153165237Y-102135161D02*
X153069999Y-102182780D01*
X151641428Y-101182780D02*
X151974761Y-101658971D01*
X152212856Y-101182780D02*
X152212856Y-102182780D01*
X152212856Y-102182780D02*
X151831904Y-102182780D01*
X151831904Y-102182780D02*
X151736666Y-102135161D01*
X151736666Y-102135161D02*
X151689047Y-102087542D01*
X151689047Y-102087542D02*
X151641428Y-101992304D01*
X151641428Y-101992304D02*
X151641428Y-101849447D01*
X151641428Y-101849447D02*
X151689047Y-101754209D01*
X151689047Y-101754209D02*
X151736666Y-101706590D01*
X151736666Y-101706590D02*
X151831904Y-101658971D01*
X151831904Y-101658971D02*
X152212856Y-101658971D01*
X149879523Y-101182780D02*
X150212856Y-101658971D01*
X150450951Y-101182780D02*
X150450951Y-102182780D01*
X150450951Y-102182780D02*
X150069999Y-102182780D01*
X150069999Y-102182780D02*
X149974761Y-102135161D01*
X149974761Y-102135161D02*
X149927142Y-102087542D01*
X149927142Y-102087542D02*
X149879523Y-101992304D01*
X149879523Y-101992304D02*
X149879523Y-101849447D01*
X149879523Y-101849447D02*
X149927142Y-101754209D01*
X149927142Y-101754209D02*
X149974761Y-101706590D01*
X149974761Y-101706590D02*
X150069999Y-101658971D01*
X150069999Y-101658971D02*
X150450951Y-101658971D01*
X146577618Y-101152780D02*
X146577618Y-102152780D01*
X146577618Y-102152780D02*
X146244285Y-101438495D01*
X146244285Y-101438495D02*
X145910952Y-102152780D01*
X145910952Y-102152780D02*
X145910952Y-101152780D01*
X145244285Y-102152780D02*
X145053809Y-102152780D01*
X145053809Y-102152780D02*
X144958571Y-102105161D01*
X144958571Y-102105161D02*
X144863333Y-102009923D01*
X144863333Y-102009923D02*
X144815714Y-101819447D01*
X144815714Y-101819447D02*
X144815714Y-101486114D01*
X144815714Y-101486114D02*
X144863333Y-101295638D01*
X144863333Y-101295638D02*
X144958571Y-101200400D01*
X144958571Y-101200400D02*
X145053809Y-101152780D01*
X145053809Y-101152780D02*
X145244285Y-101152780D01*
X145244285Y-101152780D02*
X145339523Y-101200400D01*
X145339523Y-101200400D02*
X145434761Y-101295638D01*
X145434761Y-101295638D02*
X145482380Y-101486114D01*
X145482380Y-101486114D02*
X145482380Y-101819447D01*
X145482380Y-101819447D02*
X145434761Y-102009923D01*
X145434761Y-102009923D02*
X145339523Y-102105161D01*
X145339523Y-102105161D02*
X145244285Y-102152780D01*
X144529999Y-102152780D02*
X143958571Y-102152780D01*
X144244285Y-101152780D02*
X144244285Y-102152780D01*
X143434761Y-102152780D02*
X143244285Y-102152780D01*
X143244285Y-102152780D02*
X143149047Y-102105161D01*
X143149047Y-102105161D02*
X143053809Y-102009923D01*
X143053809Y-102009923D02*
X143006190Y-101819447D01*
X143006190Y-101819447D02*
X143006190Y-101486114D01*
X143006190Y-101486114D02*
X143053809Y-101295638D01*
X143053809Y-101295638D02*
X143149047Y-101200400D01*
X143149047Y-101200400D02*
X143244285Y-101152780D01*
X143244285Y-101152780D02*
X143434761Y-101152780D01*
X143434761Y-101152780D02*
X143529999Y-101200400D01*
X143529999Y-101200400D02*
X143625237Y-101295638D01*
X143625237Y-101295638D02*
X143672856Y-101486114D01*
X143672856Y-101486114D02*
X143672856Y-101819447D01*
X143672856Y-101819447D02*
X143625237Y-102009923D01*
X143625237Y-102009923D02*
X143529999Y-102105161D01*
X143529999Y-102105161D02*
X143434761Y-102152780D01*
X142006190Y-101152780D02*
X142339523Y-101628971D01*
X142577618Y-101152780D02*
X142577618Y-102152780D01*
X142577618Y-102152780D02*
X142196666Y-102152780D01*
X142196666Y-102152780D02*
X142101428Y-102105161D01*
X142101428Y-102105161D02*
X142053809Y-102057542D01*
X142053809Y-102057542D02*
X142006190Y-101962304D01*
X142006190Y-101962304D02*
X142006190Y-101819447D01*
X142006190Y-101819447D02*
X142053809Y-101724209D01*
X142053809Y-101724209D02*
X142101428Y-101676590D01*
X142101428Y-101676590D02*
X142196666Y-101628971D01*
X142196666Y-101628971D02*
X142577618Y-101628971D01*
X140339523Y-101152780D02*
X140815713Y-101152780D01*
X140815713Y-101152780D02*
X140815713Y-102152780D01*
D10*
X139454510Y-93859400D02*
X140597368Y-93859400D01*
D13*
%TO.C,J4*%
X139260000Y-94860000D02*
X139260000Y-96110000D01*
X139560000Y-95160000D02*
X139560000Y-99880000D01*
X139560000Y-96470000D02*
X140170000Y-96470000D01*
X139560000Y-97770000D02*
X140170000Y-97770000D01*
X139560000Y-99880000D02*
X145680000Y-99880000D01*
X140170000Y-95770000D02*
X140170000Y-99270000D01*
X140170000Y-99270000D02*
X145070000Y-99270000D01*
X140510000Y-94860000D02*
X139260000Y-94860000D01*
X141020000Y-94960000D02*
X141020000Y-95160000D01*
X141320000Y-94960000D02*
X141020000Y-94960000D01*
X141320000Y-95060000D02*
X141020000Y-95060000D01*
X141320000Y-95160000D02*
X141320000Y-94960000D01*
X142120000Y-95160000D02*
X142120000Y-95770000D01*
X142120000Y-95770000D02*
X140170000Y-95770000D01*
X142520000Y-98770000D02*
X142720000Y-98770000D01*
X142520000Y-99270000D02*
X142520000Y-98770000D01*
X142620000Y-99270000D02*
X142620000Y-98770000D01*
X142720000Y-98770000D02*
X142720000Y-99270000D01*
X143120000Y-95770000D02*
X143120000Y-95160000D01*
X145070000Y-95770000D02*
X143120000Y-95770000D01*
X145070000Y-99270000D02*
X145070000Y-95770000D01*
X145680000Y-95160000D02*
X139560000Y-95160000D01*
X145680000Y-96470000D02*
X145070000Y-96470000D01*
X145680000Y-97770000D02*
X145070000Y-97770000D01*
X145680000Y-99880000D02*
X145680000Y-95160000D01*
%TO.C,C13*%
X161695000Y-96868748D02*
X161695000Y-97391252D01*
X163165000Y-96868748D02*
X163165000Y-97391252D01*
%TO.C,C11*%
X147055000Y-96631248D02*
X147055000Y-97153752D01*
X148525000Y-96631248D02*
X148525000Y-97153752D01*
%TO.C,J3*%
X182107304Y-71126254D02*
X180397489Y-73163932D01*
X190172216Y-81365902D02*
X180397489Y-73163932D01*
X191882031Y-79328224D02*
X182107304Y-71126254D01*
X191882031Y-79328224D02*
X190172216Y-81365902D01*
X192854908Y-80144564D02*
X193873747Y-80999471D01*
X193873747Y-80999471D02*
X193018839Y-82018311D01*
%TO.C,SW2*%
X131375000Y-71730000D02*
X131375000Y-71780000D01*
X131375000Y-74930000D02*
X131375000Y-73430000D01*
X131375000Y-76630000D02*
X131375000Y-76580000D01*
X136275000Y-71730000D02*
X131375000Y-71730000D01*
X136275000Y-71730000D02*
X136275000Y-71780000D01*
X136275000Y-74930000D02*
X136275000Y-73430000D01*
X136275000Y-76630000D02*
X131375000Y-76630000D01*
X136275000Y-76630000D02*
X136275000Y-76580000D01*
%TO.C,RV2*%
X132720000Y-99075000D02*
X137790000Y-99075000D01*
X132720000Y-108845000D02*
X132720000Y-99075000D01*
X132720000Y-108845000D02*
X137790000Y-108845000D01*
X137790000Y-108845000D02*
X137790000Y-99075000D01*
%TO.C,SW1*%
X123075000Y-71740000D02*
X123075000Y-71790000D01*
X123075000Y-74940000D02*
X123075000Y-73440000D01*
X123075000Y-76640000D02*
X123075000Y-76590000D01*
X127975000Y-71740000D02*
X123075000Y-71740000D01*
X127975000Y-71740000D02*
X127975000Y-71790000D01*
X127975000Y-74940000D02*
X127975000Y-73440000D01*
X127975000Y-76640000D02*
X123075000Y-76640000D01*
X127975000Y-76640000D02*
X127975000Y-76590000D01*
%TO.C,R8*%
X135822936Y-77405000D02*
X136277064Y-77405000D01*
X135822936Y-78875000D02*
X136277064Y-78875000D01*
%TO.C,C14*%
X159820000Y-100600000D02*
X159820000Y-103450000D01*
X159820000Y-109320000D02*
X159820000Y-106470000D01*
X167475563Y-100600000D02*
X159820000Y-100600000D01*
X167475563Y-109320000D02*
X159820000Y-109320000D01*
X168540000Y-101664437D02*
X167475563Y-100600000D01*
X168540000Y-101664437D02*
X168540000Y-103450000D01*
X168540000Y-108255563D02*
X167475563Y-109320000D01*
X168540000Y-108255563D02*
X168540000Y-106470000D01*
X169280000Y-107970000D02*
X169280000Y-106970000D01*
X169780000Y-107470000D02*
X168780000Y-107470000D01*
%TO.C,C4*%
X106690000Y-98764437D02*
X106690000Y-106420000D01*
X106690000Y-106420000D02*
X109540000Y-106420000D01*
X107754437Y-97700000D02*
X106690000Y-98764437D01*
X107754437Y-97700000D02*
X109540000Y-97700000D01*
X113560000Y-96460000D02*
X113560000Y-97460000D01*
X114060000Y-96960000D02*
X113060000Y-96960000D01*
X114345563Y-97700000D02*
X112560000Y-97700000D01*
X114345563Y-97700000D02*
X115410000Y-98764437D01*
X115410000Y-98764437D02*
X115410000Y-106420000D01*
X115410000Y-106420000D02*
X112560000Y-106420000D01*
%TO.C,C9*%
X149761252Y-78375000D02*
X149238748Y-78375000D01*
X149761252Y-79845000D02*
X149238748Y-79845000D01*
%TO.C,U6*%
X181227500Y-92030000D02*
X180427500Y-92030000D01*
X181227500Y-92030000D02*
X182027500Y-92030000D01*
X181227500Y-95150000D02*
X180427500Y-95150000D01*
X181227500Y-95150000D02*
X182027500Y-95150000D01*
X182767500Y-95430000D02*
X182287500Y-95430000D01*
X182527500Y-95100000D01*
X182767500Y-95430000D01*
G36*
X182767500Y-95430000D02*
G01*
X182287500Y-95430000D01*
X182527500Y-95100000D01*
X182767500Y-95430000D01*
G37*
%TO.C,J6*%
X150040000Y-103860000D02*
X150040000Y-105110000D01*
X150340000Y-104160000D02*
X150340000Y-108880000D01*
X150340000Y-105470000D02*
X150950000Y-105470000D01*
X150340000Y-106770000D02*
X150950000Y-106770000D01*
X150340000Y-108880000D02*
X156460000Y-108880000D01*
X150950000Y-104770000D02*
X150950000Y-108270000D01*
X150950000Y-108270000D02*
X155850000Y-108270000D01*
X151290000Y-103860000D02*
X150040000Y-103860000D01*
X151800000Y-103960000D02*
X151800000Y-104160000D01*
X152100000Y-103960000D02*
X151800000Y-103960000D01*
X152100000Y-104060000D02*
X151800000Y-104060000D01*
X152100000Y-104160000D02*
X152100000Y-103960000D01*
X152900000Y-104160000D02*
X152900000Y-104770000D01*
X152900000Y-104770000D02*
X150950000Y-104770000D01*
X153300000Y-107770000D02*
X153500000Y-107770000D01*
X153300000Y-108270000D02*
X153300000Y-107770000D01*
X153400000Y-108270000D02*
X153400000Y-107770000D01*
X153500000Y-107770000D02*
X153500000Y-108270000D01*
X153900000Y-104770000D02*
X153900000Y-104160000D01*
X155850000Y-104770000D02*
X153900000Y-104770000D01*
X155850000Y-108270000D02*
X155850000Y-104770000D01*
X156460000Y-104160000D02*
X150340000Y-104160000D01*
X156460000Y-105470000D02*
X155850000Y-105470000D01*
X156460000Y-106770000D02*
X155850000Y-106770000D01*
X156460000Y-108880000D02*
X156460000Y-104160000D01*
%TO.C,R6*%
X129727064Y-99265000D02*
X129272936Y-99265000D01*
X129727064Y-100735000D02*
X129272936Y-100735000D01*
%TO.C,J1*%
X106126253Y-80999471D02*
X107836068Y-83037149D01*
X115900980Y-72797501D02*
X106126253Y-80999471D01*
X115900980Y-72797501D02*
X117610795Y-74835179D01*
X116873856Y-71981161D02*
X117892696Y-71126253D01*
X117610795Y-74835179D02*
X107836068Y-83037149D01*
X117892696Y-71126253D02*
X118747603Y-72145092D01*
%TO.C,R9*%
X159215000Y-96922936D02*
X159215000Y-97377064D01*
X160685000Y-96922936D02*
X160685000Y-97377064D01*
%TO.C,D2*%
X128100000Y-101990000D02*
X128100000Y-107500000D01*
X131400000Y-101990000D02*
X128100000Y-101990000D01*
X131400000Y-101990000D02*
X131400000Y-107500000D01*
%TO.C,D6*%
X139760000Y-80120000D02*
X139760000Y-86670000D01*
X139760000Y-86670000D02*
X140210000Y-87120000D01*
X140210000Y-87120000D02*
X145260000Y-87120000D01*
X141610000Y-80920000D02*
X143410000Y-80920000D01*
X141610000Y-86320000D02*
X143410000Y-86320000D01*
X145260000Y-80120000D02*
X139760000Y-80120000D01*
X145260000Y-80120000D02*
X145260000Y-87120000D01*
%TO.C,D4*%
X153000000Y-80120000D02*
X153000000Y-86670000D01*
X153000000Y-86670000D02*
X153450000Y-87120000D01*
X153450000Y-87120000D02*
X158500000Y-87120000D01*
X154850000Y-80920000D02*
X156650000Y-80920000D01*
X154850000Y-86320000D02*
X156650000Y-86320000D01*
X158500000Y-80120000D02*
X153000000Y-80120000D01*
X158500000Y-80120000D02*
X158500000Y-87120000D01*
%TO.C,C10*%
X143268752Y-78325000D02*
X142746248Y-78325000D01*
X143268752Y-79795000D02*
X142746248Y-79795000D01*
%TO.C,C8*%
X155181252Y-78285000D02*
X154658748Y-78285000D01*
X155181252Y-79755000D02*
X154658748Y-79755000D01*
%TO.C,RV1*%
X184785000Y-97835000D02*
X194555000Y-97835000D01*
X184785000Y-108105000D02*
X184785000Y-97835000D01*
X184785000Y-108105000D02*
X194555000Y-108105000D01*
X184961000Y-108106000D02*
X187390000Y-108106000D01*
X184961000Y-109625000D02*
X184961000Y-108106000D01*
X184961000Y-109625000D02*
X187390000Y-109625000D01*
X186175000Y-109625000D02*
X186175000Y-108866000D01*
X187390000Y-109625000D02*
X187390000Y-108106000D01*
X194555000Y-108105000D02*
X194555000Y-97835000D01*
%TO.C,L2*%
X112700000Y-81700000D02*
X115700000Y-81700000D01*
X112700000Y-94300000D02*
X112700000Y-81700000D01*
X115700000Y-94300000D02*
X112700000Y-94300000D01*
X122300000Y-81700000D02*
X125300000Y-81700000D01*
X125300000Y-81700000D02*
X125300000Y-94300000D01*
X125300000Y-94300000D02*
X122300000Y-94300000D01*
%TO.C,R10*%
X175065000Y-97002936D02*
X175065000Y-97457064D01*
X176535000Y-97002936D02*
X176535000Y-97457064D01*
%TO.C,R5*%
X186852936Y-95515000D02*
X187307064Y-95515000D01*
X186852936Y-96985000D02*
X187307064Y-96985000D01*
%TO.C,D5*%
X146380000Y-80120000D02*
X146380000Y-86670000D01*
X146380000Y-86670000D02*
X146830000Y-87120000D01*
X146830000Y-87120000D02*
X151880000Y-87120000D01*
X148230000Y-80920000D02*
X150030000Y-80920000D01*
X148230000Y-86320000D02*
X150030000Y-86320000D01*
X151880000Y-80120000D02*
X146380000Y-80120000D01*
X151880000Y-80120000D02*
X151880000Y-87120000D01*
%TO.C,C12*%
X173310000Y-100620000D02*
X173310000Y-103470000D01*
X173310000Y-109340000D02*
X173310000Y-106490000D01*
X180965563Y-100620000D02*
X173310000Y-100620000D01*
X180965563Y-109340000D02*
X173310000Y-109340000D01*
X182030000Y-101684437D02*
X180965563Y-100620000D01*
X182030000Y-101684437D02*
X182030000Y-103470000D01*
X182030000Y-108275563D02*
X180965563Y-109340000D01*
X182030000Y-108275563D02*
X182030000Y-106490000D01*
X182770000Y-107990000D02*
X182770000Y-106990000D01*
X183270000Y-107490000D02*
X182270000Y-107490000D01*
%TO.C,C2*%
X192508752Y-95290000D02*
X191086248Y-95290000D01*
X192508752Y-97110000D02*
X191086248Y-97110000D01*
%TO.C,C1*%
X180470000Y-89161252D02*
X180470000Y-87738748D01*
X182290000Y-89161252D02*
X182290000Y-87738748D01*
%TO.C,U7*%
X127025000Y-89385000D02*
X127025000Y-90750000D01*
X127025000Y-90750000D02*
X127975000Y-90750000D01*
X137425000Y-89385000D02*
X137425000Y-90750000D01*
X137425000Y-90750000D02*
X136475000Y-90750000D01*
X128015000Y-93575000D02*
X127545000Y-93915000D01*
X127545000Y-93235000D01*
X128015000Y-93575000D01*
G36*
X128015000Y-93575000D02*
G01*
X127545000Y-93915000D01*
X127545000Y-93235000D01*
X128015000Y-93575000D01*
G37*
%TO.C,D1*%
X177150000Y-96270000D02*
X177150000Y-99570000D01*
X177150000Y-96270000D02*
X182660000Y-96270000D01*
X177150000Y-99570000D02*
X182660000Y-99570000D01*
%TO.C,L1*%
X183740000Y-84062500D02*
X186740000Y-84062500D01*
X183740000Y-87062500D02*
X183740000Y-84062500D01*
X183980000Y-84302500D02*
X183980000Y-87612500D01*
X183980000Y-84302500D02*
X194300000Y-84302500D01*
X183980000Y-91312500D02*
X183980000Y-94622500D01*
X183980000Y-94622500D02*
X194300000Y-94622500D01*
X194300000Y-84302500D02*
X194300000Y-87612500D01*
X194300000Y-91312500D02*
X194300000Y-94622500D01*
D14*
%TO.C,U2*%
X155870000Y-94770000D02*
X151720000Y-94770000D01*
X155870000Y-99920000D02*
X151720000Y-99920000D01*
D13*
X156710000Y-100150000D02*
X156230000Y-100150000D01*
X156470000Y-99820000D01*
X156710000Y-100150000D01*
G36*
X156710000Y-100150000D02*
G01*
X156230000Y-100150000D01*
X156470000Y-99820000D01*
X156710000Y-100150000D01*
G37*
%TO.C,J5*%
X140340000Y-103840000D02*
X140340000Y-105090000D01*
X140640000Y-104140000D02*
X140640000Y-108860000D01*
X140640000Y-105450000D02*
X141250000Y-105450000D01*
X140640000Y-106750000D02*
X141250000Y-106750000D01*
X140640000Y-108860000D02*
X146760000Y-108860000D01*
X141250000Y-104750000D02*
X141250000Y-108250000D01*
X141250000Y-108250000D02*
X146150000Y-108250000D01*
X141590000Y-103840000D02*
X140340000Y-103840000D01*
X142100000Y-103940000D02*
X142100000Y-104140000D01*
X142400000Y-103940000D02*
X142100000Y-103940000D01*
X142400000Y-104040000D02*
X142100000Y-104040000D01*
X142400000Y-104140000D02*
X142400000Y-103940000D01*
X143200000Y-104140000D02*
X143200000Y-104750000D01*
X143200000Y-104750000D02*
X141250000Y-104750000D01*
X143600000Y-107750000D02*
X143800000Y-107750000D01*
X143600000Y-108250000D02*
X143600000Y-107750000D01*
X143700000Y-108250000D02*
X143700000Y-107750000D01*
X143800000Y-107750000D02*
X143800000Y-108250000D01*
X144200000Y-104750000D02*
X144200000Y-104140000D01*
X146150000Y-104750000D02*
X144200000Y-104750000D01*
X146150000Y-108250000D02*
X146150000Y-104750000D01*
X146760000Y-104140000D02*
X140640000Y-104140000D01*
X146760000Y-105450000D02*
X146150000Y-105450000D01*
X146760000Y-106750000D02*
X146150000Y-106750000D01*
X146760000Y-108860000D02*
X146760000Y-104140000D01*
D14*
%TO.C,U5*%
X171450000Y-94830000D02*
X167300000Y-94830000D01*
X171450000Y-99980000D02*
X167300000Y-99980000D01*
D13*
X172290000Y-100210000D02*
X171810000Y-100210000D01*
X172050000Y-99880000D01*
X172290000Y-100210000D01*
G36*
X172290000Y-100210000D02*
G01*
X171810000Y-100210000D01*
X172050000Y-99880000D01*
X172290000Y-100210000D01*
G37*
%TO.C,C3*%
X116740000Y-98764437D02*
X116740000Y-106420000D01*
X116740000Y-106420000D02*
X119590000Y-106420000D01*
X117804437Y-97700000D02*
X116740000Y-98764437D01*
X117804437Y-97700000D02*
X119590000Y-97700000D01*
X123610000Y-96460000D02*
X123610000Y-97460000D01*
X124110000Y-96960000D02*
X123110000Y-96960000D01*
X124395563Y-97700000D02*
X122610000Y-97700000D01*
X124395563Y-97700000D02*
X125460000Y-98764437D01*
X125460000Y-98764437D02*
X125460000Y-106420000D01*
X125460000Y-106420000D02*
X122610000Y-106420000D01*
%TO.C,J2*%
X141170000Y-73170000D02*
X141170000Y-75830000D01*
X153930000Y-73170000D02*
X141170000Y-73170000D01*
X153930000Y-73170000D02*
X153930000Y-75830000D01*
X153930000Y-75830000D02*
X141170000Y-75830000D01*
X155200000Y-73170000D02*
X156530000Y-73170000D01*
X156530000Y-73170000D02*
X156530000Y-74500000D01*
D15*
%TO.C,U1*%
X160015000Y-71850000D02*
X160015000Y-71550000D01*
X160015000Y-94250000D02*
X160015000Y-91900000D01*
X164515000Y-70250000D02*
X164515000Y-71550000D01*
X164515000Y-71550000D02*
X160015000Y-71550000D01*
X173515000Y-70250000D02*
X164515000Y-70250000D01*
X173515000Y-70250000D02*
X173515000Y-71550000D01*
X178015000Y-71550000D02*
X173515000Y-71550000D01*
X178015000Y-71850000D02*
X178015000Y-71550000D01*
X178015000Y-94250000D02*
X160015000Y-94250000D01*
X178015000Y-94250000D02*
X178015000Y-91900000D01*
D13*
%TO.C,R7*%
X130867936Y-77415000D02*
X131322064Y-77415000D01*
X130867936Y-78885000D02*
X131322064Y-78885000D01*
%TD*%
M02*
