%TF.GenerationSoftware,KiCad,Pcbnew,9.0.1+1*%
%TF.CreationDate,2025-05-17T11:18:49+02:00*%
%TF.ProjectId,WikiSumo_v25,57696b69-5375-46d6-9f5f-7632352e6b69,rev?*%
%TF.SameCoordinates,Original*%
%TF.FileFunction,Copper,L2,Bot*%
%TF.FilePolarity,Positive*%
%FSLAX46Y46*%
G04 Gerber Fmt 4.6, Leading zero omitted, Abs format (unit mm)*
G04 Created by KiCad (PCBNEW 9.0.1+1) date 2025-05-17 11:18:49*
%MOMM*%
%LPD*%
G01*
G04 APERTURE LIST*
G04 Aperture macros list*
%AMRoundRect*
0 Rectangle with rounded corners*
0 $1 Rounding radius*
0 $2 $3 $4 $5 $6 $7 $8 $9 X,Y pos of 4 corners*
0 Add a 4 corners polygon primitive as box body*
4,1,4,$2,$3,$4,$5,$6,$7,$8,$9,$2,$3,0*
0 Add four circle primitives for the rounded corners*
1,1,$1+$1,$2,$3*
1,1,$1+$1,$4,$5*
1,1,$1+$1,$6,$7*
1,1,$1+$1,$8,$9*
0 Add four rect primitives between the rounded corners*
20,1,$1+$1,$2,$3,$4,$5,0*
20,1,$1+$1,$4,$5,$6,$7,0*
20,1,$1+$1,$6,$7,$8,$9,0*
20,1,$1+$1,$8,$9,$2,$3,0*%
%AMHorizOval*
0 Thick line with rounded ends*
0 $1 width*
0 $2 $3 position (X,Y) of the first rounded end (center of the circle)*
0 $4 $5 position (X,Y) of the second rounded end (center of the circle)*
0 Add line between two ends*
20,1,$1,$2,$3,$4,$5,0*
0 Add two circle primitives to create the rounded ends*
1,1,$1,$2,$3*
1,1,$1,$4,$5*%
%AMRotRect*
0 Rectangle, with rotation*
0 The origin of the aperture is its center*
0 $1 length*
0 $2 width*
0 $3 Rotation angle, in degrees counterclockwise*
0 Add horizontal line*
21,1,$1,$2,0,0,$3*%
G04 Aperture macros list end*
%TA.AperFunction,ComponentPad*%
%ADD10RoundRect,0.250000X-0.350000X-0.625000X0.350000X-0.625000X0.350000X0.625000X-0.350000X0.625000X0*%
%TD*%
%TA.AperFunction,ComponentPad*%
%ADD11O,1.200000X1.750000*%
%TD*%
%TA.AperFunction,ComponentPad*%
%ADD12RotRect,1.700000X1.700000X230.000000*%
%TD*%
%TA.AperFunction,ComponentPad*%
%ADD13HorizOval,1.700000X0.000000X0.000000X0.000000X0.000000X0*%
%TD*%
%TA.AperFunction,ComponentPad*%
%ADD14C,1.440000*%
%TD*%
%TA.AperFunction,ComponentPad*%
%ADD15RotRect,1.700000X1.700000X310.000000*%
%TD*%
%TA.AperFunction,ComponentPad*%
%ADD16HorizOval,1.700000X0.000000X0.000000X0.000000X0.000000X0*%
%TD*%
%TA.AperFunction,ComponentPad*%
%ADD17C,0.630000*%
%TD*%
%TA.AperFunction,SMDPad,CuDef*%
%ADD18R,2.600000X3.300000*%
%TD*%
%TA.AperFunction,ComponentPad*%
%ADD19R,1.700000X1.700000*%
%TD*%
%TA.AperFunction,ComponentPad*%
%ADD20O,1.700000X1.700000*%
%TD*%
%TA.AperFunction,SMDPad,CuDef*%
%ADD21RoundRect,0.250000X-0.350000X-0.450000X0.350000X-0.450000X0.350000X0.450000X-0.350000X0.450000X0*%
%TD*%
%TA.AperFunction,SMDPad,CuDef*%
%ADD22RoundRect,0.197500X0.197500X0.632500X-0.197500X0.632500X-0.197500X-0.632500X0.197500X-0.632500X0*%
%TD*%
%TA.AperFunction,SMDPad,CuDef*%
%ADD23RoundRect,0.250000X0.350000X0.450000X-0.350000X0.450000X-0.350000X-0.450000X0.350000X-0.450000X0*%
%TD*%
%TA.AperFunction,ViaPad*%
%ADD24C,0.600000*%
%TD*%
%TA.AperFunction,ViaPad*%
%ADD25C,4.100000*%
%TD*%
%TA.AperFunction,Conductor*%
%ADD26C,0.200000*%
%TD*%
%TA.AperFunction,Conductor*%
%ADD27C,0.400000*%
%TD*%
%TA.AperFunction,Conductor*%
%ADD28C,0.600000*%
%TD*%
G04 APERTURE END LIST*
D10*
%TO.P,J4,1,Pin_1*%
%TO.N,GND*%
X141620000Y-96970000D03*
D11*
%TO.P,J4,2,Pin_2*%
%TO.N,+BATT*%
X143620000Y-96970000D03*
%TD*%
D12*
%TO.P,J3,1,Pin_1*%
%TO.N,+3V3*%
X192000000Y-81163403D03*
D13*
%TO.P,J3,2,Pin_2*%
%TO.N,GND*%
X190054247Y-79530722D03*
%TO.P,J3,3,Pin_3*%
%TO.N,SCL*%
X188108494Y-77898042D03*
%TO.P,J3,4,Pin_4*%
%TO.N,SDA*%
X186162741Y-76265361D03*
%TO.P,J3,5,Pin_5*%
%TO.N,unconnected-(J3-Pin_5-Pad5)*%
X184216988Y-74632681D03*
%TO.P,J3,6,Pin_6*%
%TO.N,VL53L0X_R*%
X182271235Y-73000000D03*
%TD*%
D14*
%TO.P,RV2,1,1*%
%TO.N,Net-(U7-FB)*%
X135250000Y-101420000D03*
%TO.P,RV2,2,2*%
X135250000Y-103960000D03*
%TO.P,RV2,3,3*%
%TO.N,+5V*%
X135250000Y-106500000D03*
%TD*%
D10*
%TO.P,J6,1,Pin_1*%
%TO.N,Net-(J6-Pin_1)*%
X152400000Y-105970000D03*
D11*
%TO.P,J6,2,Pin_2*%
%TO.N,Net-(J6-Pin_2)*%
X154400000Y-105970000D03*
%TD*%
D15*
%TO.P,J1,1,Pin_1*%
%TO.N,+3V3*%
X117728764Y-73000000D03*
D16*
%TO.P,J1,2,Pin_2*%
%TO.N,GND*%
X115783011Y-74632681D03*
%TO.P,J1,3,Pin_3*%
%TO.N,SCL*%
X113837258Y-76265361D03*
%TO.P,J1,4,Pin_4*%
%TO.N,SDA*%
X111891505Y-77898042D03*
%TO.P,J1,5,Pin_5*%
%TO.N,unconnected-(J1-Pin_5-Pad5)*%
X109945752Y-79530722D03*
%TO.P,J1,6,Pin_6*%
%TO.N,VL53L0X_L*%
X108000000Y-81163403D03*
%TD*%
D14*
%TO.P,RV1,1,1*%
%TO.N,Net-(R5-Pad1)*%
X187130000Y-102970000D03*
%TO.P,RV1,2,2*%
%TO.N,Net-(U6-FB)*%
X189670000Y-105510000D03*
%TO.P,RV1,3,3*%
%TO.N,+12V*%
X192210000Y-102970000D03*
%TD*%
D17*
%TO.P,U2,9,GND*%
%TO.N,GND*%
X154445000Y-98645000D03*
X154445000Y-97345000D03*
X154445000Y-96045000D03*
D18*
X153795000Y-97345000D03*
D17*
X153145000Y-98645000D03*
X153145000Y-97345000D03*
X153145000Y-96045000D03*
%TD*%
D10*
%TO.P,J5,1,Pin_1*%
%TO.N,Net-(J5-Pin_1)*%
X142700000Y-105950000D03*
D11*
%TO.P,J5,2,Pin_2*%
%TO.N,Net-(J5-Pin_2)*%
X144700000Y-105950000D03*
%TD*%
D17*
%TO.P,U5,9,GND*%
%TO.N,GND*%
X170025000Y-98705000D03*
X170025000Y-97405000D03*
X170025000Y-96105000D03*
D18*
X169375000Y-97405000D03*
D17*
X168725000Y-98705000D03*
X168725000Y-97405000D03*
X168725000Y-96105000D03*
%TD*%
D19*
%TO.P,J2,1,Pin_1*%
%TO.N,+3V3*%
X155200000Y-74500000D03*
D20*
%TO.P,J2,2,Pin_2*%
%TO.N,GND*%
X152660000Y-74500000D03*
%TO.P,J2,3,Pin_3*%
%TO.N,SCL*%
X150120000Y-74500000D03*
%TO.P,J2,4,Pin_4*%
%TO.N,SDA*%
X147580000Y-74500000D03*
%TO.P,J2,5,Pin_5*%
%TO.N,unconnected-(J2-Pin_5-Pad5)*%
X145040000Y-74500000D03*
%TO.P,J2,6,Pin_6*%
%TO.N,VL53L0X_C*%
X142500000Y-74500000D03*
%TD*%
D21*
%TO.P,R1,1*%
%TO.N,Net-(U3-A)*%
X110230000Y-71710000D03*
%TO.P,R1,2*%
%TO.N,+3V3*%
X112230000Y-71710000D03*
%TD*%
D22*
%TO.P,U3,1,A*%
%TO.N,Net-(U3-A)*%
X107900000Y-71500000D03*
%TO.P,U3,2,K*%
%TO.N,GND*%
X107900000Y-75500000D03*
%TO.P,U3,3*%
%TO.N,QR1113_L*%
X106100000Y-75500000D03*
%TO.P,U3,4*%
%TO.N,GND*%
X106100000Y-71500000D03*
%TD*%
D23*
%TO.P,R2,1*%
%TO.N,+3V3*%
X112140000Y-74340000D03*
%TO.P,R2,2*%
%TO.N,QR1113_L*%
X110140000Y-74340000D03*
%TD*%
%TO.P,R3,1*%
%TO.N,Net-(U4-A)*%
X189420000Y-72160000D03*
%TO.P,R3,2*%
%TO.N,+3V3*%
X187420000Y-72160000D03*
%TD*%
D22*
%TO.P,U4,1,A*%
%TO.N,Net-(U4-A)*%
X193900000Y-71500000D03*
%TO.P,U4,2,K*%
%TO.N,GND*%
X193900000Y-75500000D03*
%TO.P,U4,3*%
%TO.N,QR1113_R*%
X192100000Y-75500000D03*
%TO.P,U4,4*%
%TO.N,GND*%
X192100000Y-71500000D03*
%TD*%
D21*
%TO.P,R4,1*%
%TO.N,+3V3*%
X187390000Y-74420000D03*
%TO.P,R4,2*%
%TO.N,QR1113_R*%
X189390000Y-74420000D03*
%TD*%
D24*
%TO.N,GND*%
X139860000Y-74050000D03*
X142540000Y-76820000D03*
X141360000Y-76820000D03*
X164580000Y-78800000D03*
X166580000Y-78800000D03*
X166580000Y-77800000D03*
X164580000Y-77800000D03*
X165580000Y-78800000D03*
X165580000Y-77800000D03*
X179460000Y-76050000D03*
X179470000Y-75030000D03*
X193140000Y-77000000D03*
X193960000Y-77770000D03*
%TO.N,QR1113_L*%
X164654381Y-90672008D03*
%TO.N,QR1113_R*%
X185200000Y-81620000D03*
%TO.N,VL53L0X_L*%
X157500000Y-78500000D03*
%TO.N,GND*%
X147500000Y-87500000D03*
X190220000Y-108810000D03*
X142500000Y-87500000D03*
X109500000Y-73000000D03*
X169550000Y-108830000D03*
X138700000Y-101930000D03*
X168020000Y-74640000D03*
X149030000Y-92780000D03*
X108000000Y-91500000D03*
X149470000Y-104800000D03*
X174850000Y-99960000D03*
X139360000Y-92240000D03*
X186640000Y-80220000D03*
X186830000Y-82700000D03*
X125390000Y-108270000D03*
X124790000Y-78980000D03*
X169380000Y-88640000D03*
X108961133Y-92500000D03*
X189340000Y-100180000D03*
X152380000Y-83500000D03*
X137710000Y-76990000D03*
X187470000Y-80230000D03*
X107260000Y-77440000D03*
X185270000Y-92300000D03*
X190340000Y-99180000D03*
X148030000Y-92780000D03*
X108220000Y-77450000D03*
X133940000Y-74499000D03*
X169860000Y-80170000D03*
X182970000Y-102250000D03*
X109000000Y-90500000D03*
X148470000Y-105800000D03*
X149030000Y-93780000D03*
X160070000Y-107690000D03*
X132000000Y-102500000D03*
X124390000Y-108270000D03*
X108000000Y-90500000D03*
X183980000Y-107910000D03*
X189340000Y-99180000D03*
X107280000Y-78400000D03*
X170380000Y-88640000D03*
X170550000Y-107830000D03*
X170830000Y-83630000D03*
X181980000Y-107910000D03*
X193520000Y-93660000D03*
X171680000Y-100650000D03*
X115730000Y-72050000D03*
X148470000Y-103800000D03*
X152440000Y-80090000D03*
X109000000Y-91500000D03*
X139700000Y-102930000D03*
X168020000Y-75640000D03*
X169550000Y-107830000D03*
X124390000Y-107270000D03*
X170680000Y-101650000D03*
X148030000Y-93780000D03*
X171680000Y-101650000D03*
X135370000Y-74490000D03*
X191240000Y-108780000D03*
X139700000Y-101930000D03*
X170860000Y-80170000D03*
X117000000Y-79000000D03*
X169830000Y-82630000D03*
X168380000Y-88640000D03*
X123790000Y-77980000D03*
X170550000Y-108830000D03*
X147030000Y-93780000D03*
X170860000Y-81170000D03*
X141390000Y-77610000D03*
X171860000Y-81170000D03*
X192150000Y-108780000D03*
X183330000Y-77930000D03*
X126000000Y-97500000D03*
X192520000Y-93660000D03*
X159250000Y-107670000D03*
X110000000Y-92500000D03*
X132000000Y-104500000D03*
X114730000Y-72050000D03*
X187830000Y-82700000D03*
X168380000Y-87640000D03*
X170830000Y-82630000D03*
X143500000Y-83500000D03*
X125790000Y-77980000D03*
X125000000Y-96500000D03*
X139060000Y-74060000D03*
X193949000Y-77010000D03*
X110500000Y-73000000D03*
X158390000Y-107670000D03*
X167020000Y-74640000D03*
X176850000Y-100960000D03*
X188340000Y-99180000D03*
X169830000Y-83630000D03*
X139700000Y-103930000D03*
X169680000Y-101650000D03*
X182980000Y-107910000D03*
X150000000Y-87500000D03*
X175850000Y-100960000D03*
X171550000Y-108830000D03*
X138360000Y-92240000D03*
X125790000Y-78980000D03*
X185250000Y-93080000D03*
X125460000Y-74530000D03*
X139360000Y-93240000D03*
X184190000Y-100380000D03*
X188340000Y-100180000D03*
X157500000Y-84500000D03*
X193520000Y-92660000D03*
X113730000Y-71050000D03*
X184400000Y-92300000D03*
X169380000Y-87640000D03*
X140360000Y-92240000D03*
X115730000Y-71050000D03*
X138700000Y-103930000D03*
X169860000Y-81170000D03*
X157730000Y-100630000D03*
X133500000Y-102500000D03*
X182980000Y-108910000D03*
X152410000Y-79180000D03*
X123790000Y-78980000D03*
X134160000Y-76845361D03*
X133300000Y-76845361D03*
X171550000Y-107830000D03*
X113730000Y-72050000D03*
X169680000Y-100650000D03*
X169020000Y-74640000D03*
X184190000Y-95810000D03*
X191000000Y-72000000D03*
X149470000Y-105800000D03*
X114730000Y-71050000D03*
X136440000Y-76940000D03*
X149470000Y-103800000D03*
X174850000Y-100960000D03*
X142540000Y-77590000D03*
X156000000Y-84500000D03*
X171860000Y-80170000D03*
X170380000Y-87640000D03*
X116970000Y-77920000D03*
D25*
X108000000Y-86500000D03*
D24*
X186830000Y-83700000D03*
X192520000Y-92660000D03*
X145000000Y-87500000D03*
X146000000Y-83500000D03*
X170020000Y-75640000D03*
X147030000Y-92780000D03*
X156730000Y-100630000D03*
X184410000Y-93090000D03*
X140360000Y-93240000D03*
X185830000Y-82700000D03*
X156500000Y-87000000D03*
X124790000Y-77980000D03*
X191520000Y-93660000D03*
X146240000Y-79310000D03*
X158730000Y-100630000D03*
X182230000Y-77930000D03*
X171830000Y-83630000D03*
X182340000Y-101500000D03*
X185840000Y-80210000D03*
X138360000Y-93240000D03*
X169020000Y-75640000D03*
X127030000Y-74590000D03*
X141000000Y-83500000D03*
X118520000Y-77940000D03*
X191000000Y-71000000D03*
X175850000Y-99960000D03*
X126390000Y-108270000D03*
X118500000Y-79000000D03*
X108000000Y-92500000D03*
X186060000Y-92320000D03*
X185830000Y-83700000D03*
X183980000Y-108910000D03*
X148470000Y-104800000D03*
X183680000Y-102840000D03*
X170020000Y-74640000D03*
X138700000Y-102930000D03*
X125390000Y-107270000D03*
X190340000Y-100180000D03*
X126390000Y-107270000D03*
X110000000Y-90500000D03*
X167020000Y-75640000D03*
X186060000Y-93080000D03*
X171830000Y-82630000D03*
X110000000Y-91500000D03*
X176850000Y-99960000D03*
X181980000Y-108910000D03*
X170680000Y-100650000D03*
X191520000Y-92660000D03*
X187830000Y-83700000D03*
%TO.N,DRV8871_BI1*%
X174210000Y-96770000D03*
X158690000Y-73010000D03*
%TO.N,DRV8871_AI1*%
X158450000Y-96700000D03*
X179560000Y-83170000D03*
%TO.N,DRV8871_AI2*%
X180470000Y-80590000D03*
X158440000Y-97980000D03*
%TO.N,DRV8871_BI2*%
X158670000Y-75540000D03*
X174170000Y-98070000D03*
%TD*%
D26*
%TO.N,DRV8871_BI1*%
X158690000Y-73010000D02*
X158750000Y-73010000D01*
X158750000Y-73010000D02*
X159320000Y-73580000D01*
X159320000Y-73580000D02*
X175540000Y-73580000D01*
X175540000Y-73580000D02*
X181800000Y-79840000D01*
X181800000Y-79840000D02*
X181800000Y-89180000D01*
X181800000Y-89180000D02*
X174210000Y-96770000D01*
%TO.N,SCL*%
X150120000Y-74500000D02*
X150120000Y-75880000D01*
X156840000Y-73360000D02*
X158331000Y-71869000D01*
X150120000Y-75880000D02*
X151530000Y-77290000D01*
X151530000Y-77290000D02*
X155420000Y-77290000D01*
X178819000Y-71869000D02*
X184848042Y-77898042D01*
X155420000Y-77290000D02*
X156840000Y-75870000D01*
X156840000Y-75870000D02*
X156840000Y-73360000D01*
X158331000Y-71869000D02*
X178819000Y-71869000D01*
X184848042Y-77898042D02*
X188108494Y-77898042D01*
%TO.N,DRV8871_BI2*%
X177282659Y-76581000D02*
X181051000Y-80349341D01*
X158670000Y-75540000D02*
X158670000Y-75910000D01*
X158670000Y-75910000D02*
X159341000Y-76581000D01*
X159341000Y-76581000D02*
X177282659Y-76581000D01*
X181051000Y-80349341D02*
X181051000Y-89107341D01*
X181051000Y-89107341D02*
X173629000Y-96529341D01*
X173629000Y-96529341D02*
X173629000Y-97529000D01*
X173629000Y-97529000D02*
X174170000Y-98070000D01*
D27*
%TO.N,QR1113_R*%
X185200000Y-81620000D02*
X188280000Y-81620000D01*
X188280000Y-81620000D02*
X190201091Y-83541091D01*
X190201091Y-83541091D02*
X192268909Y-83541091D01*
X192268909Y-83541091D02*
X193790000Y-82020000D01*
X193790000Y-82020000D02*
X193790000Y-79612000D01*
X193790000Y-79612000D02*
X192090000Y-77912000D01*
X192090000Y-77912000D02*
X192090000Y-75510000D01*
X192090000Y-75510000D02*
X192100000Y-75500000D01*
D28*
%TO.N,GND*%
X107000000Y-73000000D02*
X109500000Y-73000000D01*
X110500000Y-73000000D02*
X109500000Y-73000000D01*
D27*
%TO.N,QR1113_L*%
X110185000Y-74500000D02*
X109565000Y-73880000D01*
X109565000Y-73880000D02*
X107270000Y-73880000D01*
X107270000Y-73880000D02*
X106100000Y-75050000D01*
X106100000Y-75050000D02*
X106100000Y-75500000D01*
X164654381Y-90672008D02*
X162672008Y-90672008D01*
X106100000Y-82250000D02*
X106100000Y-75500000D01*
X162672008Y-90672008D02*
X157799000Y-85799000D01*
X157799000Y-85799000D02*
X111007837Y-85799000D01*
X111007837Y-85799000D02*
X108248837Y-83040000D01*
X108248837Y-83040000D02*
X106890000Y-83040000D01*
X106890000Y-83040000D02*
X106100000Y-82250000D01*
%TO.N,Net-(U3-A)*%
X110020000Y-71500000D02*
X110230000Y-71710000D01*
X107900000Y-71500000D02*
X110020000Y-71500000D01*
%TO.N,+3V3*%
X112140000Y-74340000D02*
X112180000Y-74340000D01*
X187390000Y-74420000D02*
X187810000Y-74420000D01*
X113520000Y-73000000D02*
X112230000Y-71710000D01*
X186580000Y-71320000D02*
X156710000Y-71320000D01*
X187390000Y-75270000D02*
X188720000Y-76600000D01*
X112180000Y-74340000D02*
X113520000Y-73000000D01*
X155200000Y-74500000D02*
X155200000Y-72840000D01*
X156710000Y-71320000D02*
X155200000Y-72830000D01*
X187390000Y-74420000D02*
X187390000Y-75270000D01*
X154360000Y-72000000D02*
X118728764Y-72000000D01*
X189710000Y-76600000D02*
X192000000Y-78890000D01*
X187420000Y-72160000D02*
X186580000Y-71320000D01*
X192000000Y-78890000D02*
X192000000Y-81163403D01*
X117728764Y-73000000D02*
X113520000Y-73000000D01*
X118728764Y-72000000D02*
X117728764Y-73000000D01*
X187390000Y-72190000D02*
X187420000Y-72160000D01*
X155200000Y-72830000D02*
X155200000Y-74500000D01*
X155200000Y-72840000D02*
X154360000Y-72000000D01*
X187390000Y-74420000D02*
X187390000Y-72190000D01*
X188720000Y-76600000D02*
X189710000Y-76600000D01*
%TO.N,Net-(U4-A)*%
X193900000Y-72670000D02*
X193900000Y-71500000D01*
X190470000Y-73210000D02*
X193360000Y-73210000D01*
X189420000Y-72160000D02*
X190470000Y-73210000D01*
X193360000Y-73210000D02*
X193900000Y-72670000D01*
%TO.N,QR1113_R*%
X189340000Y-74750000D02*
X191350000Y-74750000D01*
X191350000Y-74750000D02*
X192100000Y-75500000D01*
D26*
%TO.N,SDA*%
X146180000Y-75900000D02*
X147580000Y-74500000D01*
X116170299Y-77898042D02*
X118168341Y-75900000D01*
X118168341Y-75900000D02*
X146180000Y-75900000D01*
X111891505Y-77898042D02*
X116170299Y-77898042D01*
%TO.N,SCL*%
X120489525Y-73040000D02*
X117264164Y-76265361D01*
X117264164Y-76265361D02*
X113837258Y-76265361D01*
X150120000Y-74500000D02*
X148660000Y-73040000D01*
X148660000Y-73040000D02*
X120489525Y-73040000D01*
%TO.N,VL53L0X_L*%
X154836597Y-81163403D02*
X157500000Y-78500000D01*
X108000000Y-81163403D02*
X154836597Y-81163403D01*
D28*
%TO.N,GND*%
X190054247Y-79530722D02*
X190054247Y-80875753D01*
X191600000Y-72000000D02*
X191000000Y-72000000D01*
X152660000Y-75840000D02*
X152500000Y-76000000D01*
X188169278Y-79530722D02*
X187470000Y-80230000D01*
X106100000Y-71500000D02*
X107000000Y-71500000D01*
X107000000Y-71500000D02*
X107000000Y-73000000D01*
X191600000Y-71000000D02*
X192100000Y-71500000D01*
X152660000Y-74500000D02*
X152660000Y-73160000D01*
X106100000Y-71500000D02*
X106000000Y-71500000D01*
X192100000Y-71500000D02*
X191600000Y-72000000D01*
X106100000Y-71100000D02*
X106000000Y-71000000D01*
X191600000Y-71000000D02*
X191000000Y-71000000D01*
X190054247Y-79530722D02*
X190469278Y-79530722D01*
X190054247Y-79530722D02*
X188169278Y-79530722D01*
X152660000Y-74500000D02*
X152660000Y-75840000D01*
X190054247Y-80875753D02*
X189650000Y-81280000D01*
D26*
%TO.N,DRV8871_AI1*%
X158450000Y-96700000D02*
X165380000Y-96700000D01*
X178910000Y-83170000D02*
X179560000Y-83170000D01*
X158450000Y-96700000D02*
X158460000Y-96710000D01*
X165380000Y-96700000D02*
X178910000Y-83170000D01*
%TO.N,DRV8871_AI2*%
X158440000Y-97980000D02*
X164740000Y-97980000D01*
X180470000Y-83081659D02*
X180470000Y-80590000D01*
X164740000Y-97980000D02*
X178969000Y-83751000D01*
X158440000Y-97980000D02*
X158450000Y-97990000D01*
X178969000Y-83751000D02*
X179800659Y-83751000D01*
X179800659Y-83751000D02*
X180470000Y-83081659D01*
%TD*%
%TA.AperFunction,Conductor*%
%TO.N,GND*%
G36*
X178585942Y-72489185D02*
G01*
X178606584Y-72505819D01*
X184363181Y-78262416D01*
X184363191Y-78262427D01*
X184367521Y-78266757D01*
X184367522Y-78266758D01*
X184479326Y-78378562D01*
X184552731Y-78420942D01*
X184616257Y-78457619D01*
X184768985Y-78498543D01*
X184768988Y-78498543D01*
X184934695Y-78498543D01*
X184934711Y-78498542D01*
X186822775Y-78498542D01*
X186889814Y-78518227D01*
X186933259Y-78566247D01*
X186953441Y-78605856D01*
X186953442Y-78605857D01*
X187078384Y-78777828D01*
X187228707Y-78928151D01*
X187400673Y-79053090D01*
X187400675Y-79053091D01*
X187400678Y-79053093D01*
X187590082Y-79149599D01*
X187792251Y-79215288D01*
X188002207Y-79248542D01*
X188002208Y-79248542D01*
X188214780Y-79248542D01*
X188214781Y-79248542D01*
X188424737Y-79215288D01*
X188561899Y-79170720D01*
X188631736Y-79168726D01*
X188691569Y-79204806D01*
X188722398Y-79267506D01*
X188722687Y-79308050D01*
X188704247Y-79424475D01*
X188704247Y-79636968D01*
X188737489Y-79846849D01*
X188737489Y-79846852D01*
X188803151Y-80048939D01*
X188899626Y-80238279D01*
X189008471Y-80388094D01*
X189582907Y-79703508D01*
X189588322Y-79723715D01*
X189654148Y-79837729D01*
X189747240Y-79930821D01*
X189861254Y-79996647D01*
X189966073Y-80024733D01*
X189392269Y-80708567D01*
X189536024Y-80781814D01*
X189738118Y-80847479D01*
X189948001Y-80880722D01*
X190160493Y-80880722D01*
X190217694Y-80871662D01*
X190286987Y-80880616D01*
X190340439Y-80925612D01*
X190361079Y-80992364D01*
X190353947Y-81035620D01*
X190306757Y-81168542D01*
X190298770Y-81312240D01*
X190298770Y-81312241D01*
X190331590Y-81452371D01*
X190331590Y-81452372D01*
X190331591Y-81452373D01*
X190331592Y-81452377D01*
X190402558Y-81577576D01*
X190402560Y-81577578D01*
X190444105Y-81620804D01*
X191636810Y-82621601D01*
X191675512Y-82679773D01*
X191676620Y-82749634D01*
X191639783Y-82809004D01*
X191576696Y-82839033D01*
X191557104Y-82840591D01*
X190542610Y-82840591D01*
X190475571Y-82820906D01*
X190454929Y-82804272D01*
X188726546Y-81075888D01*
X188726545Y-81075887D01*
X188611807Y-80999222D01*
X188484332Y-80946421D01*
X188484322Y-80946418D01*
X188348996Y-80919500D01*
X188348994Y-80919500D01*
X188348993Y-80919500D01*
X185625316Y-80919500D01*
X185577864Y-80910061D01*
X185433501Y-80850264D01*
X185433489Y-80850261D01*
X185278845Y-80819500D01*
X185278842Y-80819500D01*
X185121158Y-80819500D01*
X185121155Y-80819500D01*
X184966510Y-80850261D01*
X184966498Y-80850264D01*
X184820827Y-80910602D01*
X184820814Y-80910609D01*
X184689711Y-80998210D01*
X184689707Y-80998213D01*
X184578213Y-81109707D01*
X184578210Y-81109711D01*
X184490609Y-81240814D01*
X184490602Y-81240827D01*
X184430264Y-81386498D01*
X184430261Y-81386510D01*
X184399500Y-81541153D01*
X184399500Y-81698846D01*
X184430261Y-81853489D01*
X184430264Y-81853501D01*
X184490602Y-81999172D01*
X184490609Y-81999185D01*
X184578210Y-82130288D01*
X184578213Y-82130292D01*
X184689707Y-82241786D01*
X184689711Y-82241789D01*
X184820814Y-82329390D01*
X184820827Y-82329397D01*
X184887031Y-82356819D01*
X184966503Y-82389737D01*
X185114748Y-82419225D01*
X185121153Y-82420499D01*
X185121156Y-82420500D01*
X185121158Y-82420500D01*
X185278844Y-82420500D01*
X185278845Y-82420499D01*
X185433497Y-82389737D01*
X185525059Y-82351811D01*
X185577864Y-82329939D01*
X185625316Y-82320500D01*
X187938481Y-82320500D01*
X188005520Y-82340185D01*
X188026162Y-82356819D01*
X189754544Y-84085202D01*
X189754545Y-84085203D01*
X189869283Y-84161868D01*
X189996758Y-84214669D01*
X189996763Y-84214671D01*
X189996767Y-84214671D01*
X189996768Y-84214672D01*
X190132094Y-84241591D01*
X190132097Y-84241591D01*
X192337905Y-84241591D01*
X192428949Y-84223480D01*
X192473237Y-84214671D01*
X192567935Y-84175446D01*
X192600716Y-84161868D01*
X192600717Y-84161867D01*
X192600720Y-84161866D01*
X192715452Y-84085205D01*
X193216545Y-83584112D01*
X194287819Y-82512839D01*
X194349142Y-82479354D01*
X194418834Y-82484338D01*
X194474767Y-82526210D01*
X194499184Y-82591674D01*
X194499500Y-82600520D01*
X194499500Y-109375500D01*
X194479815Y-109442539D01*
X194427011Y-109488294D01*
X194375500Y-109499500D01*
X105624500Y-109499500D01*
X105557461Y-109479815D01*
X105511706Y-109427011D01*
X105500500Y-109375500D01*
X105500500Y-101323945D01*
X134029500Y-101323945D01*
X134029500Y-101516054D01*
X134059553Y-101705802D01*
X134118916Y-101888506D01*
X134195625Y-102039055D01*
X134206135Y-102059681D01*
X134319055Y-102215102D01*
X134454898Y-102350945D01*
X134610319Y-102463865D01*
X134684164Y-102501491D01*
X134781493Y-102551083D01*
X134846081Y-102572069D01*
X134903756Y-102611506D01*
X134930955Y-102675865D01*
X134919041Y-102744711D01*
X134871797Y-102796187D01*
X134846081Y-102807931D01*
X134781493Y-102828916D01*
X134610318Y-102916135D01*
X134537018Y-102969391D01*
X134454898Y-103029055D01*
X134454896Y-103029057D01*
X134454895Y-103029057D01*
X134319057Y-103164895D01*
X134319057Y-103164896D01*
X134319055Y-103164898D01*
X134270560Y-103231645D01*
X134206135Y-103320318D01*
X134118916Y-103491493D01*
X134059553Y-103674197D01*
X134029500Y-103863945D01*
X134029500Y-104056054D01*
X134059553Y-104245802D01*
X134118916Y-104428506D01*
X134193305Y-104574501D01*
X134206135Y-104599681D01*
X134319055Y-104755102D01*
X134454898Y-104890945D01*
X134610319Y-105003865D01*
X134653100Y-105025663D01*
X134781493Y-105091083D01*
X134846081Y-105112069D01*
X134903756Y-105151506D01*
X134930955Y-105215865D01*
X134919041Y-105284711D01*
X134871797Y-105336187D01*
X134846081Y-105347931D01*
X134781493Y-105368916D01*
X134610318Y-105456135D01*
X134521645Y-105520560D01*
X134454898Y-105569055D01*
X134454896Y-105569057D01*
X134454895Y-105569057D01*
X134319057Y-105704895D01*
X134319057Y-105704896D01*
X134319055Y-105704898D01*
X134270560Y-105771645D01*
X134206135Y-105860318D01*
X134118916Y-106031493D01*
X134059553Y-106214197D01*
X134044124Y-106311611D01*
X134029500Y-106403945D01*
X134029500Y-106596055D01*
X134037255Y-106645018D01*
X134059553Y-106785802D01*
X134118916Y-106968506D01*
X134167783Y-107064411D01*
X134206135Y-107139681D01*
X134319055Y-107295102D01*
X134454898Y-107430945D01*
X134610319Y-107543865D01*
X134781491Y-107631082D01*
X134781493Y-107631083D01*
X134872845Y-107660764D01*
X134964199Y-107690447D01*
X135153945Y-107720500D01*
X135153946Y-107720500D01*
X135346054Y-107720500D01*
X135346055Y-107720500D01*
X135535801Y-107690447D01*
X135718509Y-107631082D01*
X135889681Y-107543865D01*
X136045102Y-107430945D01*
X136180945Y-107295102D01*
X136293865Y-107139681D01*
X136381082Y-106968509D01*
X136440447Y-106785801D01*
X136470500Y-106596055D01*
X136470500Y-106403945D01*
X136440447Y-106214199D01*
X136381082Y-106031491D01*
X136293865Y-105860319D01*
X136180945Y-105704898D01*
X136045102Y-105569055D01*
X135889681Y-105456135D01*
X135750583Y-105385260D01*
X135750578Y-105385258D01*
X135718509Y-105368918D01*
X135650804Y-105346919D01*
X135647758Y-105345749D01*
X135622481Y-105326435D01*
X135596243Y-105308494D01*
X135594927Y-105305380D01*
X135592241Y-105303328D01*
X135581986Y-105274983D01*
X141599500Y-105274983D01*
X141599500Y-106625001D01*
X141599501Y-106625018D01*
X141610000Y-106727796D01*
X141610001Y-106727799D01*
X141665185Y-106894331D01*
X141665187Y-106894336D01*
X141688870Y-106932732D01*
X141757288Y-107043656D01*
X141881344Y-107167712D01*
X142030666Y-107259814D01*
X142197203Y-107314999D01*
X142299991Y-107325500D01*
X143100008Y-107325499D01*
X143100016Y-107325498D01*
X143100019Y-107325498D01*
X143156302Y-107319748D01*
X143202797Y-107314999D01*
X143369334Y-107259814D01*
X143518656Y-107167712D01*
X143642712Y-107043656D01*
X143682310Y-106979456D01*
X143734258Y-106932732D01*
X143803220Y-106921509D01*
X143867303Y-106949352D01*
X143875530Y-106956872D01*
X143983072Y-107064414D01*
X144123212Y-107166232D01*
X144277555Y-107244873D01*
X144442299Y-107298402D01*
X144613389Y-107325500D01*
X144613390Y-107325500D01*
X144786610Y-107325500D01*
X144786611Y-107325500D01*
X144957701Y-107298402D01*
X145122445Y-107244873D01*
X145276788Y-107166232D01*
X145416928Y-107064414D01*
X145539414Y-106941928D01*
X145641232Y-106801788D01*
X145719873Y-106647445D01*
X145773402Y-106482701D01*
X145800500Y-106311611D01*
X145800500Y-105588389D01*
X145773402Y-105417299D01*
X145733659Y-105294983D01*
X151299500Y-105294983D01*
X151299500Y-106645001D01*
X151299501Y-106645018D01*
X151310000Y-106747796D01*
X151310001Y-106747799D01*
X151365185Y-106914331D01*
X151365187Y-106914336D01*
X151382206Y-106941928D01*
X151457288Y-107063656D01*
X151581344Y-107187712D01*
X151730666Y-107279814D01*
X151897203Y-107334999D01*
X151999991Y-107345500D01*
X152800008Y-107345499D01*
X152800016Y-107345498D01*
X152800019Y-107345498D01*
X152856302Y-107339748D01*
X152902797Y-107334999D01*
X153069334Y-107279814D01*
X153218656Y-107187712D01*
X153342712Y-107063656D01*
X153382310Y-106999456D01*
X153434258Y-106952732D01*
X153503220Y-106941509D01*
X153567303Y-106969352D01*
X153575530Y-106976872D01*
X153683072Y-107084414D01*
X153823212Y-107186232D01*
X153977555Y-107264873D01*
X154142299Y-107318402D01*
X154313389Y-107345500D01*
X154313390Y-107345500D01*
X154486610Y-107345500D01*
X154486611Y-107345500D01*
X154657701Y-107318402D01*
X154822445Y-107264873D01*
X154976788Y-107186232D01*
X155116928Y-107084414D01*
X155239414Y-106961928D01*
X155341232Y-106821788D01*
X155419873Y-106667445D01*
X155473402Y-106502701D01*
X155500500Y-106331611D01*
X155500500Y-105608389D01*
X155494270Y-105569055D01*
X155473403Y-105437304D01*
X155473402Y-105437303D01*
X155473402Y-105437299D01*
X155465814Y-105413945D01*
X188449500Y-105413945D01*
X188449500Y-105606054D01*
X188479553Y-105795802D01*
X188538916Y-105978506D01*
X188538918Y-105978509D01*
X188626135Y-106149681D01*
X188739055Y-106305102D01*
X188874898Y-106440945D01*
X189030319Y-106553865D01*
X189169944Y-106625008D01*
X189201493Y-106641083D01*
X189282635Y-106667447D01*
X189384199Y-106700447D01*
X189573945Y-106730500D01*
X189573946Y-106730500D01*
X189766054Y-106730500D01*
X189766055Y-106730500D01*
X189955801Y-106700447D01*
X190138509Y-106641082D01*
X190309681Y-106553865D01*
X190465102Y-106440945D01*
X190600945Y-106305102D01*
X190713865Y-106149681D01*
X190801082Y-105978509D01*
X190860447Y-105795801D01*
X190890500Y-105606055D01*
X190890500Y-105413945D01*
X190860447Y-105224199D01*
X190801082Y-105041491D01*
X190713865Y-104870319D01*
X190600945Y-104714898D01*
X190465102Y-104579055D01*
X190309681Y-104466135D01*
X190138506Y-104378916D01*
X189955802Y-104319553D01*
X189860928Y-104304526D01*
X189766055Y-104289500D01*
X189573945Y-104289500D01*
X189510696Y-104299517D01*
X189384197Y-104319553D01*
X189201493Y-104378916D01*
X189030318Y-104466135D01*
X188941645Y-104530560D01*
X188874898Y-104579055D01*
X188874896Y-104579057D01*
X188874895Y-104579057D01*
X188739057Y-104714895D01*
X188739057Y-104714896D01*
X188739055Y-104714898D01*
X188709844Y-104755104D01*
X188626135Y-104870318D01*
X188538916Y-105041493D01*
X188479553Y-105224197D01*
X188449500Y-105413945D01*
X155465814Y-105413945D01*
X155419873Y-105272555D01*
X155341232Y-105118212D01*
X155239414Y-104978072D01*
X155116928Y-104855586D01*
X154976788Y-104753768D01*
X154822445Y-104675127D01*
X154657701Y-104621598D01*
X154657699Y-104621597D01*
X154657698Y-104621597D01*
X154526271Y-104600781D01*
X154486611Y-104594500D01*
X154313389Y-104594500D01*
X154273728Y-104600781D01*
X154142302Y-104621597D01*
X153977552Y-104675128D01*
X153823211Y-104753768D01*
X153683073Y-104855585D01*
X153575530Y-104963128D01*
X153514207Y-104996612D01*
X153444515Y-104991628D01*
X153388582Y-104949756D01*
X153382310Y-104940543D01*
X153342712Y-104876344D01*
X153218656Y-104752288D01*
X153093559Y-104675128D01*
X153069336Y-104660187D01*
X153069331Y-104660185D01*
X153054067Y-104655127D01*
X152902797Y-104605001D01*
X152902795Y-104605000D01*
X152800010Y-104594500D01*
X151999998Y-104594500D01*
X151999980Y-104594501D01*
X151897203Y-104605000D01*
X151897200Y-104605001D01*
X151730668Y-104660185D01*
X151730663Y-104660187D01*
X151581342Y-104752289D01*
X151457289Y-104876342D01*
X151365187Y-105025663D01*
X151365186Y-105025666D01*
X151310001Y-105192203D01*
X151310001Y-105192204D01*
X151310000Y-105192204D01*
X151299500Y-105294983D01*
X145733659Y-105294983D01*
X145719873Y-105252555D01*
X145719871Y-105252552D01*
X145719871Y-105252550D01*
X145653233Y-105121766D01*
X145641232Y-105098212D01*
X145539414Y-104958072D01*
X145416928Y-104835586D01*
X145276788Y-104733768D01*
X145122445Y-104655127D01*
X144957701Y-104601598D01*
X144957699Y-104601597D01*
X144957698Y-104601597D01*
X144826271Y-104580781D01*
X144786611Y-104574500D01*
X144613389Y-104574500D01*
X144573728Y-104580781D01*
X144442302Y-104601597D01*
X144277552Y-104655128D01*
X144123211Y-104733768D01*
X143983073Y-104835585D01*
X143875530Y-104943128D01*
X143814207Y-104976612D01*
X143744515Y-104971628D01*
X143688582Y-104929756D01*
X143682310Y-104920543D01*
X143664052Y-104890942D01*
X143642712Y-104856344D01*
X143518656Y-104732288D01*
X143401761Y-104660187D01*
X143369336Y-104640187D01*
X143369331Y-104640185D01*
X143313236Y-104621597D01*
X143202797Y-104585001D01*
X143202795Y-104585000D01*
X143100010Y-104574500D01*
X142299998Y-104574500D01*
X142299980Y-104574501D01*
X142197203Y-104585000D01*
X142197200Y-104585001D01*
X142030668Y-104640185D01*
X142030663Y-104640187D01*
X141881342Y-104732289D01*
X141757289Y-104856342D01*
X141665187Y-105005663D01*
X141665185Y-105005668D01*
X141658558Y-105025668D01*
X141610001Y-105172203D01*
X141610001Y-105172204D01*
X141610000Y-105172204D01*
X141599500Y-105274983D01*
X135581986Y-105274983D01*
X135581425Y-105273431D01*
X135569044Y-105244136D01*
X135569620Y-105240803D01*
X135568471Y-105237626D01*
X135575534Y-105206628D01*
X135580958Y-105175289D01*
X135583243Y-105172798D01*
X135583995Y-105169502D01*
X135606699Y-105147241D01*
X135628202Y-105123813D01*
X135632682Y-105121766D01*
X135633886Y-105120587D01*
X135636413Y-105120063D01*
X135653919Y-105112069D01*
X135718504Y-105091084D01*
X135718506Y-105091082D01*
X135718509Y-105091082D01*
X135889681Y-105003865D01*
X136045102Y-104890945D01*
X136180945Y-104755102D01*
X136293865Y-104599681D01*
X136381082Y-104428509D01*
X136440447Y-104245801D01*
X136470500Y-104056055D01*
X136470500Y-103863945D01*
X136440447Y-103674199D01*
X136381082Y-103491491D01*
X136293865Y-103320319D01*
X136180945Y-103164898D01*
X136045102Y-103029055D01*
X135889681Y-102916135D01*
X135806879Y-102873945D01*
X185909500Y-102873945D01*
X185909500Y-103066054D01*
X185939553Y-103255802D01*
X185998916Y-103438506D01*
X185998918Y-103438509D01*
X186086135Y-103609681D01*
X186199055Y-103765102D01*
X186334898Y-103900945D01*
X186490319Y-104013865D01*
X186661491Y-104101082D01*
X186661493Y-104101083D01*
X186752845Y-104130764D01*
X186844199Y-104160447D01*
X187033945Y-104190500D01*
X187033946Y-104190500D01*
X187226054Y-104190500D01*
X187226055Y-104190500D01*
X187415801Y-104160447D01*
X187598509Y-104101082D01*
X187769681Y-104013865D01*
X187925102Y-103900945D01*
X188060945Y-103765102D01*
X188173865Y-103609681D01*
X188261082Y-103438509D01*
X188320447Y-103255801D01*
X188350500Y-103066055D01*
X188350500Y-102873945D01*
X190989500Y-102873945D01*
X190989500Y-103066054D01*
X191019553Y-103255802D01*
X191078916Y-103438506D01*
X191078918Y-103438509D01*
X191166135Y-103609681D01*
X191279055Y-103765102D01*
X191414898Y-103900945D01*
X191570319Y-104013865D01*
X191741491Y-104101082D01*
X191741493Y-104101083D01*
X191832845Y-104130764D01*
X191924199Y-104160447D01*
X192113945Y-104190500D01*
X192113946Y-104190500D01*
X192306054Y-104190500D01*
X192306055Y-104190500D01*
X192495801Y-104160447D01*
X192678509Y-104101082D01*
X192849681Y-104013865D01*
X193005102Y-103900945D01*
X193140945Y-103765102D01*
X193253865Y-103609681D01*
X193341082Y-103438509D01*
X193400447Y-103255801D01*
X193430500Y-103066055D01*
X193430500Y-102873945D01*
X193400447Y-102684199D01*
X193341082Y-102501491D01*
X193253865Y-102330319D01*
X193140945Y-102174898D01*
X193005102Y-102039055D01*
X192849681Y-101926135D01*
X192678506Y-101838916D01*
X192495802Y-101779553D01*
X192400928Y-101764526D01*
X192306055Y-101749500D01*
X192113945Y-101749500D01*
X192050696Y-101759517D01*
X191924197Y-101779553D01*
X191741493Y-101838916D01*
X191570318Y-101926135D01*
X191481645Y-101990560D01*
X191414898Y-102039055D01*
X191414896Y-102039057D01*
X191414895Y-102039057D01*
X191279057Y-102174895D01*
X191279057Y-102174896D01*
X191279055Y-102174898D01*
X191249844Y-102215104D01*
X191166135Y-102330318D01*
X191078916Y-102501493D01*
X191019553Y-102684197D01*
X190989500Y-102873945D01*
X188350500Y-102873945D01*
X188320447Y-102684199D01*
X188261082Y-102501491D01*
X188173865Y-102330319D01*
X188060945Y-102174898D01*
X187925102Y-102039055D01*
X187769681Y-101926135D01*
X187598506Y-101838916D01*
X187415802Y-101779553D01*
X187320928Y-101764526D01*
X187226055Y-101749500D01*
X187033945Y-101749500D01*
X186970696Y-101759517D01*
X186844197Y-101779553D01*
X186661493Y-101838916D01*
X186490318Y-101926135D01*
X186401645Y-101990560D01*
X186334898Y-102039055D01*
X186334896Y-102039057D01*
X186334895Y-102039057D01*
X186199057Y-102174895D01*
X186199057Y-102174896D01*
X186199055Y-102174898D01*
X186169844Y-102215104D01*
X186086135Y-102330318D01*
X185998916Y-102501493D01*
X185939553Y-102684197D01*
X185909500Y-102873945D01*
X135806879Y-102873945D01*
X135718504Y-102828915D01*
X135653919Y-102807931D01*
X135596243Y-102768494D01*
X135569044Y-102704136D01*
X135580958Y-102635289D01*
X135628202Y-102583813D01*
X135653919Y-102572069D01*
X135718504Y-102551084D01*
X135718506Y-102551082D01*
X135718509Y-102551082D01*
X135889681Y-102463865D01*
X136045102Y-102350945D01*
X136180945Y-102215102D01*
X136293865Y-102059681D01*
X136381082Y-101888509D01*
X136440447Y-101705801D01*
X136470500Y-101516055D01*
X136470500Y-101323945D01*
X136440447Y-101134199D01*
X136381082Y-100951491D01*
X136293865Y-100780319D01*
X136180945Y-100624898D01*
X136045102Y-100489055D01*
X135889681Y-100376135D01*
X135718506Y-100288916D01*
X135535802Y-100229553D01*
X135440928Y-100214526D01*
X135346055Y-100199500D01*
X135153945Y-100199500D01*
X135090696Y-100209517D01*
X134964197Y-100229553D01*
X134781493Y-100288916D01*
X134610318Y-100376135D01*
X134521645Y-100440560D01*
X134454898Y-100489055D01*
X134454896Y-100489057D01*
X134454895Y-100489057D01*
X134319057Y-100624895D01*
X134319057Y-100624896D01*
X134319055Y-100624898D01*
X134270560Y-100691645D01*
X134206135Y-100780318D01*
X134118916Y-100951493D01*
X134059553Y-101134197D01*
X134029500Y-101323945D01*
X105500500Y-101323945D01*
X105500500Y-99042844D01*
X151995000Y-99042844D01*
X152001401Y-99102372D01*
X152001403Y-99102379D01*
X152051645Y-99237086D01*
X152051649Y-99237093D01*
X152137809Y-99352187D01*
X152137812Y-99352190D01*
X152252906Y-99438350D01*
X152252913Y-99438354D01*
X152387620Y-99488596D01*
X152387627Y-99488598D01*
X152447155Y-99494999D01*
X152447172Y-99495000D01*
X153545000Y-99495000D01*
X153545000Y-99398554D01*
X153544999Y-99398553D01*
X154045000Y-99398553D01*
X154045000Y-99495000D01*
X155142828Y-99495000D01*
X155142844Y-99494999D01*
X155202372Y-99488598D01*
X155202379Y-99488596D01*
X155337086Y-99438354D01*
X155337093Y-99438350D01*
X155452187Y-99352190D01*
X155452190Y-99352187D01*
X155538350Y-99237093D01*
X155538354Y-99237086D01*
X155588423Y-99102844D01*
X167575000Y-99102844D01*
X167581401Y-99162372D01*
X167581403Y-99162379D01*
X167631645Y-99297086D01*
X167631649Y-99297093D01*
X167717809Y-99412187D01*
X167717812Y-99412190D01*
X167832906Y-99498350D01*
X167832913Y-99498354D01*
X167967620Y-99548596D01*
X167967627Y-99548598D01*
X168027155Y-99554999D01*
X168027172Y-99555000D01*
X169125000Y-99555000D01*
X169125000Y-99458554D01*
X169124999Y-99458553D01*
X169625000Y-99458553D01*
X169625000Y-99555000D01*
X170722828Y-99555000D01*
X170722844Y-99554999D01*
X170782372Y-99548598D01*
X170782379Y-99548596D01*
X170917086Y-99498354D01*
X170917093Y-99498350D01*
X171032187Y-99412190D01*
X171032190Y-99412187D01*
X171118350Y-99297093D01*
X171118354Y-99297086D01*
X171168596Y-99162379D01*
X171168598Y-99162372D01*
X171174999Y-99102844D01*
X171175000Y-99102827D01*
X171175000Y-97655000D01*
X170628553Y-97655000D01*
X170782311Y-97808758D01*
X170815796Y-97870081D01*
X170810812Y-97939773D01*
X170782312Y-97984120D01*
X170711432Y-98055000D01*
X170782312Y-98125880D01*
X170815797Y-98187203D01*
X170810813Y-98256895D01*
X170782312Y-98301242D01*
X169625000Y-99458553D01*
X169124999Y-99458553D01*
X168338625Y-98672179D01*
X168560000Y-98672179D01*
X168560000Y-98737821D01*
X168585119Y-98798465D01*
X168631535Y-98844881D01*
X168692179Y-98870000D01*
X168757821Y-98870000D01*
X168818465Y-98844881D01*
X168864881Y-98798465D01*
X168890000Y-98737821D01*
X168890000Y-98705000D01*
X169078554Y-98705000D01*
X169125000Y-98751445D01*
X169125000Y-98751444D01*
X169625000Y-98751444D01*
X169671445Y-98705000D01*
X169638624Y-98672179D01*
X169860000Y-98672179D01*
X169860000Y-98737821D01*
X169885119Y-98798465D01*
X169931535Y-98844881D01*
X169992179Y-98870000D01*
X170057821Y-98870000D01*
X170118465Y-98844881D01*
X170164881Y-98798465D01*
X170190000Y-98737821D01*
X170190000Y-98672179D01*
X170164881Y-98611535D01*
X170118465Y-98565119D01*
X170057821Y-98540000D01*
X169992179Y-98540000D01*
X169931535Y-98565119D01*
X169885119Y-98611535D01*
X169860000Y-98672179D01*
X169638624Y-98672179D01*
X169625000Y-98658555D01*
X169625000Y-98751444D01*
X169125000Y-98751444D01*
X169125000Y-98658554D01*
X169078554Y-98705000D01*
X168890000Y-98705000D01*
X168890000Y-98672179D01*
X168864881Y-98611535D01*
X168818465Y-98565119D01*
X168757821Y-98540000D01*
X168692179Y-98540000D01*
X168631535Y-98565119D01*
X168585119Y-98611535D01*
X168560000Y-98672179D01*
X168338625Y-98672179D01*
X167967688Y-98301242D01*
X167934203Y-98239919D01*
X167939187Y-98170227D01*
X167944935Y-98157167D01*
X167997107Y-98055000D01*
X168428554Y-98055000D01*
X168725000Y-98351446D01*
X169021446Y-98055000D01*
X169728554Y-98055000D01*
X170025000Y-98351446D01*
X170321446Y-98055000D01*
X170025000Y-97758554D01*
X169728554Y-98055000D01*
X169021446Y-98055000D01*
X168725000Y-97758554D01*
X168428554Y-98055000D01*
X167997107Y-98055000D01*
X168011122Y-98027554D01*
X167967688Y-97984120D01*
X167934203Y-97922797D01*
X167939187Y-97853105D01*
X167967688Y-97808758D01*
X168121446Y-97655000D01*
X167575000Y-97655000D01*
X167575000Y-99102844D01*
X155588423Y-99102844D01*
X155588596Y-99102379D01*
X155588598Y-99102372D01*
X155594999Y-99042844D01*
X155595000Y-99042827D01*
X155595000Y-97595000D01*
X155048553Y-97595000D01*
X155202311Y-97748758D01*
X155235796Y-97810081D01*
X155230812Y-97879773D01*
X155202312Y-97924120D01*
X155131432Y-97995000D01*
X155202312Y-98065880D01*
X155235797Y-98127203D01*
X155230813Y-98196895D01*
X155202312Y-98241242D01*
X154045000Y-99398553D01*
X153544999Y-99398553D01*
X152758625Y-98612179D01*
X152980000Y-98612179D01*
X152980000Y-98677821D01*
X153005119Y-98738465D01*
X153051535Y-98784881D01*
X153112179Y-98810000D01*
X153177821Y-98810000D01*
X153238465Y-98784881D01*
X153284881Y-98738465D01*
X153310000Y-98677821D01*
X153310000Y-98645000D01*
X153498554Y-98645000D01*
X153545000Y-98691445D01*
X153545000Y-98691444D01*
X154045000Y-98691444D01*
X154091445Y-98645000D01*
X154058624Y-98612179D01*
X154280000Y-98612179D01*
X154280000Y-98677821D01*
X154305119Y-98738465D01*
X154351535Y-98784881D01*
X154412179Y-98810000D01*
X154477821Y-98810000D01*
X154538465Y-98784881D01*
X154584881Y-98738465D01*
X154610000Y-98677821D01*
X154610000Y-98612179D01*
X154584881Y-98551535D01*
X154538465Y-98505119D01*
X154477821Y-98480000D01*
X154412179Y-98480000D01*
X154351535Y-98505119D01*
X154305119Y-98551535D01*
X154280000Y-98612179D01*
X154058624Y-98612179D01*
X154045000Y-98598555D01*
X154045000Y-98691444D01*
X153545000Y-98691444D01*
X153545000Y-98598554D01*
X153498554Y-98645000D01*
X153310000Y-98645000D01*
X153310000Y-98612179D01*
X153284881Y-98551535D01*
X153238465Y-98505119D01*
X153177821Y-98480000D01*
X153112179Y-98480000D01*
X153051535Y-98505119D01*
X153005119Y-98551535D01*
X152980000Y-98612179D01*
X152758625Y-98612179D01*
X152387688Y-98241242D01*
X152354203Y-98179919D01*
X152359187Y-98110227D01*
X152364935Y-98097167D01*
X152417107Y-97995000D01*
X152848554Y-97995000D01*
X153145000Y-98291446D01*
X153441446Y-97995000D01*
X154148554Y-97995000D01*
X154445000Y-98291446D01*
X154741446Y-97995000D01*
X154445000Y-97698554D01*
X154148554Y-97995000D01*
X153441446Y-97995000D01*
X153145000Y-97698554D01*
X152848554Y-97995000D01*
X152417107Y-97995000D01*
X152431122Y-97967554D01*
X152387688Y-97924120D01*
X152354203Y-97862797D01*
X152359187Y-97793105D01*
X152387688Y-97748758D01*
X152541446Y-97595000D01*
X151995000Y-97595000D01*
X151995000Y-99042844D01*
X105500500Y-99042844D01*
X105500500Y-96295013D01*
X140520000Y-96295013D01*
X140520000Y-96720000D01*
X141339670Y-96720000D01*
X141319925Y-96739745D01*
X141270556Y-96825255D01*
X141245000Y-96920630D01*
X141245000Y-97019370D01*
X141270556Y-97114745D01*
X141319925Y-97200255D01*
X141339670Y-97220000D01*
X140520001Y-97220000D01*
X140520001Y-97644986D01*
X140530494Y-97747697D01*
X140585641Y-97914119D01*
X140585643Y-97914124D01*
X140677684Y-98063345D01*
X140801654Y-98187315D01*
X140950875Y-98279356D01*
X140950880Y-98279358D01*
X141117302Y-98334505D01*
X141117309Y-98334506D01*
X141220019Y-98344999D01*
X141369999Y-98344999D01*
X141370000Y-98344998D01*
X141370000Y-97250330D01*
X141389745Y-97270075D01*
X141475255Y-97319444D01*
X141570630Y-97345000D01*
X141669370Y-97345000D01*
X141764745Y-97319444D01*
X141850255Y-97270075D01*
X141870000Y-97250330D01*
X141870000Y-98344999D01*
X142019972Y-98344999D01*
X142019986Y-98344998D01*
X142122697Y-98334505D01*
X142289119Y-98279358D01*
X142289124Y-98279356D01*
X142438345Y-98187315D01*
X142562315Y-98063345D01*
X142601945Y-97999094D01*
X142653893Y-97952368D01*
X142722855Y-97941145D01*
X142786937Y-97968988D01*
X142795166Y-97976508D01*
X142903072Y-98084414D01*
X143043212Y-98186232D01*
X143197555Y-98264873D01*
X143362299Y-98318402D01*
X143533389Y-98345500D01*
X143533390Y-98345500D01*
X143706610Y-98345500D01*
X143706611Y-98345500D01*
X143877701Y-98318402D01*
X144042445Y-98264873D01*
X144196788Y-98186232D01*
X144336928Y-98084414D01*
X144459414Y-97961928D01*
X144561232Y-97821788D01*
X144639873Y-97667445D01*
X144693402Y-97502701D01*
X144720500Y-97331611D01*
X144720500Y-97312179D01*
X152980000Y-97312179D01*
X152980000Y-97377821D01*
X153005119Y-97438465D01*
X153051535Y-97484881D01*
X153112179Y-97510000D01*
X153177821Y-97510000D01*
X153238465Y-97484881D01*
X153284881Y-97438465D01*
X153310000Y-97377821D01*
X153310000Y-97312179D01*
X154280000Y-97312179D01*
X154280000Y-97377821D01*
X154305119Y-97438465D01*
X154351535Y-97484881D01*
X154412179Y-97510000D01*
X154477821Y-97510000D01*
X154538465Y-97484881D01*
X154584881Y-97438465D01*
X154610000Y-97377821D01*
X154610000Y-97312179D01*
X154584881Y-97251535D01*
X154538465Y-97205119D01*
X154477821Y-97180000D01*
X154412179Y-97180000D01*
X154351535Y-97205119D01*
X154305119Y-97251535D01*
X154280000Y-97312179D01*
X153310000Y-97312179D01*
X153284881Y-97251535D01*
X153238465Y-97205119D01*
X153177821Y-97180000D01*
X153112179Y-97180000D01*
X153051535Y-97205119D01*
X153005119Y-97251535D01*
X152980000Y-97312179D01*
X144720500Y-97312179D01*
X144720500Y-96608389D01*
X144693402Y-96437299D01*
X144639873Y-96272555D01*
X144561232Y-96118212D01*
X144459414Y-95978072D01*
X144336928Y-95855586D01*
X144196788Y-95753768D01*
X144042445Y-95675127D01*
X143956357Y-95647155D01*
X151995000Y-95647155D01*
X151995000Y-97095000D01*
X152541446Y-97095000D01*
X152541446Y-97094999D01*
X152387688Y-96941241D01*
X152354203Y-96879918D01*
X152359187Y-96810226D01*
X152364935Y-96797166D01*
X152417107Y-96695000D01*
X152848554Y-96695000D01*
X153145000Y-96991446D01*
X153441446Y-96695000D01*
X154148554Y-96695000D01*
X154445000Y-96991446D01*
X154741446Y-96695000D01*
X154445000Y-96398554D01*
X154148554Y-96695000D01*
X153441446Y-96695000D01*
X153145000Y-96398554D01*
X152848554Y-96695000D01*
X152417107Y-96695000D01*
X152431122Y-96667554D01*
X152387688Y-96624120D01*
X152354203Y-96562797D01*
X152359187Y-96493105D01*
X152387688Y-96448758D01*
X152824267Y-96012179D01*
X152980000Y-96012179D01*
X152980000Y-96077821D01*
X153005119Y-96138465D01*
X153051535Y-96184881D01*
X153112179Y-96210000D01*
X153177821Y-96210000D01*
X153238465Y-96184881D01*
X153284881Y-96138465D01*
X153310000Y-96077821D01*
X153310000Y-96045000D01*
X153498554Y-96045000D01*
X153545000Y-96091445D01*
X153545000Y-96091444D01*
X154045000Y-96091444D01*
X154091445Y-96045000D01*
X154058624Y-96012179D01*
X154280000Y-96012179D01*
X154280000Y-96077821D01*
X154305119Y-96138465D01*
X154351535Y-96184881D01*
X154412179Y-96210000D01*
X154477821Y-96210000D01*
X154538465Y-96184881D01*
X154584881Y-96138465D01*
X154610000Y-96077821D01*
X154610000Y-96012179D01*
X154584881Y-95951535D01*
X154538465Y-95905119D01*
X154477821Y-95880000D01*
X154412179Y-95880000D01*
X154351535Y-95905119D01*
X154305119Y-95951535D01*
X154280000Y-96012179D01*
X154058624Y-96012179D01*
X154045000Y-95998555D01*
X154045000Y-96091444D01*
X153545000Y-96091444D01*
X153545000Y-95998554D01*
X153498554Y-96045000D01*
X153310000Y-96045000D01*
X153310000Y-96012179D01*
X153284881Y-95951535D01*
X153238465Y-95905119D01*
X153177821Y-95880000D01*
X153112179Y-95880000D01*
X153051535Y-95905119D01*
X153005119Y-95951535D01*
X152980000Y-96012179D01*
X152824267Y-96012179D01*
X152930489Y-95905957D01*
X153544999Y-95291446D01*
X154045000Y-95291446D01*
X155202312Y-96448758D01*
X155235797Y-96510081D01*
X155230813Y-96579773D01*
X155202312Y-96624120D01*
X155131432Y-96695000D01*
X155202311Y-96765879D01*
X155235796Y-96827202D01*
X155230812Y-96896894D01*
X155202311Y-96941241D01*
X155048553Y-97094998D01*
X155048554Y-97095000D01*
X155595000Y-97095000D01*
X155595000Y-95647172D01*
X155594999Y-95647155D01*
X155588598Y-95587627D01*
X155588596Y-95587620D01*
X155538354Y-95452913D01*
X155538350Y-95452906D01*
X155452190Y-95337812D01*
X155452187Y-95337809D01*
X155337093Y-95251649D01*
X155337086Y-95251645D01*
X155202379Y-95201403D01*
X155202372Y-95201401D01*
X155142844Y-95195000D01*
X154045000Y-95195000D01*
X154045000Y-95291446D01*
X153544999Y-95291446D01*
X153545000Y-95291445D01*
X153545000Y-95195000D01*
X152447155Y-95195000D01*
X152387627Y-95201401D01*
X152387620Y-95201403D01*
X152252913Y-95251645D01*
X152252906Y-95251649D01*
X152137812Y-95337809D01*
X152137809Y-95337812D01*
X152051649Y-95452906D01*
X152051645Y-95452913D01*
X152001403Y-95587620D01*
X152001401Y-95587627D01*
X151995000Y-95647155D01*
X143956357Y-95647155D01*
X143877701Y-95621598D01*
X143877699Y-95621597D01*
X143877698Y-95621597D01*
X143746271Y-95600781D01*
X143706611Y-95594500D01*
X143533389Y-95594500D01*
X143493728Y-95600781D01*
X143362302Y-95621597D01*
X143197552Y-95675128D01*
X143043211Y-95753768D01*
X142903073Y-95855585D01*
X142795166Y-95963492D01*
X142733843Y-95996976D01*
X142664151Y-95991992D01*
X142608218Y-95950120D01*
X142601946Y-95940906D01*
X142562317Y-95876656D01*
X142438345Y-95752684D01*
X142289124Y-95660643D01*
X142289119Y-95660641D01*
X142122697Y-95605494D01*
X142122690Y-95605493D01*
X142019986Y-95595000D01*
X141870000Y-95595000D01*
X141870000Y-96689670D01*
X141850255Y-96669925D01*
X141764745Y-96620556D01*
X141669370Y-96595000D01*
X141570630Y-96595000D01*
X141475255Y-96620556D01*
X141389745Y-96669925D01*
X141370000Y-96689670D01*
X141370000Y-95595000D01*
X141220027Y-95595000D01*
X141220012Y-95595001D01*
X141117302Y-95605494D01*
X140950880Y-95660641D01*
X140950875Y-95660643D01*
X140801654Y-95752684D01*
X140677684Y-95876654D01*
X140585643Y-96025875D01*
X140585641Y-96025880D01*
X140530494Y-96192302D01*
X140530493Y-96192309D01*
X140520000Y-96295013D01*
X105500500Y-96295013D01*
X105500500Y-82940520D01*
X105520185Y-82873481D01*
X105572989Y-82827726D01*
X105642147Y-82817782D01*
X105705703Y-82846807D01*
X105712181Y-82852839D01*
X106443454Y-83584112D01*
X106558192Y-83660777D01*
X106685667Y-83713578D01*
X106685672Y-83713580D01*
X106685676Y-83713580D01*
X106685677Y-83713581D01*
X106821003Y-83740500D01*
X106821006Y-83740500D01*
X106821007Y-83740500D01*
X107907318Y-83740500D01*
X107974357Y-83760185D01*
X107994999Y-83776819D01*
X110561290Y-86343111D01*
X110561291Y-86343112D01*
X110676027Y-86419776D01*
X110774627Y-86460617D01*
X110803508Y-86472580D01*
X110803509Y-86472580D01*
X110803514Y-86472582D01*
X110830382Y-86477925D01*
X110830388Y-86477926D01*
X110830428Y-86477934D01*
X110920774Y-86495905D01*
X110938843Y-86499500D01*
X110938844Y-86499500D01*
X157457481Y-86499500D01*
X157524520Y-86519185D01*
X157545162Y-86535819D01*
X162225461Y-91216119D01*
X162225462Y-91216120D01*
X162340200Y-91292785D01*
X162467675Y-91345586D01*
X162467680Y-91345588D01*
X162467684Y-91345588D01*
X162467685Y-91345589D01*
X162603011Y-91372508D01*
X162603014Y-91372508D01*
X162603015Y-91372508D01*
X164229065Y-91372508D01*
X164276517Y-91381947D01*
X164420879Y-91441743D01*
X164420884Y-91441745D01*
X164575534Y-91472507D01*
X164575537Y-91472508D01*
X164575539Y-91472508D01*
X164733225Y-91472508D01*
X164733226Y-91472507D01*
X164887878Y-91441745D01*
X165033560Y-91381402D01*
X165164670Y-91293797D01*
X165276170Y-91182297D01*
X165363775Y-91051187D01*
X165424118Y-90905505D01*
X165454881Y-90750850D01*
X165454881Y-90593166D01*
X165454881Y-90593163D01*
X165454880Y-90593161D01*
X165424119Y-90438518D01*
X165424118Y-90438511D01*
X165424116Y-90438506D01*
X165363778Y-90292835D01*
X165363771Y-90292822D01*
X165276170Y-90161719D01*
X165276167Y-90161715D01*
X165164673Y-90050221D01*
X165164669Y-90050218D01*
X165033566Y-89962617D01*
X165033553Y-89962610D01*
X164887882Y-89902272D01*
X164887870Y-89902269D01*
X164733226Y-89871508D01*
X164733223Y-89871508D01*
X164575539Y-89871508D01*
X164575536Y-89871508D01*
X164420891Y-89902269D01*
X164420879Y-89902272D01*
X164276517Y-89962069D01*
X164229065Y-89971508D01*
X163013527Y-89971508D01*
X162946488Y-89951823D01*
X162925846Y-89935189D01*
X158245546Y-85254888D01*
X158245545Y-85254887D01*
X158130807Y-85178222D01*
X158003332Y-85125421D01*
X158003322Y-85125418D01*
X157867996Y-85098500D01*
X157867994Y-85098500D01*
X157867993Y-85098500D01*
X111349356Y-85098500D01*
X111282317Y-85078815D01*
X111261675Y-85062181D01*
X108700508Y-82501013D01*
X108667023Y-82439690D01*
X108672007Y-82369998D01*
X108713879Y-82314065D01*
X108715245Y-82313056D01*
X108879792Y-82193507D01*
X109030104Y-82043195D01*
X109030106Y-82043191D01*
X109030109Y-82043189D01*
X109097083Y-81951006D01*
X109155051Y-81871219D01*
X109164085Y-81853489D01*
X109175235Y-81831608D01*
X109223209Y-81780812D01*
X109285719Y-81763903D01*
X154749928Y-81763903D01*
X154749944Y-81763904D01*
X154757540Y-81763904D01*
X154915651Y-81763904D01*
X154915654Y-81763904D01*
X155068382Y-81722980D01*
X155135777Y-81684069D01*
X155205313Y-81643923D01*
X155317117Y-81532119D01*
X155317117Y-81532117D01*
X155327321Y-81521914D01*
X155327324Y-81521909D01*
X157514664Y-79334571D01*
X157575985Y-79301088D01*
X157578152Y-79300637D01*
X157578841Y-79300500D01*
X157578842Y-79300500D01*
X157733497Y-79269737D01*
X157864950Y-79215288D01*
X157879172Y-79209397D01*
X157879172Y-79209396D01*
X157879179Y-79209394D01*
X158010289Y-79121789D01*
X158121789Y-79010289D01*
X158209394Y-78879179D01*
X158269737Y-78733497D01*
X158300500Y-78578842D01*
X158300500Y-78421158D01*
X158300500Y-78421155D01*
X158300499Y-78421153D01*
X158288188Y-78359262D01*
X158269737Y-78266503D01*
X158265616Y-78256553D01*
X158209397Y-78120827D01*
X158209390Y-78120814D01*
X158121789Y-77989711D01*
X158121786Y-77989707D01*
X158010292Y-77878213D01*
X158010288Y-77878210D01*
X157879185Y-77790609D01*
X157879172Y-77790602D01*
X157733501Y-77730264D01*
X157733489Y-77730261D01*
X157578845Y-77699500D01*
X157578842Y-77699500D01*
X157421158Y-77699500D01*
X157421155Y-77699500D01*
X157266510Y-77730261D01*
X157266498Y-77730264D01*
X157120827Y-77790602D01*
X157120814Y-77790609D01*
X156989711Y-77878210D01*
X156989707Y-77878213D01*
X156878213Y-77989707D01*
X156878210Y-77989711D01*
X156790609Y-78120814D01*
X156790602Y-78120827D01*
X156730264Y-78266498D01*
X156730261Y-78266508D01*
X156699362Y-78421848D01*
X156666977Y-78483759D01*
X156665426Y-78485337D01*
X154624181Y-80526584D01*
X154562858Y-80560069D01*
X154536500Y-80562903D01*
X111108503Y-80562903D01*
X111041464Y-80543218D01*
X110995709Y-80490414D01*
X110985765Y-80421256D01*
X111008185Y-80366018D01*
X111100800Y-80238542D01*
X111100799Y-80238542D01*
X111100803Y-80238538D01*
X111197309Y-80049134D01*
X111262998Y-79846965D01*
X111296252Y-79637009D01*
X111296252Y-79424435D01*
X111277845Y-79308221D01*
X111286799Y-79238931D01*
X111331795Y-79185479D01*
X111398547Y-79164839D01*
X111438634Y-79170894D01*
X111575262Y-79215288D01*
X111785218Y-79248542D01*
X111785219Y-79248542D01*
X111997791Y-79248542D01*
X111997792Y-79248542D01*
X112207748Y-79215288D01*
X112409917Y-79149599D01*
X112599321Y-79053093D01*
X112630112Y-79030722D01*
X112771291Y-78928151D01*
X112771293Y-78928148D01*
X112771297Y-78928146D01*
X112921609Y-78777834D01*
X112921611Y-78777830D01*
X112921614Y-78777828D01*
X113013806Y-78650935D01*
X113046556Y-78605858D01*
X113046854Y-78605272D01*
X113066740Y-78566247D01*
X113114714Y-78515451D01*
X113177224Y-78498542D01*
X116083630Y-78498542D01*
X116083646Y-78498543D01*
X116091242Y-78498543D01*
X116249353Y-78498543D01*
X116249356Y-78498543D01*
X116402084Y-78457619D01*
X116465610Y-78420942D01*
X116539015Y-78378562D01*
X116650819Y-78266758D01*
X116650819Y-78266756D01*
X116661023Y-78256553D01*
X116661026Y-78256548D01*
X118380757Y-76536819D01*
X118442080Y-76503334D01*
X118468438Y-76500500D01*
X146093331Y-76500500D01*
X146093347Y-76500501D01*
X146100943Y-76500501D01*
X146259054Y-76500501D01*
X146259057Y-76500501D01*
X146411785Y-76459577D01*
X146478477Y-76421072D01*
X146548716Y-76380520D01*
X146660520Y-76268716D01*
X146660520Y-76268714D01*
X146670724Y-76258511D01*
X146670728Y-76258506D01*
X147095478Y-75833755D01*
X147156799Y-75800272D01*
X147221473Y-75803506D01*
X147263757Y-75817246D01*
X147473713Y-75850500D01*
X147473714Y-75850500D01*
X147686286Y-75850500D01*
X147686287Y-75850500D01*
X147896243Y-75817246D01*
X148098412Y-75751557D01*
X148287816Y-75655051D01*
X148335373Y-75620499D01*
X148459786Y-75530109D01*
X148459788Y-75530106D01*
X148459792Y-75530104D01*
X148610104Y-75379792D01*
X148610106Y-75379788D01*
X148610109Y-75379786D01*
X148735048Y-75207820D01*
X148735047Y-75207820D01*
X148735051Y-75207816D01*
X148739514Y-75199054D01*
X148787488Y-75148259D01*
X148855308Y-75131463D01*
X148921444Y-75153999D01*
X148960486Y-75199056D01*
X148964951Y-75207820D01*
X149089890Y-75379786D01*
X149240213Y-75530109D01*
X149412184Y-75655051D01*
X149412184Y-75655052D01*
X149451793Y-75675233D01*
X149462856Y-75685681D01*
X149476703Y-75692005D01*
X149487744Y-75709185D01*
X149502590Y-75723206D01*
X149506831Y-75738886D01*
X149514477Y-75750783D01*
X149519500Y-75785718D01*
X149519500Y-75793330D01*
X149519499Y-75793348D01*
X149519499Y-75959054D01*
X149519498Y-75959054D01*
X149519499Y-75959057D01*
X149557743Y-76101785D01*
X149560423Y-76111784D01*
X149560424Y-76111788D01*
X149571385Y-76130772D01*
X149571387Y-76130775D01*
X149639477Y-76248712D01*
X149639481Y-76248717D01*
X149758349Y-76367585D01*
X149758355Y-76367590D01*
X151045139Y-77654374D01*
X151045149Y-77654385D01*
X151049479Y-77658715D01*
X151049480Y-77658716D01*
X151161284Y-77770520D01*
X151245229Y-77818985D01*
X151298211Y-77849575D01*
X151298215Y-77849577D01*
X151450943Y-77890500D01*
X155333331Y-77890500D01*
X155333347Y-77890501D01*
X155340943Y-77890501D01*
X155499054Y-77890501D01*
X155499057Y-77890501D01*
X155651785Y-77849577D01*
X155666140Y-77841288D01*
X155704748Y-77818999D01*
X155704759Y-77818991D01*
X155704771Y-77818985D01*
X155788716Y-77770520D01*
X155900520Y-77658716D01*
X155900520Y-77658714D01*
X155910724Y-77648511D01*
X155910728Y-77648506D01*
X157198506Y-76360728D01*
X157198511Y-76360724D01*
X157208714Y-76350520D01*
X157208716Y-76350520D01*
X157320520Y-76238716D01*
X157393804Y-76111784D01*
X157399577Y-76101785D01*
X157440500Y-75949058D01*
X157440500Y-75790943D01*
X157440500Y-73660096D01*
X157460185Y-73593057D01*
X157476815Y-73572419D01*
X157755496Y-73293737D01*
X157816817Y-73260254D01*
X157886508Y-73265238D01*
X157942442Y-73307109D01*
X157957736Y-73333967D01*
X157980604Y-73389175D01*
X157980609Y-73389185D01*
X158068210Y-73520288D01*
X158068213Y-73520292D01*
X158179707Y-73631786D01*
X158179711Y-73631789D01*
X158310814Y-73719390D01*
X158310827Y-73719397D01*
X158456498Y-73779735D01*
X158456503Y-73779737D01*
X158611153Y-73810499D01*
X158611156Y-73810500D01*
X158611158Y-73810500D01*
X158649902Y-73810500D01*
X158716941Y-73830185D01*
X158737583Y-73846819D01*
X158951284Y-74060520D01*
X158951286Y-74060521D01*
X158951290Y-74060524D01*
X159076272Y-74132681D01*
X159088216Y-74139577D01*
X159240943Y-74180501D01*
X159240945Y-74180501D01*
X159406654Y-74180501D01*
X159406670Y-74180500D01*
X175239903Y-74180500D01*
X175306942Y-74200185D01*
X175327584Y-74216819D01*
X176879584Y-75768819D01*
X176913069Y-75830142D01*
X176908085Y-75899834D01*
X176866213Y-75955767D01*
X176800749Y-75980184D01*
X176791903Y-75980500D01*
X159641097Y-75980500D01*
X159611656Y-75971855D01*
X159581670Y-75965332D01*
X159576654Y-75961577D01*
X159574058Y-75960815D01*
X159553416Y-75944181D01*
X159477146Y-75867911D01*
X159443661Y-75806588D01*
X159443210Y-75756038D01*
X159470500Y-75618844D01*
X159470500Y-75461155D01*
X159470499Y-75461153D01*
X159461528Y-75416053D01*
X159439737Y-75306503D01*
X159416333Y-75250000D01*
X159379397Y-75160827D01*
X159379390Y-75160814D01*
X159291789Y-75029711D01*
X159291786Y-75029707D01*
X159180292Y-74918213D01*
X159180288Y-74918210D01*
X159049185Y-74830609D01*
X159049172Y-74830602D01*
X158903501Y-74770264D01*
X158903489Y-74770261D01*
X158748845Y-74739500D01*
X158748842Y-74739500D01*
X158591158Y-74739500D01*
X158591155Y-74739500D01*
X158436510Y-74770261D01*
X158436498Y-74770264D01*
X158290827Y-74830602D01*
X158290814Y-74830609D01*
X158159711Y-74918210D01*
X158159707Y-74918213D01*
X158048213Y-75029707D01*
X158048210Y-75029711D01*
X157960609Y-75160814D01*
X157960602Y-75160827D01*
X157900264Y-75306498D01*
X157900261Y-75306510D01*
X157869500Y-75461153D01*
X157869500Y-75618846D01*
X157900261Y-75773489D01*
X157900264Y-75773501D01*
X157960602Y-75919172D01*
X157960609Y-75919185D01*
X158048210Y-76050288D01*
X158048213Y-76050292D01*
X158076209Y-76078288D01*
X158101252Y-76114305D01*
X158105604Y-76123800D01*
X158110423Y-76141785D01*
X158124116Y-76165501D01*
X158160733Y-76228925D01*
X158189479Y-76278715D01*
X158308349Y-76397585D01*
X158308355Y-76397590D01*
X158856139Y-76945374D01*
X158856149Y-76945385D01*
X158860479Y-76949715D01*
X158860480Y-76949716D01*
X158972284Y-77061520D01*
X159057808Y-77110896D01*
X159059095Y-77111639D01*
X159059097Y-77111641D01*
X159109213Y-77140576D01*
X159109215Y-77140577D01*
X159261942Y-77181500D01*
X159261943Y-77181500D01*
X176982562Y-77181500D01*
X177049601Y-77201185D01*
X177070243Y-77217819D01*
X179809867Y-79957443D01*
X179843352Y-80018766D01*
X179838368Y-80088458D01*
X179825289Y-80114014D01*
X179760608Y-80210816D01*
X179760602Y-80210827D01*
X179700264Y-80356498D01*
X179700261Y-80356510D01*
X179669500Y-80511153D01*
X179669500Y-80668846D01*
X179700261Y-80823489D01*
X179700264Y-80823501D01*
X179760602Y-80969172D01*
X179760609Y-80969185D01*
X179848602Y-81100874D01*
X179869480Y-81167551D01*
X179869500Y-81169765D01*
X179869500Y-82264286D01*
X179849815Y-82331325D01*
X179797011Y-82377080D01*
X179727853Y-82387024D01*
X179721309Y-82385903D01*
X179638846Y-82369500D01*
X179638842Y-82369500D01*
X179481158Y-82369500D01*
X179481155Y-82369500D01*
X179326510Y-82400261D01*
X179326498Y-82400264D01*
X179180827Y-82460602D01*
X179180814Y-82460609D01*
X179049125Y-82548602D01*
X178982447Y-82569480D01*
X178980234Y-82569500D01*
X178830940Y-82569500D01*
X178790019Y-82580464D01*
X178790019Y-82580465D01*
X178752751Y-82590451D01*
X178678214Y-82610423D01*
X178678209Y-82610426D01*
X178541290Y-82689475D01*
X178541282Y-82689481D01*
X178429478Y-82801286D01*
X165167584Y-96063181D01*
X165106261Y-96096666D01*
X165079903Y-96099500D01*
X159029766Y-96099500D01*
X158962727Y-96079815D01*
X158960875Y-96078602D01*
X158829185Y-95990609D01*
X158829172Y-95990602D01*
X158683501Y-95930264D01*
X158683489Y-95930261D01*
X158528845Y-95899500D01*
X158528842Y-95899500D01*
X158371158Y-95899500D01*
X158371155Y-95899500D01*
X158216510Y-95930261D01*
X158216498Y-95930264D01*
X158070827Y-95990602D01*
X158070814Y-95990609D01*
X157939711Y-96078210D01*
X157939707Y-96078213D01*
X157828213Y-96189707D01*
X157828210Y-96189711D01*
X157740609Y-96320814D01*
X157740602Y-96320827D01*
X157680264Y-96466498D01*
X157680261Y-96466510D01*
X157649500Y-96621153D01*
X157649500Y-96778846D01*
X157680261Y-96933489D01*
X157680264Y-96933501D01*
X157740602Y-97079172D01*
X157740609Y-97079185D01*
X157828210Y-97210288D01*
X157828213Y-97210292D01*
X157865240Y-97247319D01*
X157898725Y-97308642D01*
X157893741Y-97378334D01*
X157865240Y-97422681D01*
X157818213Y-97469707D01*
X157818210Y-97469711D01*
X157730609Y-97600814D01*
X157730602Y-97600827D01*
X157670264Y-97746498D01*
X157670261Y-97746510D01*
X157639500Y-97901153D01*
X157639500Y-98058846D01*
X157670261Y-98213489D01*
X157670264Y-98213501D01*
X157730602Y-98359172D01*
X157730609Y-98359185D01*
X157818210Y-98490288D01*
X157818213Y-98490292D01*
X157929707Y-98601786D01*
X157929711Y-98601789D01*
X158060814Y-98689390D01*
X158060827Y-98689397D01*
X158206498Y-98749735D01*
X158206503Y-98749737D01*
X158355578Y-98779390D01*
X158361153Y-98780499D01*
X158361156Y-98780500D01*
X158361158Y-98780500D01*
X158518844Y-98780500D01*
X158518845Y-98780499D01*
X158673497Y-98749737D01*
X158813404Y-98691786D01*
X158819172Y-98689397D01*
X158819172Y-98689396D01*
X158819179Y-98689394D01*
X158865333Y-98658555D01*
X158950875Y-98601398D01*
X159017553Y-98580520D01*
X159019766Y-98580500D01*
X164653331Y-98580500D01*
X164653347Y-98580501D01*
X164660943Y-98580501D01*
X164819054Y-98580501D01*
X164819057Y-98580501D01*
X164971785Y-98539577D01*
X165021904Y-98510639D01*
X165108716Y-98460520D01*
X165220520Y-98348716D01*
X165220520Y-98348714D01*
X165230728Y-98338507D01*
X165230729Y-98338504D01*
X166197054Y-97372179D01*
X168560000Y-97372179D01*
X168560000Y-97437821D01*
X168585119Y-97498465D01*
X168631535Y-97544881D01*
X168692179Y-97570000D01*
X168757821Y-97570000D01*
X168818465Y-97544881D01*
X168864881Y-97498465D01*
X168890000Y-97437821D01*
X168890000Y-97372179D01*
X169860000Y-97372179D01*
X169860000Y-97437821D01*
X169885119Y-97498465D01*
X169931535Y-97544881D01*
X169992179Y-97570000D01*
X170057821Y-97570000D01*
X170118465Y-97544881D01*
X170164881Y-97498465D01*
X170190000Y-97437821D01*
X170190000Y-97372179D01*
X170164881Y-97311535D01*
X170118465Y-97265119D01*
X170057821Y-97240000D01*
X169992179Y-97240000D01*
X169931535Y-97265119D01*
X169885119Y-97311535D01*
X169860000Y-97372179D01*
X168890000Y-97372179D01*
X168864881Y-97311535D01*
X168818465Y-97265119D01*
X168757821Y-97240000D01*
X168692179Y-97240000D01*
X168631535Y-97265119D01*
X168585119Y-97311535D01*
X168560000Y-97372179D01*
X166197054Y-97372179D01*
X167363319Y-96205914D01*
X167424642Y-96172430D01*
X167494334Y-96177414D01*
X167550267Y-96219286D01*
X167574684Y-96284750D01*
X167575000Y-96293596D01*
X167575000Y-97155000D01*
X168121446Y-97155000D01*
X168121446Y-97154999D01*
X167967688Y-97001241D01*
X167934203Y-96939918D01*
X167939187Y-96870226D01*
X167944935Y-96857166D01*
X167997107Y-96755000D01*
X168428554Y-96755000D01*
X168725000Y-97051446D01*
X169021446Y-96755000D01*
X169728554Y-96755000D01*
X170025000Y-97051446D01*
X170321446Y-96755000D01*
X170025000Y-96458554D01*
X169728554Y-96755000D01*
X169021446Y-96755000D01*
X168725000Y-96458554D01*
X168428554Y-96755000D01*
X167997107Y-96755000D01*
X168011122Y-96727554D01*
X167967688Y-96684120D01*
X167934203Y-96622797D01*
X167939187Y-96553105D01*
X167967688Y-96508758D01*
X168404267Y-96072179D01*
X168560000Y-96072179D01*
X168560000Y-96137821D01*
X168585119Y-96198465D01*
X168631535Y-96244881D01*
X168692179Y-96270000D01*
X168757821Y-96270000D01*
X168818465Y-96244881D01*
X168864881Y-96198465D01*
X168890000Y-96137821D01*
X168890000Y-96105000D01*
X169078554Y-96105000D01*
X169125000Y-96151445D01*
X169125000Y-96151444D01*
X169625000Y-96151444D01*
X169671445Y-96105000D01*
X169638624Y-96072179D01*
X169860000Y-96072179D01*
X169860000Y-96137821D01*
X169885119Y-96198465D01*
X169931535Y-96244881D01*
X169992179Y-96270000D01*
X170057821Y-96270000D01*
X170118465Y-96244881D01*
X170164881Y-96198465D01*
X170190000Y-96137821D01*
X170190000Y-96072179D01*
X170164881Y-96011535D01*
X170118465Y-95965119D01*
X170057821Y-95940000D01*
X169992179Y-95940000D01*
X169931535Y-95965119D01*
X169885119Y-96011535D01*
X169860000Y-96072179D01*
X169638624Y-96072179D01*
X169625000Y-96058555D01*
X169625000Y-96151444D01*
X169125000Y-96151444D01*
X169125000Y-96058554D01*
X169078554Y-96105000D01*
X168890000Y-96105000D01*
X168890000Y-96072179D01*
X168864881Y-96011535D01*
X168818465Y-95965119D01*
X168757821Y-95940000D01*
X168692179Y-95940000D01*
X168631535Y-95965119D01*
X168585119Y-96011535D01*
X168560000Y-96072179D01*
X168404267Y-96072179D01*
X168510489Y-95965957D01*
X169124999Y-95351446D01*
X169625000Y-95351446D01*
X170782312Y-96508758D01*
X170815797Y-96570081D01*
X170810813Y-96639773D01*
X170782312Y-96684120D01*
X170711432Y-96755000D01*
X170782311Y-96825879D01*
X170815796Y-96887202D01*
X170810812Y-96956894D01*
X170782311Y-97001241D01*
X170628553Y-97154998D01*
X170628554Y-97155000D01*
X171175000Y-97155000D01*
X171175000Y-95707172D01*
X171174999Y-95707155D01*
X171168598Y-95647627D01*
X171168596Y-95647620D01*
X171118354Y-95512913D01*
X171118350Y-95512906D01*
X171032190Y-95397812D01*
X171032187Y-95397809D01*
X170917093Y-95311649D01*
X170917086Y-95311645D01*
X170782379Y-95261403D01*
X170782372Y-95261401D01*
X170722844Y-95255000D01*
X169625000Y-95255000D01*
X169625000Y-95351446D01*
X169124999Y-95351446D01*
X169125000Y-95351445D01*
X169125000Y-95255000D01*
X168613596Y-95255000D01*
X168546557Y-95235315D01*
X168500802Y-95182511D01*
X168490858Y-95113353D01*
X168519883Y-95049797D01*
X168525915Y-95043319D01*
X179181417Y-84387819D01*
X179242740Y-84354334D01*
X179269098Y-84351500D01*
X179713990Y-84351500D01*
X179714006Y-84351501D01*
X179721602Y-84351501D01*
X179879713Y-84351501D01*
X179879716Y-84351501D01*
X180032444Y-84310577D01*
X180082563Y-84281639D01*
X180169375Y-84231520D01*
X180244621Y-84156273D01*
X180251128Y-84151293D01*
X180276385Y-84141562D01*
X180300141Y-84128591D01*
X180308503Y-84129189D01*
X180316327Y-84126175D01*
X180342836Y-84131644D01*
X180369833Y-84133575D01*
X180376544Y-84138598D01*
X180384755Y-84140293D01*
X180404098Y-84159225D01*
X180425767Y-84175446D01*
X180428696Y-84183301D01*
X180434688Y-84189165D01*
X180440724Y-84215549D01*
X180450184Y-84240910D01*
X180450500Y-84249757D01*
X180450500Y-88807243D01*
X180430815Y-88874282D01*
X180414181Y-88894924D01*
X173148481Y-96160623D01*
X173148479Y-96160625D01*
X173126633Y-96198465D01*
X173114500Y-96219481D01*
X173069423Y-96297556D01*
X173028499Y-96450284D01*
X173028499Y-96450286D01*
X173028499Y-96618387D01*
X173028500Y-96618400D01*
X173028500Y-97442330D01*
X173028499Y-97442348D01*
X173028499Y-97608054D01*
X173028498Y-97608054D01*
X173052748Y-97698554D01*
X173069423Y-97760785D01*
X173088083Y-97793105D01*
X173098358Y-97810900D01*
X173098359Y-97810904D01*
X173098360Y-97810904D01*
X173148479Y-97897714D01*
X173148481Y-97897717D01*
X173335426Y-98084662D01*
X173368911Y-98145985D01*
X173369362Y-98148151D01*
X173400261Y-98303491D01*
X173400264Y-98303501D01*
X173460602Y-98449172D01*
X173460609Y-98449185D01*
X173548210Y-98580288D01*
X173548213Y-98580292D01*
X173659707Y-98691786D01*
X173659711Y-98691789D01*
X173790814Y-98779390D01*
X173790827Y-98779397D01*
X173936498Y-98839735D01*
X173936503Y-98839737D01*
X174088644Y-98870000D01*
X174091153Y-98870499D01*
X174091156Y-98870500D01*
X174091158Y-98870500D01*
X174248844Y-98870500D01*
X174248845Y-98870499D01*
X174403497Y-98839737D01*
X174549179Y-98779394D01*
X174680289Y-98691789D01*
X174791789Y-98580289D01*
X174879394Y-98449179D01*
X174939737Y-98303497D01*
X174970500Y-98148842D01*
X174970500Y-97991158D01*
X174970500Y-97991155D01*
X174970499Y-97991153D01*
X174951913Y-97897716D01*
X174939737Y-97836503D01*
X174902456Y-97746498D01*
X174879397Y-97690827D01*
X174879390Y-97690814D01*
X174791789Y-97559711D01*
X174791786Y-97559707D01*
X174759760Y-97527682D01*
X174726274Y-97466360D01*
X174731258Y-97396668D01*
X174759757Y-97352320D01*
X174831789Y-97280289D01*
X174919394Y-97149179D01*
X174979737Y-97003497D01*
X175004319Y-96879918D01*
X175010638Y-96848150D01*
X175043023Y-96786239D01*
X175044518Y-96784716D01*
X182168713Y-89660521D01*
X182168716Y-89660520D01*
X182280520Y-89548716D01*
X182330639Y-89461904D01*
X182359577Y-89411785D01*
X182400501Y-89259057D01*
X182400501Y-89100943D01*
X182400501Y-89093348D01*
X182400500Y-89093330D01*
X182400500Y-79929059D01*
X182400501Y-79929046D01*
X182400501Y-79760945D01*
X182400501Y-79760943D01*
X182359577Y-79608215D01*
X182321928Y-79543006D01*
X182321928Y-79543004D01*
X182280524Y-79471290D01*
X182280521Y-79471286D01*
X182280520Y-79471284D01*
X182168716Y-79359480D01*
X182168715Y-79359479D01*
X182164385Y-79355149D01*
X182164374Y-79355139D01*
X176027590Y-73218355D01*
X176027588Y-73218352D01*
X175908717Y-73099481D01*
X175908716Y-73099480D01*
X175813189Y-73044328D01*
X175771785Y-73020423D01*
X175619057Y-72979499D01*
X175460943Y-72979499D01*
X175453347Y-72979499D01*
X175453331Y-72979500D01*
X159620098Y-72979500D01*
X159590657Y-72970855D01*
X159560671Y-72964332D01*
X159555655Y-72960577D01*
X159553059Y-72959815D01*
X159532417Y-72943181D01*
X159509674Y-72920438D01*
X159476189Y-72859115D01*
X159475765Y-72857084D01*
X159459737Y-72776503D01*
X159447783Y-72747645D01*
X159403591Y-72640952D01*
X159396122Y-72571482D01*
X159427398Y-72509003D01*
X159487487Y-72473352D01*
X159518152Y-72469500D01*
X178518903Y-72469500D01*
X178585942Y-72489185D01*
G37*
%TD.AperFunction*%
%TA.AperFunction,Conductor*%
G36*
X109000203Y-74786866D02*
G01*
X109037977Y-74845644D01*
X109042358Y-74867978D01*
X109050000Y-74942796D01*
X109050001Y-74942799D01*
X109079818Y-75032780D01*
X109105186Y-75109334D01*
X109197288Y-75258656D01*
X109321344Y-75382712D01*
X109470666Y-75474814D01*
X109637203Y-75529999D01*
X109739991Y-75540500D01*
X110540008Y-75540499D01*
X110540016Y-75540498D01*
X110540019Y-75540498D01*
X110596302Y-75534748D01*
X110642797Y-75529999D01*
X110809334Y-75474814D01*
X110958656Y-75382712D01*
X111052319Y-75289049D01*
X111113642Y-75255564D01*
X111183334Y-75260548D01*
X111227681Y-75289049D01*
X111321344Y-75382712D01*
X111470666Y-75474814D01*
X111637203Y-75529999D01*
X111739991Y-75540500D01*
X112488542Y-75540499D01*
X112555581Y-75560183D01*
X112601336Y-75612987D01*
X112611280Y-75682146D01*
X112599028Y-75720792D01*
X112585702Y-75746945D01*
X112520011Y-75949121D01*
X112486758Y-76159074D01*
X112486758Y-76371647D01*
X112505164Y-76487859D01*
X112496209Y-76557153D01*
X112451213Y-76610605D01*
X112384461Y-76631244D01*
X112344373Y-76625188D01*
X112207745Y-76580795D01*
X112046462Y-76555250D01*
X111997792Y-76547542D01*
X111785218Y-76547542D01*
X111736547Y-76555250D01*
X111575265Y-76580795D01*
X111373090Y-76646486D01*
X111183684Y-76742993D01*
X111011718Y-76867932D01*
X110861395Y-77018255D01*
X110736456Y-77190221D01*
X110639949Y-77379627D01*
X110574258Y-77581802D01*
X110541005Y-77791755D01*
X110541005Y-78004328D01*
X110559411Y-78120539D01*
X110550456Y-78189833D01*
X110505460Y-78243285D01*
X110438709Y-78263924D01*
X110398620Y-78257868D01*
X110261992Y-78213475D01*
X110100709Y-78187930D01*
X110052039Y-78180222D01*
X109839465Y-78180222D01*
X109790794Y-78187930D01*
X109629512Y-78213475D01*
X109427337Y-78279166D01*
X109237931Y-78375673D01*
X109065965Y-78500612D01*
X108915642Y-78650935D01*
X108790703Y-78822901D01*
X108694196Y-79012307D01*
X108628505Y-79214482D01*
X108595252Y-79424435D01*
X108595252Y-79637008D01*
X108613658Y-79753220D01*
X108604703Y-79822514D01*
X108559707Y-79875966D01*
X108492955Y-79896605D01*
X108452867Y-79890549D01*
X108316240Y-79846156D01*
X108154957Y-79820611D01*
X108106287Y-79812903D01*
X107893713Y-79812903D01*
X107845042Y-79820611D01*
X107683760Y-79846156D01*
X107481585Y-79911847D01*
X107292179Y-80008354D01*
X107120213Y-80133293D01*
X107120209Y-80133297D01*
X107012181Y-80241326D01*
X106950858Y-80274811D01*
X106881166Y-80269827D01*
X106825233Y-80227955D01*
X106800816Y-80162491D01*
X106800500Y-80153645D01*
X106800500Y-76667984D01*
X106820185Y-76600945D01*
X106822650Y-76597255D01*
X106828974Y-76588147D01*
X106850990Y-76566132D01*
X106896210Y-76491326D01*
X106898442Y-76488114D01*
X106922712Y-76468558D01*
X106945702Y-76447506D01*
X106949694Y-76446819D01*
X106952849Y-76444278D01*
X106983842Y-76440948D01*
X107014561Y-76435667D01*
X107018290Y-76437247D01*
X107022319Y-76436815D01*
X107050196Y-76450772D01*
X107078890Y-76462935D01*
X107082261Y-76466826D01*
X107084796Y-76468095D01*
X107087910Y-76473345D01*
X107106409Y-76494694D01*
X107149404Y-76565819D01*
X107269177Y-76685592D01*
X107269181Y-76685595D01*
X107414133Y-76773221D01*
X107414137Y-76773223D01*
X107575848Y-76823613D01*
X107575846Y-76823613D01*
X107646127Y-76830000D01*
X107650000Y-76830000D01*
X108150000Y-76830000D01*
X108153873Y-76830000D01*
X108224152Y-76823613D01*
X108385862Y-76773223D01*
X108385866Y-76773221D01*
X108530818Y-76685595D01*
X108530822Y-76685592D01*
X108650592Y-76565822D01*
X108650595Y-76565818D01*
X108738221Y-76420866D01*
X108738223Y-76420862D01*
X108788613Y-76259152D01*
X108795000Y-76188873D01*
X108795000Y-75750000D01*
X108150000Y-75750000D01*
X108150000Y-76830000D01*
X107650000Y-76830000D01*
X107650000Y-75624000D01*
X107669685Y-75556961D01*
X107722489Y-75511206D01*
X107774000Y-75500000D01*
X107900000Y-75500000D01*
X107900000Y-75374000D01*
X107919685Y-75306961D01*
X107972489Y-75261206D01*
X108024000Y-75250000D01*
X108795000Y-75250000D01*
X108795000Y-74880579D01*
X108814685Y-74813540D01*
X108867489Y-74767785D01*
X108936647Y-74757841D01*
X109000203Y-74786866D01*
G37*
%TD.AperFunction*%
%TA.AperFunction,Conductor*%
G36*
X194418833Y-73244336D02*
G01*
X194474767Y-73286207D01*
X194499184Y-73351672D01*
X194499500Y-73360518D01*
X194499500Y-74093667D01*
X194479815Y-74160706D01*
X194427011Y-74206461D01*
X194357853Y-74216405D01*
X194338610Y-74212053D01*
X194224148Y-74176385D01*
X194153873Y-74170000D01*
X194150000Y-74170000D01*
X194150000Y-76830000D01*
X194153873Y-76830000D01*
X194224150Y-76823613D01*
X194338609Y-76787947D01*
X194408470Y-76786795D01*
X194467862Y-76823596D01*
X194497930Y-76886665D01*
X194499500Y-76906332D01*
X194499500Y-79031480D01*
X194479815Y-79098519D01*
X194427011Y-79144274D01*
X194357853Y-79154218D01*
X194294297Y-79125193D01*
X194287819Y-79119161D01*
X192826819Y-77658161D01*
X192793334Y-77596838D01*
X192790500Y-77570480D01*
X192790500Y-76677984D01*
X192810185Y-76610945D01*
X192813874Y-76605524D01*
X192819729Y-76597392D01*
X192850990Y-76566132D01*
X192896759Y-76490419D01*
X192899666Y-76486383D01*
X192923462Y-76467872D01*
X192945702Y-76447506D01*
X192950763Y-76446635D01*
X192954815Y-76443484D01*
X192984840Y-76440776D01*
X193014561Y-76435667D01*
X193019288Y-76437671D01*
X193024402Y-76437210D01*
X193051129Y-76451167D01*
X193078890Y-76462935D01*
X193083210Y-76467921D01*
X193086335Y-76469553D01*
X193089628Y-76475328D01*
X193106409Y-76494694D01*
X193149404Y-76565819D01*
X193269177Y-76685592D01*
X193269181Y-76685595D01*
X193414133Y-76773221D01*
X193414137Y-76773223D01*
X193575848Y-76823613D01*
X193575846Y-76823613D01*
X193646127Y-76830000D01*
X193650000Y-76830000D01*
X193650000Y-74170000D01*
X193646127Y-74170000D01*
X193575847Y-74176386D01*
X193414137Y-74226776D01*
X193414133Y-74226778D01*
X193269181Y-74314404D01*
X193269177Y-74314407D01*
X193149407Y-74434177D01*
X193106409Y-74505306D01*
X193054881Y-74552493D01*
X192986022Y-74564332D01*
X192921693Y-74537063D01*
X192894175Y-74505305D01*
X192850992Y-74433871D01*
X192850989Y-74433867D01*
X192731132Y-74314010D01*
X192731128Y-74314007D01*
X192586073Y-74226319D01*
X192586068Y-74226317D01*
X192424246Y-74175891D01*
X192424238Y-74175889D01*
X192375003Y-74171415D01*
X192353921Y-74169500D01*
X192353918Y-74169500D01*
X191846079Y-74169500D01*
X191798193Y-74173851D01*
X191729648Y-74160312D01*
X191718085Y-74153462D01*
X191694350Y-74137603D01*
X191649544Y-74083991D01*
X191640837Y-74014666D01*
X191670991Y-73951638D01*
X191730434Y-73914918D01*
X191763240Y-73910500D01*
X193428996Y-73910500D01*
X193520040Y-73892389D01*
X193564328Y-73883580D01*
X193639857Y-73852295D01*
X193691807Y-73830777D01*
X193691808Y-73830776D01*
X193691811Y-73830775D01*
X193806543Y-73754114D01*
X194287819Y-73272836D01*
X194349142Y-73239352D01*
X194418833Y-73244336D01*
G37*
%TD.AperFunction*%
%TA.AperFunction,Conductor*%
G36*
X152910000Y-75827230D02*
G01*
X152976126Y-75816757D01*
X152976129Y-75816757D01*
X153178217Y-75751095D01*
X153367557Y-75654620D01*
X153539458Y-75529728D01*
X153653133Y-75416053D01*
X153714456Y-75382568D01*
X153784148Y-75387552D01*
X153840082Y-75429423D01*
X153856997Y-75460401D01*
X153906202Y-75592328D01*
X153906206Y-75592335D01*
X153992452Y-75707544D01*
X153992455Y-75707547D01*
X154107664Y-75793793D01*
X154107671Y-75793797D01*
X154242517Y-75844091D01*
X154242516Y-75844091D01*
X154249444Y-75844835D01*
X154302127Y-75850500D01*
X155710903Y-75850499D01*
X155777942Y-75870184D01*
X155823697Y-75922987D01*
X155833641Y-75992146D01*
X155804616Y-76055702D01*
X155798584Y-76062180D01*
X155207584Y-76653181D01*
X155146261Y-76686666D01*
X155119903Y-76689500D01*
X151830097Y-76689500D01*
X151763058Y-76669815D01*
X151742416Y-76653181D01*
X150882097Y-75792862D01*
X150848612Y-75731539D01*
X150853596Y-75661847D01*
X150895468Y-75605914D01*
X150896782Y-75604944D01*
X150999792Y-75530104D01*
X151150104Y-75379792D01*
X151150106Y-75379788D01*
X151150109Y-75379786D01*
X151240360Y-75255564D01*
X151275051Y-75207816D01*
X151279793Y-75198508D01*
X151327763Y-75147711D01*
X151395583Y-75130911D01*
X151461719Y-75153445D01*
X151500763Y-75198500D01*
X151505377Y-75207555D01*
X151630272Y-75379459D01*
X151630276Y-75379464D01*
X151780535Y-75529723D01*
X151780540Y-75529727D01*
X151952442Y-75654620D01*
X152141782Y-75751095D01*
X152343871Y-75816757D01*
X152410000Y-75827231D01*
X152410000Y-74933012D01*
X152467007Y-74965925D01*
X152594174Y-75000000D01*
X152725826Y-75000000D01*
X152852993Y-74965925D01*
X152910000Y-74933012D01*
X152910000Y-75827230D01*
G37*
%TD.AperFunction*%
%TA.AperFunction,Conductor*%
G36*
X141222526Y-73641275D02*
G01*
X141225197Y-73640614D01*
X141255859Y-73651062D01*
X141286925Y-73660185D01*
X141288725Y-73662263D01*
X141291331Y-73663151D01*
X141311481Y-73688525D01*
X141332680Y-73712989D01*
X141333071Y-73715710D01*
X141334783Y-73717866D01*
X141338014Y-73750089D01*
X141342624Y-73782147D01*
X141341564Y-73785488D01*
X141341755Y-73787387D01*
X141330371Y-73820795D01*
X141248444Y-73981585D01*
X141182753Y-74183760D01*
X141149500Y-74393713D01*
X141149500Y-74606286D01*
X141175471Y-74770264D01*
X141182754Y-74816243D01*
X141248443Y-75018412D01*
X141295267Y-75110310D01*
X141299800Y-75119205D01*
X141312696Y-75187874D01*
X141286420Y-75252614D01*
X141229314Y-75292872D01*
X141189315Y-75299500D01*
X119378622Y-75299500D01*
X119311583Y-75279815D01*
X119265828Y-75227011D01*
X119255884Y-75157853D01*
X119284909Y-75094297D01*
X119290941Y-75087819D01*
X120701941Y-73676819D01*
X120763264Y-73643334D01*
X120789622Y-73640500D01*
X141219886Y-73640500D01*
X141222526Y-73641275D01*
G37*
%TD.AperFunction*%
%TA.AperFunction,Conductor*%
G36*
X106293039Y-71519685D02*
G01*
X106338794Y-71572489D01*
X106350000Y-71624000D01*
X106350000Y-72830000D01*
X106353873Y-72830000D01*
X106424152Y-72823613D01*
X106585862Y-72773223D01*
X106585866Y-72773221D01*
X106730818Y-72685595D01*
X106730822Y-72685592D01*
X106850593Y-72565821D01*
X106893589Y-72494695D01*
X106945116Y-72447506D01*
X107013975Y-72435667D01*
X107078304Y-72462934D01*
X107105824Y-72494693D01*
X107149010Y-72566132D01*
X107268867Y-72685989D01*
X107268871Y-72685992D01*
X107395926Y-72762799D01*
X107413928Y-72773681D01*
X107413930Y-72773681D01*
X107413931Y-72773682D01*
X107422981Y-72776502D01*
X107575758Y-72824110D01*
X107646079Y-72830500D01*
X108153920Y-72830499D01*
X108153927Y-72830499D01*
X108224235Y-72824111D01*
X108224236Y-72824110D01*
X108224242Y-72824110D01*
X108386072Y-72773681D01*
X108531132Y-72685990D01*
X108650990Y-72566132D01*
X108738681Y-72421072D01*
X108780270Y-72287609D01*
X108794372Y-72266440D01*
X108804942Y-72243297D01*
X108813420Y-72237848D01*
X108819007Y-72229462D01*
X108842319Y-72219276D01*
X108863720Y-72205523D01*
X108878739Y-72203363D01*
X108883032Y-72201488D01*
X108898655Y-72200500D01*
X109016551Y-72200500D01*
X109083590Y-72220185D01*
X109129345Y-72272989D01*
X109138370Y-72306226D01*
X109138585Y-72306181D01*
X109139430Y-72310133D01*
X109139909Y-72311894D01*
X109140001Y-72312799D01*
X109195185Y-72479331D01*
X109195187Y-72479336D01*
X109208460Y-72500855D01*
X109287288Y-72628656D01*
X109411344Y-72752712D01*
X109560666Y-72844814D01*
X109727203Y-72899999D01*
X109727206Y-72899999D01*
X109732834Y-72901864D01*
X109734822Y-72903240D01*
X109737236Y-72903415D01*
X109763394Y-72923022D01*
X109790280Y-72941636D01*
X109791209Y-72943870D01*
X109793144Y-72945321D01*
X109804550Y-72975961D01*
X109817103Y-73006152D01*
X109816676Y-73008532D01*
X109817521Y-73010800D01*
X109810550Y-73042745D01*
X109804788Y-73074928D01*
X109803141Y-73076701D01*
X109802626Y-73079064D01*
X109779489Y-73102171D01*
X109757245Y-73126128D01*
X109754371Y-73127259D01*
X109753191Y-73128439D01*
X109744683Y-73131075D01*
X109720114Y-73140752D01*
X109713319Y-73142225D01*
X109637203Y-73150001D01*
X109560912Y-73175281D01*
X109554454Y-73176682D01*
X109548358Y-73176242D01*
X109528171Y-73179500D01*
X107201004Y-73179500D01*
X107065677Y-73206418D01*
X107065667Y-73206421D01*
X106938192Y-73259222D01*
X106823454Y-73335887D01*
X106026160Y-74133181D01*
X105964837Y-74166666D01*
X105938480Y-74169500D01*
X105846071Y-74169500D01*
X105775765Y-74175888D01*
X105775758Y-74175889D01*
X105775758Y-74175890D01*
X105697794Y-74200185D01*
X105661390Y-74211529D01*
X105591530Y-74212679D01*
X105532137Y-74175878D01*
X105502069Y-74112809D01*
X105500500Y-74093143D01*
X105500500Y-72906332D01*
X105520185Y-72839293D01*
X105572989Y-72793538D01*
X105642147Y-72783594D01*
X105661391Y-72787947D01*
X105775849Y-72823613D01*
X105846127Y-72830000D01*
X105850000Y-72830000D01*
X105850000Y-71624000D01*
X105869685Y-71556961D01*
X105922489Y-71511206D01*
X105974000Y-71500000D01*
X106226000Y-71500000D01*
X106293039Y-71519685D01*
G37*
%TD.AperFunction*%
%TA.AperFunction,Conductor*%
G36*
X154085520Y-72720185D02*
G01*
X154106162Y-72736819D01*
X154314539Y-72945196D01*
X154348024Y-73006519D01*
X154343040Y-73076211D01*
X154301168Y-73132144D01*
X154249663Y-73152410D01*
X154250068Y-73154124D01*
X154242520Y-73155907D01*
X154107671Y-73206202D01*
X154107664Y-73206206D01*
X153992455Y-73292452D01*
X153992452Y-73292455D01*
X153906206Y-73407664D01*
X153906202Y-73407671D01*
X153856997Y-73539598D01*
X153815126Y-73595532D01*
X153749661Y-73619949D01*
X153681388Y-73605097D01*
X153653134Y-73583946D01*
X153539464Y-73470276D01*
X153539459Y-73470272D01*
X153367557Y-73345379D01*
X153178215Y-73248903D01*
X152976124Y-73183241D01*
X152910000Y-73172768D01*
X152910000Y-74066988D01*
X152852993Y-74034075D01*
X152725826Y-74000000D01*
X152594174Y-74000000D01*
X152467007Y-74034075D01*
X152410000Y-74066988D01*
X152410000Y-73172768D01*
X152409999Y-73172768D01*
X152343875Y-73183241D01*
X152141784Y-73248903D01*
X151952442Y-73345379D01*
X151780540Y-73470272D01*
X151780535Y-73470276D01*
X151630276Y-73620535D01*
X151630272Y-73620540D01*
X151505378Y-73792443D01*
X151500762Y-73801502D01*
X151452784Y-73852295D01*
X151384963Y-73869087D01*
X151318829Y-73846546D01*
X151279794Y-73801493D01*
X151275051Y-73792184D01*
X151275049Y-73792181D01*
X151275048Y-73792179D01*
X151150109Y-73620213D01*
X150999786Y-73469890D01*
X150827820Y-73344951D01*
X150638414Y-73248444D01*
X150638413Y-73248443D01*
X150638412Y-73248443D01*
X150436243Y-73182754D01*
X150436241Y-73182753D01*
X150436240Y-73182753D01*
X150274957Y-73157208D01*
X150226287Y-73149500D01*
X150013713Y-73149500D01*
X149995340Y-73152410D01*
X149803757Y-73182753D01*
X149761473Y-73196492D01*
X149691632Y-73198486D01*
X149635476Y-73166241D01*
X149381416Y-72912181D01*
X149347931Y-72850858D01*
X149352915Y-72781166D01*
X149394787Y-72725233D01*
X149460251Y-72700816D01*
X149469097Y-72700500D01*
X154018481Y-72700500D01*
X154085520Y-72720185D01*
G37*
%TD.AperFunction*%
%TA.AperFunction,Conductor*%
G36*
X111246974Y-72628662D02*
G01*
X111273334Y-72630548D01*
X111282387Y-72636366D01*
X111289427Y-72637898D01*
X111317681Y-72659049D01*
X111411344Y-72752712D01*
X111560666Y-72844814D01*
X111727203Y-72899999D01*
X111727206Y-72899999D01*
X111732834Y-72901864D01*
X111790280Y-72941636D01*
X111817103Y-73006152D01*
X111804788Y-73074928D01*
X111757245Y-73126128D01*
X111706434Y-73142928D01*
X111637202Y-73150001D01*
X111637200Y-73150001D01*
X111470668Y-73205185D01*
X111470663Y-73205187D01*
X111321342Y-73297289D01*
X111227681Y-73390951D01*
X111166358Y-73424436D01*
X111096666Y-73419452D01*
X111052319Y-73390951D01*
X110958657Y-73297289D01*
X110958656Y-73297288D01*
X110833308Y-73219973D01*
X110809336Y-73205187D01*
X110809331Y-73205185D01*
X110778836Y-73195080D01*
X110642797Y-73150001D01*
X110642794Y-73150000D01*
X110637164Y-73148135D01*
X110579719Y-73108362D01*
X110552896Y-73043847D01*
X110565211Y-72975071D01*
X110612754Y-72923871D01*
X110663567Y-72907071D01*
X110701069Y-72903240D01*
X110732797Y-72899999D01*
X110899334Y-72844814D01*
X111048656Y-72752712D01*
X111142319Y-72659049D01*
X111150264Y-72654710D01*
X111155690Y-72647463D01*
X111180449Y-72638228D01*
X111203642Y-72625564D01*
X111212671Y-72626209D01*
X111221154Y-72623046D01*
X111246974Y-72628662D01*
G37*
%TD.AperFunction*%
%TA.AperFunction,Conductor*%
G36*
X191144056Y-70508221D02*
G01*
X191171123Y-70512569D01*
X191177101Y-70517924D01*
X191184800Y-70520185D01*
X191202745Y-70540895D01*
X191223167Y-70559188D01*
X191225301Y-70566925D01*
X191230555Y-70572989D01*
X191234455Y-70600117D01*
X191241744Y-70626543D01*
X191239903Y-70638003D01*
X191240499Y-70642147D01*
X191236147Y-70661390D01*
X191211385Y-70740852D01*
X191205000Y-70811126D01*
X191205000Y-71250000D01*
X191976000Y-71250000D01*
X192043039Y-71269685D01*
X192088794Y-71322489D01*
X192100000Y-71374000D01*
X192100000Y-71626000D01*
X192080315Y-71693039D01*
X192027511Y-71738794D01*
X191976000Y-71750000D01*
X191205000Y-71750000D01*
X191205000Y-72188873D01*
X191211385Y-72259147D01*
X191239263Y-72348610D01*
X191240413Y-72418470D01*
X191203612Y-72477863D01*
X191140543Y-72507931D01*
X191120877Y-72509500D01*
X190811519Y-72509500D01*
X190782078Y-72500855D01*
X190752092Y-72494332D01*
X190747076Y-72490577D01*
X190744480Y-72489815D01*
X190723838Y-72473181D01*
X190556818Y-72306161D01*
X190523333Y-72244838D01*
X190520499Y-72218480D01*
X190520499Y-71659998D01*
X190520498Y-71659981D01*
X190509999Y-71557203D01*
X190509998Y-71557200D01*
X190476426Y-71455887D01*
X190454814Y-71390666D01*
X190362712Y-71241344D01*
X190238656Y-71117288D01*
X190089334Y-71025186D01*
X189922797Y-70970001D01*
X189922795Y-70970000D01*
X189820010Y-70959500D01*
X189019998Y-70959500D01*
X189019980Y-70959501D01*
X188917203Y-70970000D01*
X188917200Y-70970001D01*
X188750668Y-71025185D01*
X188750663Y-71025187D01*
X188601342Y-71117289D01*
X188507681Y-71210951D01*
X188446358Y-71244436D01*
X188376666Y-71239452D01*
X188332319Y-71210951D01*
X188238657Y-71117289D01*
X188238656Y-71117288D01*
X188089334Y-71025186D01*
X187922797Y-70970001D01*
X187922795Y-70970000D01*
X187820016Y-70959500D01*
X187820009Y-70959500D01*
X187261519Y-70959500D01*
X187194480Y-70939815D01*
X187173842Y-70923185D01*
X187026543Y-70775886D01*
X187026542Y-70775885D01*
X187026541Y-70775884D01*
X187026538Y-70775882D01*
X186954282Y-70727602D01*
X186909476Y-70673990D01*
X186900769Y-70604665D01*
X186930923Y-70541638D01*
X186990366Y-70504918D01*
X187023172Y-70500500D01*
X191117761Y-70500500D01*
X191144056Y-70508221D01*
G37*
%TD.AperFunction*%
%TA.AperFunction,Conductor*%
G36*
X156333868Y-70520185D02*
G01*
X156379623Y-70572989D01*
X156389567Y-70642147D01*
X156360542Y-70705703D01*
X156335720Y-70727602D01*
X156263457Y-70775886D01*
X156263453Y-70775889D01*
X155282680Y-71756661D01*
X155221357Y-71790146D01*
X155151665Y-71785162D01*
X155107318Y-71756661D01*
X154806546Y-71455888D01*
X154806545Y-71455887D01*
X154691807Y-71379222D01*
X154564332Y-71326421D01*
X154564322Y-71326418D01*
X154428996Y-71299500D01*
X154428994Y-71299500D01*
X154428993Y-71299500D01*
X118797758Y-71299500D01*
X118659770Y-71299500D01*
X118659768Y-71299500D01*
X118524441Y-71326418D01*
X118524431Y-71326421D01*
X118396956Y-71379222D01*
X118315705Y-71433513D01*
X118249028Y-71454390D01*
X118181648Y-71435905D01*
X118160888Y-71419811D01*
X118142938Y-71402559D01*
X118017738Y-71331592D01*
X118017734Y-71331591D01*
X118017733Y-71331590D01*
X118017732Y-71331590D01*
X117877602Y-71298770D01*
X117877601Y-71298770D01*
X117733901Y-71306757D01*
X117733898Y-71306758D01*
X117598275Y-71354906D01*
X117598267Y-71354911D01*
X117548492Y-71388312D01*
X116497158Y-72270489D01*
X116433150Y-72298502D01*
X116417452Y-72299500D01*
X113861518Y-72299500D01*
X113794479Y-72279815D01*
X113773837Y-72263181D01*
X113366818Y-71856162D01*
X113333333Y-71794839D01*
X113330499Y-71768481D01*
X113330499Y-71209998D01*
X113330498Y-71209981D01*
X113319999Y-71107203D01*
X113319998Y-71107200D01*
X113264814Y-70940666D01*
X113172712Y-70791344D01*
X113093549Y-70712181D01*
X113060064Y-70650858D01*
X113065048Y-70581166D01*
X113106920Y-70525233D01*
X113172384Y-70500816D01*
X113181230Y-70500500D01*
X156266829Y-70500500D01*
X156333868Y-70520185D01*
G37*
%TD.AperFunction*%
%TD*%
M02*
